<?xml version="1.0" standalone="no"?>
<!DOCTYPE svg PUBLIC "-//W3C//DTD SVG 1.1//EN" "http://www.w3.org/Graphics/SVG/1.1/DTD/svg11.dtd" >
<svg>
<metadata>
Created by FontForge 20090622 at Tue May 16 04:26:47 2017
 By deploy user
Copyright (C) 2000, 2007 Hoefler &#38; Frere-Jones. http://www.typography.com
</metadata>
<defs>
<font id="SVN-GothamLight" horiz-adv-x="500" >
  <font-face 
    font-family="SVN-Gotham Light"
    font-weight="300"
    font-stretch="normal"
    units-per-em="1000"
    panose-1="0 0 0 0 0 0 0 0 0 0"
    ascent="800"
    descent="-200"
    x-height="510"
    cap-height="700"
    bbox="-35 -225 1145 1068"
    underline-thickness="50"
    underline-position="-50"
    unicode-range="U+0020-U+FB04"
  />
<missing-glyph 
d="M0 -200v1000h500v-1000h-500zM71 750l179 -390l179 390h-358zM50 -76l172 376l-172 376v-752zM450 676l-172 -376l172 -376v752zM250 240l-179 -390h358z" />
    <glyph glyph-name=".notdef" 
d="M0 -200v1000h500v-1000h-500zM71 750l179 -390l179 390h-358zM50 -76l172 376l-172 376v-752zM450 676l-172 -376l172 -376v752zM250 240l-179 -390h358z" />
    <glyph glyph-name=".null" horiz-adv-x="0" 
 />
    <glyph glyph-name="nonmarkingreturn" horiz-adv-x="333" 
 />
    <glyph glyph-name="space" unicode=" " horiz-adv-x="300" 
 />
    <glyph glyph-name="exclam" unicode="!" horiz-adv-x="252" 
d="M112 183l-15 447v70h58v-70l-15 -447h-28zM93 0v85h66v-85h-66z" />
    <glyph glyph-name="quotedbl" unicode="&#x22;" horiz-adv-x="410" 
d="M248 446l35 254h65v-5l-71 -249h-29zM68 446l35 254h65v-5l-71 -249h-29z" />
    <glyph glyph-name="numbersign" unicode="#" horiz-adv-x="700" 
d="M610 234v-47h-137l-32 -187h-48l32 187h-207l-32 -187h-48l32 187h-121v47h129l40 236h-129v47h137l32 183h48l-31 -183h207l31 183h48l-32 -183h121v-47h-129l-40 -236h129zM266 470l-40 -236h207l40 236h-207z" />
    <glyph glyph-name="dollar" unicode="$" horiz-adv-x="632" 
d="M297 -98v99q-129 11 -237 107l33 39q95 -90 206 -101v285q-112 24 -162 68.5t-50 119.5q0 76 59 127.5t151 53.5v58h48v-60q102 -9 193 -82l-33 -39q-74 66 -162 76v-281q113 -24 164.5 -69t51.5 -118q0 -79 -60.5 -131t-153.5 -54v-98h-48zM508 181q0 53 -35 86t-130 54
v-276q74 2 119.5 40t45.5 96zM138 523q0 -54 33.5 -86t127.5 -55v273q-72 -2 -116.5 -39.5t-44.5 -92.5z" />
    <glyph glyph-name="percent" unicode="%" horiz-adv-x="824" 
d="M208 350q-67 0 -110 52.5t-43 124.5v2q0 72 43.5 125.5t111.5 53.5q67 0 110 -52.5t43 -124.5v-2q0 -73 -43.5 -126t-111.5 -53zM311 527v2q0 57 -30.5 96.5t-72.5 39.5q-44 0 -72.5 -39t-28.5 -95v-2q0 -59 30 -97.5t73 -38.5q44 0 72.5 38.5t28.5 95.5zM393 360
l249 340h54l-267 -363l-247 -337h-54zM614 -8q-67 0 -110 52.5t-43 124.5v2q0 72 43.5 125.5t111.5 53.5q67 0 110 -52.5t43 -124.5v-2q0 -73 -43.5 -126t-111.5 -53zM616 35q44 0 72.5 38.5t28.5 95.5v2q0 57 -30.5 96.5t-72.5 39.5q-44 0 -72.5 -39t-28.5 -95v-2
q0 -59 30 -97.5t73 -38.5z" />
    <glyph glyph-name="ampersand" unicode="&#x26;" horiz-adv-x="696" 
d="M622 -14l-121 125q-105 -121 -237 -121q-93 0 -154 54.5t-61 139.5v2q0 137 181 205q-42 47 -60 82.5t-18 77.5v2q0 69 49.5 114t125.5 45q68 0 114.5 -44.5t46.5 -107.5v-2q0 -122 -172 -181l184 -189q46 63 91 170l47 -19q-53 -119 -104 -186l129 -133zM285 409
q151 48 151 147v2q0 47 -31.5 78.5t-79.5 31.5q-53 0 -87 -32t-34 -81v-2q0 -32 17 -62.5t64 -81.5zM265 35q108 0 203 110l-207 214q-81 -28 -120.5 -73t-39.5 -98v-2q0 -64 46.5 -107.5t117.5 -43.5z" />
    <glyph glyph-name="quotesingle" unicode="'" horiz-adv-x="230" 
d="M68 446l35 254h65v-5l-71 -249h-29z" />
    <glyph glyph-name="parenleft" unicode="(" horiz-adv-x="430" 
d="M369 -108l-21 -33q-135 76 -206 184t-71 244t71 244t206 184l21 -33q-246 -150 -246 -395t246 -395z" />
    <glyph glyph-name="parenright" unicode=")" horiz-adv-x="430" 
d="M82 -141l-21 33q246 150 246 395t-246 395l21 33q135 -76 206 -184t71 -244t-71 -244t-206 -184z" />
    <glyph glyph-name="asterisk" unicode="*" horiz-adv-x="430" 
d="M194 406l9 127l-106 -72l-22 37l118 56l-118 56l22 37l106 -72l-9 127h42l-9 -127l106 72l22 -37l-118 -56l118 -56l-22 -37l-106 72l9 -127h-42z" />
    <glyph glyph-name="plus" unicode="+" horiz-adv-x="620" 
d="M285 113v215h-217v48h217v215h50v-215h217v-48h-217v-215h-50z" />
    <glyph glyph-name="comma" unicode="," horiz-adv-x="230" 
d="M65 -107l-12 25q33 18 45.5 35.5t10.5 46.5h-27v85h66v-74q0 -47 -19 -74t-64 -44z" />
    <glyph glyph-name="hyphen" unicode="-" horiz-adv-x="408" 
d="M70 269v56h268v-56h-268z" />
    <glyph glyph-name="period" unicode="." horiz-adv-x="230" 
d="M82 0v85h66v-85h-66z" />
    <glyph glyph-name="slash" unicode="/" 
d="M-18 -128l472 926h49l-472 -926h-49z" />
    <glyph glyph-name="zero" unicode="0" horiz-adv-x="710" 
d="M354 -12q-130 0 -209.5 105t-79.5 255v2q0 97 35 179t102.5 132.5t153.5 50.5q130 0 209.5 -105t79.5 -255v-2q0 -97 -35 -179t-102.5 -132.5t-153.5 -50.5zM356 35q104 0 169.5 93t65.5 220v2q0 128 -66 221.5t-171 93.5q-104 0 -169.5 -93t-65.5 -220v-2
q0 -127 66 -221t171 -94z" />
    <glyph glyph-name="one" unicode="1" horiz-adv-x="335" 
d="M179 0v651l-135 -46l-14 41l160 59h40v-705h-51z" />
    <glyph glyph-name="two" unicode="2" horiz-adv-x="590" 
d="M48 0v39l261 236q86 78 120.5 131t34.5 108q0 67 -46.5 108.5t-111.5 41.5q-64 0 -111 -31.5t-94 -98.5l-39 26q50 75 106.5 112.5t142.5 37.5q89 0 148.5 -55t59.5 -137v-2q0 -69 -38.5 -125.5t-136.5 -146.5l-214 -194h396v-50h-478z" />
    <glyph glyph-name="three" unicode="3" horiz-adv-x="610" 
d="M311 -12q-161 0 -257 126l40 33q87 -112 218 -112q71 0 122 43.5t51 111.5v2q0 72 -60.5 112t-157.5 40h-38l-13 29l241 278h-367v49h438v-37l-237 -271q108 -6 178 -56.5t70 -141.5v-2q0 -90 -67 -147t-161 -57z" />
    <glyph glyph-name="four" unicode="4" horiz-adv-x="664" 
d="M445 0v171h-379l-18 39l400 495h47v-489h114v-45h-114v-171h-50zM111 216h334v414z" />
    <glyph glyph-name="five" unicode="5" horiz-adv-x="605" 
d="M302 -12q-68 0 -132 31t-113 82l37 37q103 -103 210 -103q82 0 135 50.5t53 125.5v2q0 72 -54 119t-138 47q-77 0 -158 -44l-40 26l20 339h393v-50h-347l-17 -262q74 38 155 38q103 0 171.5 -59t68.5 -152v-2q0 -98 -69 -161.5t-175 -63.5z" />
    <glyph glyph-name="six" unicode="6" horiz-adv-x="642" 
d="M331 -12q-108 0 -178 70q-47 47 -68 108t-21 165v2q0 162 78.5 270.5t206.5 108.5q105 0 202 -81l-33 -40q-85 74 -173 74q-106 0 -169.5 -101t-59.5 -262q78 130 219 130q98 0 169.5 -60.5t71.5 -151.5v-2q0 -99 -70.5 -164.5t-174.5 -65.5zM335 35q82 0 134.5 52.5
t52.5 128.5v2q0 72 -53.5 120t-136.5 48t-139 -53t-56 -120v-2q0 -75 56.5 -125.5t141.5 -50.5z" />
    <glyph glyph-name="seven" unicode="7" horiz-adv-x="587" 
d="M156 0l318 650h-406v50h464v-38l-319 -662h-57z" />
    <glyph glyph-name="eight" unicode="8" horiz-adv-x="630" 
d="M315 -10q-111 0 -185.5 55.5t-74.5 141.5v2q0 59 43 104.5t112 68.5q-57 21 -94 63t-37 100v2q0 78 71.5 130.5t164.5 52.5t164.5 -52.5t71.5 -130.5v-2q0 -58 -37 -100t-94 -63q69 -23 112 -68.5t43 -104.5v-2q0 -86 -74.5 -141.5t-185.5 -55.5zM315 381q76 0 129 40.5
t53 103.5v2q0 59 -52.5 97.5t-129.5 38.5t-129.5 -38.5t-52.5 -97.5v-2q0 -63 53 -103.5t129 -40.5zM315 37q94 0 150 43t56 105v2q0 65 -59.5 107.5t-146.5 42.5t-146.5 -42.5t-59.5 -107.5v-2q0 -62 56 -105t150 -43z" />
    <glyph glyph-name="nine" unicode="9" horiz-adv-x="642" 
d="M293 -12q-106 0 -211 87l33 40q91 -80 179 -80q106 0 172 102t60 259q-75 -135 -218 -135q-105 0 -173.5 61.5t-68.5 152.5v2q0 99 69 167t177 68q107 0 178 -71q88 -88 88 -273v-2q0 -164 -81 -271t-204 -107zM310 307q86 0 140.5 54t54.5 124v2q0 75 -56.5 126.5
t-142.5 51.5q-83 0 -134.5 -55t-51.5 -131v-2q0 -74 53.5 -122t136.5 -48z" />
    <glyph glyph-name="colon" unicode=":" horiz-adv-x="240" 
d="M87 425v85h66v-85h-66zM87 0v85h66v-85h-66z" />
    <glyph glyph-name="semicolon" unicode=";" horiz-adv-x="240" 
d="M87 425v85h66v-85h-66zM70 -107l-12 25q33 18 45.5 35.5t10.5 46.5h-27v85h66v-74q0 -47 -19 -74t-64 -44z" />
    <glyph glyph-name="less" unicode="&#x3c;" horiz-adv-x="620" 
d="M527 91l-464 241v40l464 241v-54l-403 -206l403 -208v-54z" />
    <glyph glyph-name="equal" unicode="=" horiz-adv-x="620" 
d="M83 439v51h454v-51h-454zM83 214v51h454v-51h-454z" />
    <glyph glyph-name="greater" unicode="&#x3e;" horiz-adv-x="620" 
d="M93 91v54l403 206l-403 208v54l464 -241v-40z" />
    <glyph glyph-name="question" unicode="?" horiz-adv-x="534" 
d="M229 183l-13 162l5 5q99 2 153.5 44.5t54.5 115.5v2q0 64 -45.5 107.5t-120.5 43.5q-109 0 -193 -103l-36 30q47 58 101 88.5t130 30.5q97 0 157 -56.5t60 -138.5v-2q0 -89 -59.5 -141.5t-152.5 -62.5l-9 -125h-32zM212 0v85h66v-85h-66z" />
    <glyph glyph-name="at" unicode="@" horiz-adv-x="980" 
d="M499 -162q-190 0 -318 127.5t-128 308.5q0 180 127.5 309t310.5 129q182 0 309 -117.5t127 -278.5q0 -119 -55 -181t-127 -62q-52 0 -87.5 25t-48.5 68q-73 -93 -171 -93q-74 0 -125.5 50t-51.5 128q0 103 72.5 176t160.5 73q99 0 149 -89l14 75l48 -6l-37 -211
q-9 -53 -9 -72q0 -43 23.5 -65.5t66.5 -22.5q58 0 101 53t43 154q0 142 -117.5 253t-284.5 111q-172 0 -288 -118.5t-116 -287.5q0 -170 116.5 -287t295.5 -117q134 0 250 68l15 -25q-123 -75 -265 -75zM446 120q69 0 124.5 59.5t55.5 133.5q0 59 -37.5 99t-94.5 40
q-70 0 -125.5 -57.5t-55.5 -139.5q0 -63 36.5 -99t96.5 -36z" />
    <glyph glyph-name="A" unicode="A" horiz-adv-x="790" 
d="M44 0l326 705h50l326 -705h-57l-89 196h-413l-89 -196h-54zM209 243h369l-184 405z" />
    <glyph glyph-name="B" unicode="B" horiz-adv-x="722" 
d="M104 0v700h289q120 0 182 -62q45 -45 45 -110v-2q0 -116 -119 -166q70 -18 114 -59t44 -108v-2q0 -87 -68.5 -139t-182.5 -52h-304zM156 377h231q80 0 130 38t50 106v2q0 59 -46 94t-129 35h-236v-275zM156 48h254q90 0 143 38.5t53 104.5v2q0 66 -54.5 101t-158.5 35
h-237v-281z" />
    <glyph glyph-name="C" unicode="C" horiz-adv-x="738" 
d="M421 -12q-150 0 -249 104t-99 256v2q0 150 100 256t250 106q87 0 149.5 -28.5t122.5 -83.5l-37 -38q-106 103 -236 103q-126 0 -210.5 -90.5t-84.5 -222.5v-2q0 -132 85.5 -223.5t210.5 -91.5q73 0 129 26.5t112 82.5l35 -34q-62 -60 -126.5 -91t-151.5 -31z" />
    <glyph glyph-name="D" unicode="D" horiz-adv-x="782" 
d="M104 0v700h233q163 0 267.5 -99.5t104.5 -248.5v-2q0 -150 -104.5 -250t-267.5 -100h-233zM156 48h181q143 0 230.5 86t87.5 214v2q0 127 -87.5 214.5t-230.5 87.5h-181v-604z" />
    <glyph glyph-name="E" unicode="E" horiz-adv-x="670" 
d="M104 0v700h498v-48h-446v-275h401v-48h-401v-281h451v-48h-503z" />
    <glyph glyph-name="F" unicode="F" horiz-adv-x="656" 
d="M104 0v700h493v-48h-441v-287h396v-48h-396v-317h-52z" />
    <glyph glyph-name="G" unicode="G" horiz-adv-x="784" 
d="M425 -12q-161 0 -256.5 103.5t-95.5 256.5v2q0 147 97 254.5t249 107.5q82 0 141 -22.5t115 -69.5l-34 -39q-96 84 -225 84q-126 0 -207.5 -91.5t-81.5 -221.5v-2q0 -139 81 -227.5t219 -88.5q63 0 122.5 22.5t100.5 57.5v201h-234v48h284v-270q-120 -105 -275 -105z" />
    <glyph glyph-name="H" unicode="H" horiz-adv-x="760" 
d="M104 0v700h52v-324h448v324h52v-700h-52v328h-448v-328h-52z" />
    <glyph glyph-name="I" unicode="I" horiz-adv-x="274" 
d="M111 0v700h52v-700h-52z" />
    <glyph glyph-name="J" unicode="J" horiz-adv-x="549" 
d="M249 -10q-139 0 -212 131l43 27q34 -57 73.5 -84t98.5 -27q67 0 109.5 49t42.5 138v476h52v-472q0 -118 -64 -182q-56 -56 -143 -56z" />
    <glyph glyph-name="K" unicode="K" horiz-adv-x="715" 
d="M104 0v700h52v-460l446 460h71l-306 -309l319 -391h-68l-288 354l-174 -176v-178h-52z" />
    <glyph glyph-name="L" unicode="L" horiz-adv-x="619" 
d="M104 0v700h52v-652h411v-48h-463z" />
    <glyph glyph-name="M" unicode="M" horiz-adv-x="868" 
d="M104 0v700h49l281 -414l281 414h49v-700h-52v608l-277 -403h-4l-277 403v-608h-50z" />
    <glyph glyph-name="N" unicode="N" horiz-adv-x="790" 
d="M104 0v700h49l483 -609v609h50v-700h-39l-493 622v-622h-50z" />
    <glyph glyph-name="O" unicode="O" horiz-adv-x="850" 
d="M424 -12q-155 0 -253 106t-98 254v2q0 149 99 255.5t254 106.5t253 -106t98 -254v-2q0 -149 -99 -255.5t-254 -106.5zM426 35q128 0 212.5 91t84.5 222v2q0 131 -85.5 223t-213.5 92t-212.5 -91t-84.5 -222v-2q0 -131 85.5 -223t213.5 -92z" />
    <glyph glyph-name="P" unicode="P" horiz-adv-x="668" 
d="M104 0v700h254q117 0 188.5 -57t71.5 -157v-2q0 -106 -78 -164.5t-195 -58.5h-189v-261h-52zM156 309h192q98 0 158 47t60 125v2q0 81 -58 125t-154 44h-198v-343z" />
    <glyph glyph-name="Q" unicode="Q" horiz-adv-x="850" 
d="M785 19l-37 -40l-99 89q-94 -80 -225 -80q-155 0 -253 106t-98 254v2q0 149 99 255.5t254 106.5t253 -106t98 -254v-2q0 -144 -92 -247zM426 35q108 0 186 66l-136 116l37 41l134 -122q76 89 76 212v2q0 131 -85.5 223t-213.5 92t-212.5 -91t-84.5 -222v-2
q0 -131 85.5 -223t213.5 -92z" />
    <glyph glyph-name="R" unicode="R" horiz-adv-x="723" 
d="M104 0v700h294q128 0 197 -69q53 -53 53 -130v-2q0 -84 -56.5 -135.5t-148.5 -64.5l231 -299h-66l-223 290h-229v-290h-52zM156 337h236q90 0 147 43t57 117v2q0 72 -53 112.5t-148 40.5h-239v-315z" />
    <glyph glyph-name="S" unicode="S" horiz-adv-x="640" 
d="M341 -10q-157 0 -282 112l34 39q59 -55 117 -79.5t134 -24.5q78 0 127.5 39.5t49.5 99.5v2q0 58 -41.5 92t-156.5 57q-127 26 -181.5 71.5t-54.5 125.5v2q0 78 64 131t161 53q74 0 129.5 -20.5t110.5 -64.5l-33 -41q-93 79 -209 79q-76 0 -123.5 -38.5t-47.5 -93.5v-2
q0 -59 42.5 -93.5t161.5 -59.5q122 -25 176 -70.5t54 -122.5v-2q0 -84 -65 -137.5t-167 -53.5z" />
    <glyph glyph-name="T" unicode="T" horiz-adv-x="648" 
d="M298 0v652h-244v48h540v-48h-244v-652h-52z" />
    <glyph glyph-name="U" unicode="U" horiz-adv-x="760" 
d="M380 -11q-129 0 -208 79t-79 223v409h52v-404q0 -125 62.5 -192.5t174.5 -67.5q108 0 170.5 65.5t62.5 189.5v409h52v-403q0 -147 -78 -227.5t-209 -80.5z" />
    <glyph glyph-name="V" unicode="V" horiz-adv-x="750" 
d="M352 -5l-308 705h58l274 -644l275 644h55l-308 -705h-46z" />
    <glyph glyph-name="W" unicode="W" horiz-adv-x="1102" 
d="M304 -5l-254 705h58l220 -623l205 625h40l205 -625l220 623h54l-254 -705h-42l-205 608l-205 -608h-42z" />
    <glyph glyph-name="X" unicode="X" horiz-adv-x="722" 
d="M51 0l278 357l-268 343h62l239 -309l238 309h61l-269 -343l279 -357h-62l-249 323l-248 -323h-61z" />
    <glyph glyph-name="Y" unicode="Y" horiz-adv-x="716" 
d="M332 0v277l-300 423h65l262 -376l263 376h62l-300 -422v-278h-52z" />
    <glyph glyph-name="Z" unicode="Z" horiz-adv-x="688" 
d="M68 0v29l479 624h-462v47h536v-29l-479 -624h479v-47h-553z" />
    <glyph glyph-name="bracketleft" unicode="[" horiz-adv-x="430" 
d="M98 -130v830h273v-38h-227v-754h227v-38h-273z" />
    <glyph glyph-name="backslash" unicode="\" 
d="M469 -128l-472 926h49l472 -926h-49z" />
    <glyph glyph-name="bracketright" unicode="]" horiz-adv-x="430" 
d="M59 -130v38h227v754h-227v38h273v-830h-273z" />
    <glyph glyph-name="asciicircum" unicode="^" 
d="M70 493l158 210h44l158 -210h-53l-128 167l-128 -167h-51z" />
    <glyph glyph-name="underscore" unicode="_" horiz-adv-x="600" 
d="M-2 -160v44h604v-44h-604z" />
    <glyph glyph-name="grave" unicode="`" 
d="M264 595l-107 103l61 30l88 -133h-42z" />
    <glyph glyph-name="a" unicode="a" horiz-adv-x="574" 
d="M248 -12q-78 0 -137.5 42.5t-59.5 117.5v2q0 79 61 122.5t162 43.5q86 0 169 -22v22q0 77 -44 116.5t-124 39.5t-160 -41l-18 43q91 44 181 44q105 0 161 -56q52 -52 52 -144v-318h-48v85q-71 -97 -195 -97zM251 34q80 0 136.5 44.5t56.5 112.5v58q-90 23 -173 23
q-80 0 -124 -32t-44 -87v-2q0 -53 43.5 -85t104.5 -32z" />
    <glyph glyph-name="b" unicode="b" horiz-adv-x="660" 
d="M352 -12q-128 0 -210 122v-110h-49v730h49v-334q81 126 210 126q98 0 173 -73t75 -192v-2q0 -118 -75 -192.5t-173 -74.5zM347 35q86 0 143 59t57 159v2q0 98 -58.5 159t-141.5 61t-145.5 -62t-62.5 -157v-2q0 -95 62.5 -157t145.5 -62z" />
    <glyph glyph-name="c" unicode="c" horiz-adv-x="571" 
d="M318 -12q-109 0 -184.5 78.5t-75.5 186.5v2q0 109 75.5 188t184.5 79q116 0 204 -94l-35 -36q-82 84 -170 84q-87 0 -146.5 -63.5t-59.5 -155.5v-2q0 -93 61.5 -157t148.5 -64q95 0 171 85l34 -30q-89 -101 -208 -101z" />
    <glyph glyph-name="d" unicode="d" horiz-adv-x="660" 
d="M308 -12q-98 0 -173 73t-75 192v2q0 118 75 192.5t173 74.5q128 0 210 -122v330h49v-730h-49v114q-85 -126 -210 -126zM313 35q83 0 145.5 62t62.5 157v2q0 95 -62.5 157t-145.5 62q-86 0 -143 -59t-57 -159v-2q0 -98 58.5 -159t141.5 -61z" />
    <glyph glyph-name="e" unicode="e" horiz-adv-x="584" 
d="M308 -12q-103 0 -176.5 74.5t-73.5 191.5v2q0 111 69.5 188.5t172.5 77.5q105 0 169.5 -76t64.5 -191q0 -12 -1 -20h-423q6 -92 64 -146.5t136 -54.5q99 0 175 80l34 -30q-89 -96 -211 -96zM110 279h371q-7 84 -53.5 141t-129.5 57q-75 0 -128.5 -56.5t-59.5 -141.5z" />
    <glyph glyph-name="f" unicode="f" horiz-adv-x="362" 
d="M123 0v465h-74v45h74v50q0 88 45 133q40 40 107 40q41 0 76 -12v-46q-42 13 -76 13q-103 0 -103 -129v-49h178v-45h-178v-465h-49z" />
    <glyph glyph-name="g" unicode="g" horiz-adv-x="660" 
d="M317 -162q-129 0 -234 78l29 40q93 -72 206 -72q90 0 145 51.5t55 146.5v74q-84 -118 -213 -118q-97 0 -171 67.5t-74 172.5v2q0 107 74 174.5t171 67.5q131 0 213 -114v102h49v-431q0 -108 -65 -173q-68 -68 -185 -68zM310 85q84 0 147.5 55t63.5 139v2
q0 85 -63.5 139.5t-147.5 54.5q-83 0 -140 -53t-57 -140v-2q0 -84 58 -139.5t139 -55.5z" />
    <glyph glyph-name="h" unicode="h" horiz-adv-x="613" 
d="M93 0v730h49v-315q62 107 184 107q95 0 149.5 -58t54.5 -152v-312h-49v303q0 80 -42.5 127t-119.5 47q-76 0 -126.5 -51t-50.5 -131v-295h-49z" />
    <glyph glyph-name="i" unicode="i" horiz-adv-x="249" 
d="M94 643v67h61v-67h-61zM100 0v510h49v-510h-49z" />
    <glyph glyph-name="j" unicode="j" horiz-adv-x="249" 
d="M94 643v67h61v-67h-61zM40 -163q-24 0 -41 4v43q12 -3 40 -3t44.5 18t16.5 53v558h49v-555q0 -59 -28.5 -88.5t-80.5 -29.5z" />
    <glyph glyph-name="k" unicode="k" horiz-adv-x="560" 
d="M93 0v730h49v-547l316 327h65l-223 -226l230 -284h-62l-202 249l-124 -125v-124h-49z" />
    <glyph glyph-name="l" unicode="l" horiz-adv-x="249" 
d="M100 0v730h49v-730h-49z" />
    <glyph glyph-name="m" unicode="m" horiz-adv-x="951" 
d="M93 0v510h49v-91q62 103 170 103q118 0 172 -110q64 110 184 110q90 0 143 -58t53 -155v-309h-49v303q0 83 -40 128.5t-111 45.5q-68 0 -114.5 -48.5t-46.5 -131.5v-297h-49v306q0 80 -40 125.5t-109 45.5t-116 -53t-47 -130v-294h-49z" />
    <glyph glyph-name="n" unicode="n" horiz-adv-x="613" 
d="M93 0v510h49v-95q62 107 184 107q95 0 149.5 -58t54.5 -152v-312h-49v303q0 80 -42.5 127t-119.5 47q-76 0 -126.5 -51t-50.5 -131v-295h-49z" />
    <glyph glyph-name="o" unicode="o" horiz-adv-x="640" 
d="M319 -12q-112 0 -186.5 78t-74.5 187v2q0 109 75.5 188t187.5 79t186.5 -78t74.5 -187v-2q0 -109 -75.5 -188t-187.5 -79zM321 34q90 0 149 64t59 155v2q0 93 -61 157t-149 64q-90 0 -149 -64t-59 -155v-2q0 -93 61 -157t149 -64z" />
    <glyph glyph-name="p" unicode="p" horiz-adv-x="660" 
d="M93 -160v670h49v-114q81 126 210 126q98 0 173 -73t75 -192v-2q0 -118 -75 -192.5t-173 -74.5q-128 0 -210 122v-270h-49zM347 35q86 0 143 59t57 159v2q0 98 -58.5 159t-141.5 61t-145.5 -62t-62.5 -157v-2q0 -95 62.5 -157t145.5 -62z" />
    <glyph glyph-name="q" unicode="q" horiz-adv-x="660" 
d="M518 -160v274q-85 -126 -210 -126q-98 0 -173 73t-75 192v2q0 118 75 192.5t173 74.5q128 0 210 -122v110h49v-670h-49zM313 35q83 0 145.5 62t62.5 157v2q0 95 -62.5 157t-145.5 62q-86 0 -143 -59t-57 -159v-2q0 -98 58.5 -159t141.5 -61z" />
    <glyph glyph-name="r" unicode="r" horiz-adv-x="400" 
d="M93 0v510h49v-145q32 71 91.5 113t134.5 40v-54h-5q-93 0 -157 -68t-64 -187v-209h-49z" />
    <glyph glyph-name="s" unicode="s" horiz-adv-x="497" 
d="M258 -10q-116 0 -209 74l29 39q87 -67 183 -67q53 0 88 26.5t35 70.5v2q0 22 -10 38t-32 28t-41 19t-52 17q-36 10 -51.5 15t-45 18t-42.5 25.5t-24.5 33.5t-11.5 48v2q0 62 47 101.5t121 39.5q99 0 181 -56l-26 -41q-77 51 -157 51q-52 0 -84 -25t-32 -64v-2
q0 -20 10.5 -35.5t35 -27.5t42 -18.5t54.5 -17.5q39 -11 62.5 -20.5t51 -26t41 -40.5t13.5 -56v-2q0 -67 -50 -108t-126 -41z" />
    <glyph glyph-name="t" unicode="t" horiz-adv-x="400" 
d="M263 -9q-64 0 -103.5 35t-39.5 105v334h-74v45h74v163h49v-163h179v-45h-179v-329q0 -99 102 -99q35 0 75 18v-46q-40 -18 -83 -18z" />
    <glyph glyph-name="u" unicode="u" horiz-adv-x="613" 
d="M287 -12q-95 0 -149.5 58t-54.5 152v312h49v-303q0 -80 42.5 -127t119.5 -47q76 0 126.5 51t50.5 131v295h49v-510h-49v95q-62 -107 -184 -107z" />
    <glyph glyph-name="v" unicode="v" horiz-adv-x="582" 
d="M270 -4l-229 514h57l193 -455l195 455h55l-229 -514h-42z" />
    <glyph glyph-name="w" unicode="w" horiz-adv-x="861" 
d="M236 -4l-187 514h55l154 -448l154 450h39l154 -450l154 448h53l-187 -514h-42l-152 437l-153 -437h-42z" />
    <glyph glyph-name="x" unicode="x" horiz-adv-x="570" 
d="M464 0l-180 227l-180 -227h-59l208 260l-200 250h61l171 -216l173 216h59l-201 -249l209 -261h-61z" />
    <glyph glyph-name="y" unicode="y" horiz-adv-x="588" 
d="M155 -163q-50 0 -101 22l17 43q39 -19 87 -19q41 0 69.5 27t56.5 93l-245 507h57l212 -456l184 456h54l-221 -528q-33 -78 -73.5 -111.5t-96.5 -33.5z" />
    <glyph glyph-name="z" unicode="z" horiz-adv-x="554" 
d="M58 0v28l368 438h-354v44h427v-28l-368 -438h368v-44h-441z" />
    <glyph glyph-name="braceleft" unicode="{" horiz-adv-x="480" 
d="M423 -109l-7 -32q-66 13 -108.5 31t-64.5 44.5t-30 55.5t-8 72v79q0 62 -26.5 94.5t-93.5 32.5h-26v38h26q67 0 93.5 32.5t26.5 94.5v79q0 43 8 72t30 55.5t64.5 44.5t108.5 31l7 -32q-58 -15 -91 -29.5t-50.5 -36.5t-22.5 -45.5t-5 -65.5v-75q0 -63 -26.5 -96.5
t-77.5 -47.5q54 -17 79 -48.5t25 -95.5v-75q0 -42 5 -65.5t22.5 -45.5t50.5 -36.5t91 -29.5z" />
    <glyph glyph-name="bar" unicode="|" horiz-adv-x="286" 
d="M121 -128v926h44v-926h-44z" />
    <glyph glyph-name="braceright" unicode="}" horiz-adv-x="480" 
d="M64 -141l-7 32q58 15 91 29.5t50.5 36.5t22.5 45.5t5 65.5v75q0 63 26.5 96.5t77.5 47.5q-54 17 -79 48.5t-25 95.5v75q0 42 -5 65.5t-22.5 45.5t-50.5 36.5t-91 29.5l7 32q66 -13 108.5 -31t64.5 -44.5t30 -55.5t8 -72v-79q0 -62 26.5 -94.5t93.5 -32.5h26v-38h-26
q-67 0 -93.5 -32.5t-26.5 -94.5v-79q0 -43 -8 -72t-30 -55.5t-64.5 -44.5t-108.5 -31z" />
    <glyph glyph-name="asciitilde" unicode="~" horiz-adv-x="460" 
d="M116 242l-34 9q14 52 33.5 72.5t50.5 20.5q19 0 65 -20.5t63 -20.5q18 0 28.5 10.5t21.5 39.5l34 -9q-14 -52 -33.5 -72.5t-50.5 -20.5q-19 0 -65 20.5t-63 20.5q-18 0 -28.5 -10.5t-21.5 -39.5z" />
    <glyph glyph-name="uni00A0" unicode="&#xa0;" horiz-adv-x="300" 
 />
    <glyph glyph-name="exclamdown" unicode="&#xa1;" horiz-adv-x="252" 
d="M93 615v85h66v-85h-66zM97 0v70l15 447h28l15 -447v-70h-58z" />
    <glyph glyph-name="cent" unicode="&#xa2;" horiz-adv-x="581" 
d="M264 -6h-50l21 109q-76 26 -124.5 95.5t-48.5 154.5v2q0 109 75.5 188t184.5 79h14l17 84h50l-18 -91q76 -19 141 -87l-35 -36q-63 63 -117 77l-85 -432q17 -3 36 -3q95 0 171 85l34 -30q-89 -101 -208 -101q-21 0 -39 3zM115 357v-2q0 -70 36 -125.5t95 -79.5l84 426h-9
q-87 0 -146.5 -63.5t-59.5 -155.5z" />
    <glyph glyph-name="sterling" unicode="&#xa3;" horiz-adv-x="644" 
d="M70 0v25l86 20v260h-86v48h86v118q0 116 65 181q58 58 150 58q127 0 210 -106l-40 -31q-34 43 -73.5 66.5t-97.5 23.5q-70 0 -113 -43q-50 -50 -50 -148v-119h298v-48h-298v-258h374v-47h-511z" />
    <glyph glyph-name="yen" unicode="&#xa5;" horiz-adv-x="686" 
d="M105 268v45h195l-268 387h63l249 -373l250 373h60l-269 -387h196v-45h-213v-98h213v-45h-213v-125h-50v125h-213v45h213v98h-213z" />
    <glyph glyph-name="section" unicode="&#xa7;" horiz-adv-x="632" 
d="M329 -10q-132 0 -227 95l38 36q82 -82 194 -82q57 0 86.5 21.5t29.5 55.5v2q0 32 -42 57.5t-141 48.5q-110 26 -156 58t-46 81v2q0 45 39.5 75t108.5 38q-86 38 -86 105v2q0 57 48 91t128 34q132 0 227 -95l-38 -36q-82 82 -194 82q-57 0 -86.5 -21.5t-29.5 -55.5v-2
q0 -33 41.5 -57.5t141.5 -48.5q112 -28 157 -59t45 -80v-2q0 -45 -39.5 -75t-108.5 -38q86 -38 86 -105v-2q0 -57 -48 -91t-128 -34zM386 253q57 0 93 23.5t36 54.5v2q0 30 -34 52.5t-123 45.5q-64 16 -112 16q-57 0 -93 -23.5t-36 -54.5v-2q0 -30 34 -52.5t123 -45.5
q63 -16 112 -16z" />
    <glyph glyph-name="dieresis" unicode="&#xa8;" 
d="M297 595v80h69v-80h-69zM134 595v80h69v-80h-69z" />
    <glyph glyph-name="copyright" unicode="&#xa9;" horiz-adv-x="830" 
d="M414 -12q-151 0 -256 105.5t-105 254.5v2q0 148 105.5 255t257.5 107q151 0 256 -105.5t105 -254.5v-2q0 -148 -105.5 -255t-257.5 -107zM414 16q141 0 237 98t96 236v2q0 139 -95 235.5t-236 96.5t-237 -98t-96 -236v-2q0 -139 95 -235.5t236 -96.5zM419 166
q-77 0 -129.5 55t-52.5 133v2q0 77 53 133t130 56t141 -61l-30 -31q-54 52 -112 52q-59 0 -98.5 -43.5t-39.5 -104.5v-2q0 -61 40.5 -105t98.5 -44q60 0 115 52l28 -28q-64 -64 -144 -64z" />
    <glyph glyph-name="ordfeminine" unicode="&#xaa;" horiz-adv-x="390" 
d="M174 411q-43 0 -76 24t-33 66v2q0 44 34 68.5t90 24.5q47 0 83 -11v5q0 38 -22 57.5t-61 19.5q-38 0 -88 -24l-13 34q57 26 103 26q58 0 90 -32q28 -28 28 -80v-174h-37v41q-37 -47 -98 -47zM176 447q39 0 67.5 21.5t28.5 55.5v27q-36 11 -85 11q-38 0 -60 -16t-22 -41
v-2q0 -26 20.5 -41t50.5 -15zM62 293v40h252v-40h-252z" />
    <glyph glyph-name="guillemotleft" unicode="&#xab;" horiz-adv-x="515" 
d="M415 42l-160 209v8l160 209l37 -24l-137 -188l137 -190zM211 42l-160 209v8l160 209l37 -24l-137 -188l137 -190z" />
    <glyph glyph-name="registered" unicode="&#xae;" horiz-adv-x="416" 
d="M208 360q-73 0 -123.5 51t-50.5 123v1q0 72 51 123.5t123 51.5q73 0 123.5 -51t50.5 -123v-1q0 -72 -51 -123.5t-123 -51.5zM208 379q65 0 109.5 46t44.5 110v1q0 64 -44.5 109.5t-109.5 45.5t-109.5 -46t-44.5 -110v-1q0 -64 44.5 -109.5t109.5 -45.5zM143 451v175h78
q28 0 46.5 -14.5t18.5 -39.5q0 -40 -43 -53l49 -68h-35l-44 64h-42v-64h-28zM171 538h47q39 0 39 32q0 31 -39 31h-47v-63z" />
    <glyph glyph-name="macron" unicode="&#xaf;" 
d="M103 621v47h294v-47h-294z" />
    <glyph glyph-name="degree" unicode="&#xb0;" horiz-adv-x="450" 
d="M225 412q-59 0 -105 44t-46 102v2q0 58 46 102t105 44t105 -44t46 -102v-2q0 -58 -46 -102t-105 -44zM225 456q43 0 72 30.5t29 71.5v2q0 41 -29 71.5t-72 30.5t-72 -30.5t-29 -71.5v-2q0 -41 29 -71.5t72 -30.5z" />
    <glyph glyph-name="plusminus" unicode="&#xb1;" horiz-adv-x="620" 
d="M542 358h-207v-203h-50v203h-207v48h207v203h50v-203h207v-48zM542 0h-464v48h464v-48z" />
    <glyph glyph-name="acute" unicode="&#xb4;" 
d="M194 595l88 133l61 -30l-107 -103h-42z" />
    <glyph glyph-name="paragraph" unicode="&#xb6;" horiz-adv-x="480" 
d="M333 0v277h-6q-120 0 -197 56t-77 155v2q0 97 71.5 153.5t187.5 56.5h74v-700h-53z" />
    <glyph glyph-name="periodcentered" unicode="&#xb7;" horiz-adv-x="230" 
d="M82 255v85h66v-85h-66z" />
    <glyph glyph-name="cedilla" unicode="&#xb8;" 
d="M217 -148l-55 26l90 132h43z" />
    <glyph glyph-name="ordmasculine" unicode="&#xba;" horiz-adv-x="390" 
d="M194 411q-62 0 -102.5 42.5t-40.5 102.5v2q0 60 41.5 103.5t103.5 43.5t102.5 -42.5t40.5 -102.5v-2q0 -60 -41.5 -103.5t-103.5 -43.5zM51 293v40h288v-40h-288zM196 450q44 0 72 30.5t28 75.5v2q0 45 -29.5 76.5t-72.5 31.5q-44 0 -72 -30.5t-28 -75.5v-2
q0 -45 29.5 -76.5t72.5 -31.5z" />
    <glyph glyph-name="guillemotright" unicode="&#xbb;" horiz-adv-x="515" 
d="M304 42l-37 24l137 188l-137 190l37 24l160 -209v-8zM100 42l-37 24l137 188l-137 190l37 24l160 -209v-8z" />
    <glyph glyph-name="questiondown" unicode="&#xbf;" horiz-adv-x="534" 
d="M256 615v85h66v-85h-66zM269 -9q-97 0 -157 56.5t-60 138.5v2q0 89 59.5 141.5t152.5 62.5l9 125h32l13 -162l-5 -5q-99 -2 -153.5 -44.5t-54.5 -115.5v-2q0 -64 45.5 -107.5t120.5 -43.5q109 0 193 103l36 -30q-92 -119 -231 -119z" />
    <glyph glyph-name="Agrave" unicode="&#xc0;" horiz-adv-x="790" 
d="M44 0l326 705h50l326 -705h-57l-89 196h-413l-89 -196h-54zM209 243h369l-184 405zM394 774l-107 103l61 30l88 -133h-42z" />
    <glyph glyph-name="Aacute" unicode="&#xc1;" horiz-adv-x="790" 
d="M44 0l326 705h50l326 -705h-57l-89 196h-413l-89 -196h-54zM209 243h369l-184 405zM352 775l88 133l61 -30l-107 -103h-42z" />
    <glyph glyph-name="Acircumflex" unicode="&#xc2;" horiz-adv-x="790" 
d="M44 0l326 705h50l326 -705h-57l-89 196h-413l-89 -196h-54zM209 243h369l-184 405zM275 774l100 122h40l100 -122h-47l-74 68l-74 -68h-45z" />
    <glyph glyph-name="Atilde" unicode="&#xc3;" horiz-adv-x="790" 
d="M44 0l326 705h50l326 -705h-57l-89 196h-413l-89 -196h-54zM209 243h369l-184 405zM285 766l-37 10q14 48 33 68t49 20q20 0 65.5 -19t60.5 -19q18 0 28.5 9.5t21.5 36.5l37 -10q-14 -47 -33 -67t-49 -20q-20 0 -65.5 19t-60.5 19q-18 0 -28.5 -10t-21.5 -37z" />
    <glyph glyph-name="Adieresis" unicode="&#xc4;" horiz-adv-x="790" 
d="M44 0l326 705h50l326 -705h-57l-89 196h-413l-89 -196h-54zM209 243h369l-184 405zM447 775v76h73v-76h-73zM271 775v76h74v-76h-74z" />
    <glyph glyph-name="Aring" unicode="&#xc5;" horiz-adv-x="790" 
d="M289 753q0 41 30.5 68t75.5 27t75.5 -27t30.5 -68q0 -61 -63 -87l308 -666h-57l-89 196h-413l-89 -196h-54l307 666q-28 11 -45 34.5t-17 52.5zM209 243h369l-184 405zM327 753q0 -27 19.5 -45t48.5 -18t48.5 18t19.5 45t-19.5 45t-48.5 18t-48.5 -18t-19.5 -45z" />
    <glyph glyph-name="AE" unicode="&#xc6;" horiz-adv-x="1045" 
d="M20 0l424 700h533v-48h-431v-275h386v-48h-386v-281h436v-48h-488v196h-300l-118 -196h-56zM222 243h272v410h-26z" />
    <glyph glyph-name="Ccedilla" unicode="&#xc7;" horiz-adv-x="738" 
d="M367 -148l-55 26l76 112q-137 12 -226 114t-89 244v2q0 150 100 256t250 106q87 0 149.5 -28.5t122.5 -83.5l-37 -38q-106 103 -236 103q-126 0 -210.5 -90.5t-84.5 -222.5v-2q0 -132 85.5 -223.5t210.5 -91.5q73 0 129 26.5t112 82.5l35 -34q-59 -58 -121 -88.5
t-144 -33.5z" />
    <glyph glyph-name="Egrave" unicode="&#xc8;" horiz-adv-x="670" 
d="M104 0v700h498v-48h-446v-275h401v-48h-401v-281h451v-48h-503zM361 764l-107 103l61 30l88 -133h-42z" />
    <glyph glyph-name="Eacute" unicode="&#xc9;" horiz-adv-x="670" 
d="M104 0v700h498v-48h-446v-275h401v-48h-401v-281h451v-48h-503zM299 765l88 133l61 -30l-107 -103h-42z" />
    <glyph glyph-name="Ecircumflex" unicode="&#xca;" horiz-adv-x="670" 
d="M104 0v700h498v-48h-446v-275h401v-48h-401v-281h451v-48h-503zM234 765l100 122h40l100 -122h-47l-74 68l-74 -68h-45z" />
    <glyph glyph-name="Edieresis" unicode="&#xcb;" horiz-adv-x="670" 
d="M104 0v700h498v-48h-446v-275h401v-48h-401v-281h451v-48h-503zM407 765v76h73v-76h-73zM231 765v76h74v-76h-74z" />
    <glyph glyph-name="Igrave" unicode="&#xcc;" horiz-adv-x="274" 
d="M111 0v700h52v-700h-52zM134 765l-107 103l61 30l88 -133h-42z" />
    <glyph glyph-name="Iacute" unicode="&#xcd;" horiz-adv-x="274" 
d="M111 0v700h52v-700h-52zM95 765l88 133l61 -30l-107 -103h-42z" />
    <glyph glyph-name="Icircumflex" unicode="&#xce;" horiz-adv-x="274" 
d="M111 0v700h52v-700h-52zM11 765l103 107h46l103 -107h-54l-73 61l-73 -61h-52z" />
    <glyph glyph-name="Idieresis" unicode="&#xcf;" horiz-adv-x="274" 
d="M111 0v700h52v-700h-52zM189 765v76h73v-76h-73zM13 765v76h74v-76h-74z" />
    <glyph glyph-name="Eth" unicode="&#xd0;" horiz-adv-x="812" 
d="M134 0v328h-75v48h75v324h233q163 0 267.5 -99.5t104.5 -248.5v-2q0 -150 -104.5 -250t-267.5 -100h-233zM186 48h181q143 0 230.5 86t87.5 214v2q0 127 -87.5 214.5t-230.5 87.5h-181v-276h232v-48h-232v-280z" />
    <glyph glyph-name="Ntilde" unicode="&#xd1;" horiz-adv-x="790" 
d="M104 0v700h49l483 -609v609h50v-700h-39l-493 622v-622h-50zM287 751l-37 10q14 48 33 68t49 20q20 0 65.5 -19t60.5 -19q18 0 28.5 9.5t21.5 36.5l37 -10q-14 -47 -33 -67t-49 -20q-20 0 -65.5 19t-60.5 19q-18 0 -28.5 -10t-21.5 -37z" />
    <glyph glyph-name="Ograve" unicode="&#xd2;" horiz-adv-x="850" 
d="M424 -12q-155 0 -253 106t-98 254v2q0 149 99 255.5t254 106.5t253 -106t98 -254v-2q0 -149 -99 -255.5t-254 -106.5zM426 35q128 0 212.5 91t84.5 222v2q0 131 -85.5 223t-213.5 92t-212.5 -91t-84.5 -222v-2q0 -131 85.5 -223t213.5 -92zM445 774l-107 103l61 30
l88 -133h-42z" />
    <glyph glyph-name="Oacute" unicode="&#xd3;" horiz-adv-x="850" 
d="M424 -12q-155 0 -253 106t-98 254v2q0 149 99 255.5t254 106.5t253 -106t98 -254v-2q0 -149 -99 -255.5t-254 -106.5zM426 35q128 0 212.5 91t84.5 222v2q0 131 -85.5 223t-213.5 92t-212.5 -91t-84.5 -222v-2q0 -131 85.5 -223t213.5 -92zM362 775l88 133l61 -30
l-107 -103h-42z" />
    <glyph glyph-name="Ocircumflex" unicode="&#xd4;" horiz-adv-x="850" 
d="M424 -12q-155 0 -253 106t-98 254v2q0 149 99 255.5t254 106.5t253 -106t98 -254v-2q0 -149 -99 -255.5t-254 -106.5zM426 35q128 0 212.5 91t84.5 222v2q0 131 -85.5 223t-213.5 92t-212.5 -91t-84.5 -222v-2q0 -131 85.5 -223t213.5 -92zM305 774l100 122h40l100 -122
h-47l-74 68l-74 -68h-45z" />
    <glyph glyph-name="Otilde" unicode="&#xd5;" horiz-adv-x="850" 
d="M424 -12q-155 0 -253 106t-98 254v2q0 149 99 255.5t254 106.5t253 -106t98 -254v-2q0 -149 -99 -255.5t-254 -106.5zM426 35q128 0 212.5 91t84.5 222v2q0 131 -85.5 223t-213.5 92t-212.5 -91t-84.5 -222v-2q0 -131 85.5 -223t213.5 -92zM317 766l-37 10q14 48 33 68
t49 20q20 0 65.5 -19t60.5 -19q18 0 28.5 9.5t21.5 36.5l37 -10q-14 -47 -33 -67t-49 -20q-20 0 -65.5 19t-60.5 19q-18 0 -28.5 -10t-21.5 -37z" />
    <glyph glyph-name="Odieresis" unicode="&#xd6;" horiz-adv-x="850" 
d="M424 -12q-155 0 -253 106t-98 254v2q0 149 99 255.5t254 106.5t253 -106t98 -254v-2q0 -149 -99 -255.5t-254 -106.5zM426 35q128 0 212.5 91t84.5 222v2q0 131 -85.5 223t-213.5 92t-212.5 -91t-84.5 -222v-2q0 -131 85.5 -223t213.5 -92zM477 775v76h73v-76h-73z
M301 775v76h74v-76h-74z" />
    <glyph glyph-name="multiply" unicode="&#xd7;" horiz-adv-x="620" 
d="M490 136l-181 183l-181 -183l-34 34l183 181l-183 181l36 36l181 -183l181 183l34 -34l-183 -181l183 -181z" />
    <glyph glyph-name="Oslash" unicode="&#xd8;" horiz-adv-x="850" 
d="M725 705h60l-100 -107q92 -100 92 -246v-2q0 -149 -99 -255.5t-254 -106.5q-132 0 -228 82l-71 -75h-60l99 106q-91 103 -91 247v2q0 149 99 255.5t254 106.5q130 0 228 -83zM426 34q129 0 213.5 91t84.5 223q0 122 -75 213l-420 -452q81 -75 197 -75zM126 352
q0 -125 74 -213l421 452q-83 75 -197 75q-129 0 -213.5 -91t-84.5 -223z" />
    <glyph glyph-name="Ugrave" unicode="&#xd9;" horiz-adv-x="760" 
d="M380 -11q-129 0 -208 79t-79 223v409h52v-404q0 -125 62.5 -192.5t174.5 -67.5q108 0 170.5 65.5t62.5 189.5v409h52v-403q0 -147 -78 -227.5t-209 -80.5zM401 760l-107 103l61 30l88 -133h-42z" />
    <glyph glyph-name="Uacute" unicode="&#xda;" horiz-adv-x="760" 
d="M380 -11q-129 0 -208 79t-79 223v409h52v-404q0 -125 62.5 -192.5t174.5 -67.5q108 0 170.5 65.5t62.5 189.5v409h52v-403q0 -147 -78 -227.5t-209 -80.5zM322 761l88 133l61 -30l-107 -103h-42z" />
    <glyph glyph-name="Ucircumflex" unicode="&#xdb;" horiz-adv-x="760" 
d="M380 -11q-129 0 -208 79t-79 223v409h52v-404q0 -125 62.5 -192.5t174.5 -67.5q108 0 170.5 65.5t62.5 189.5v409h52v-403q0 -147 -78 -227.5t-209 -80.5zM254 760l103 107h46l103 -107h-54l-73 61l-73 -61h-52z" />
    <glyph glyph-name="Udieresis" unicode="&#xdc;" horiz-adv-x="760" 
d="M380 -11q-129 0 -208 79t-79 223v409h52v-404q0 -125 62.5 -192.5t174.5 -67.5q108 0 170.5 65.5t62.5 189.5v409h52v-403q0 -147 -78 -227.5t-209 -80.5zM432 760v76h73v-76h-73zM256 760v76h74v-76h-74z" />
    <glyph glyph-name="Yacute" unicode="&#xdd;" horiz-adv-x="716" 
d="M332 0v277l-300 423h65l262 -376l263 376h62l-300 -422v-278h-52zM303 760l88 133l61 -30l-107 -103h-42z" />
    <glyph glyph-name="Thorn" unicode="&#xde;" horiz-adv-x="673" 
d="M104 0v700h52v-127h202q117 0 188.5 -57t71.5 -157v-2q0 -106 -78.5 -165t-194.5 -59h-189v-133h-52zM156 181h192q98 0 158 47.5t60 125.5v2q0 81 -58 125t-154 44h-198v-344z" />
    <glyph glyph-name="germandbls" unicode="&#xdf;" horiz-adv-x="620" 
d="M289 -2v43q102 2 158.5 39t56.5 107v2q0 129 -215 153v41q78 23 124 67t46 108v2q0 57 -41.5 94t-107.5 37q-74 0 -121 -52t-47 -139v-500h-49v500q0 105 60 171t160 66q89 0 144 -50t55 -125v-2q0 -67 -46 -117.5t-111 -72.5q88 -16 145 -60t57 -119v-2
q0 -90 -72 -140.5t-196 -50.5z" />
    <glyph glyph-name="agrave" unicode="&#xe0;" horiz-adv-x="574" 
d="M248 -12q-78 0 -137.5 42.5t-59.5 117.5v2q0 79 61 122.5t162 43.5q86 0 169 -22v22q0 77 -44 116.5t-124 39.5t-160 -41l-18 43q91 44 181 44q105 0 161 -56q52 -52 52 -144v-318h-48v85q-71 -97 -195 -97zM251 34q80 0 136.5 44.5t56.5 112.5v58q-90 23 -173 23
q-80 0 -124 -32t-44 -87v-2q0 -53 43.5 -85t104.5 -32zM308 595l-107 103l61 30l88 -133h-42z" />
    <glyph glyph-name="aacute" unicode="&#xe1;" horiz-adv-x="574" 
d="M248 -12q-78 0 -137.5 42.5t-59.5 117.5v2q0 79 61 122.5t162 43.5q86 0 169 -22v22q0 77 -44 116.5t-124 39.5t-160 -41l-18 43q91 44 181 44q105 0 161 -56q52 -52 52 -144v-318h-48v85q-71 -97 -195 -97zM251 34q80 0 136.5 44.5t56.5 112.5v58q-90 23 -173 23
q-80 0 -124 -32t-44 -87v-2q0 -53 43.5 -85t104.5 -32zM266 595l88 133l61 -30l-107 -103h-42z" />
    <glyph glyph-name="acircumflex" unicode="&#xe2;" horiz-adv-x="574" 
d="M248 -12q-78 0 -137.5 42.5t-59.5 117.5v2q0 79 61 122.5t162 43.5q86 0 169 -22v22q0 77 -44 116.5t-124 39.5t-160 -41l-18 43q91 44 181 44q105 0 161 -56q52 -52 52 -144v-318h-48v85q-71 -97 -195 -97zM251 34q80 0 136.5 44.5t56.5 112.5v58q-90 23 -173 23
q-80 0 -124 -32t-44 -87v-2q0 -53 43.5 -85t104.5 -32zM182 595l100 122h40l100 -122h-47l-74 68l-74 -68h-45z" />
    <glyph glyph-name="atilde" unicode="&#xe3;" horiz-adv-x="574" 
d="M248 -12q-78 0 -137.5 42.5t-59.5 117.5v2q0 79 61 122.5t162 43.5q86 0 169 -22v22q0 77 -44 116.5t-124 39.5t-160 -41l-18 43q91 44 181 44q105 0 161 -56q52 -52 52 -144v-318h-48v85q-71 -97 -195 -97zM251 34q80 0 136.5 44.5t56.5 112.5v58q-90 23 -173 23
q-80 0 -124 -32t-44 -87v-2q0 -53 43.5 -85t104.5 -32zM176 586l-34 9q14 52 33.5 72.5t50.5 20.5q19 0 65 -20.5t63 -20.5q18 0 28.5 10.5t21.5 39.5l34 -9q-14 -52 -33.5 -72.5t-50.5 -20.5q-19 0 -65 20.5t-63 20.5q-18 0 -28.5 -10.5t-21.5 -39.5z" />
    <glyph glyph-name="adieresis" unicode="&#xe4;" horiz-adv-x="574" 
d="M248 -12q-78 0 -137.5 42.5t-59.5 117.5v2q0 79 61 122.5t162 43.5q86 0 169 -22v22q0 77 -44 116.5t-124 39.5t-160 -41l-18 43q91 44 181 44q105 0 161 -56q52 -52 52 -144v-318h-48v85q-71 -97 -195 -97zM251 34q80 0 136.5 44.5t56.5 112.5v58q-90 23 -173 23
q-80 0 -124 -32t-44 -87v-2q0 -53 43.5 -85t104.5 -32zM334 595v80h69v-80h-69zM171 595v80h69v-80h-69z" />
    <glyph glyph-name="aring" unicode="&#xe5;" horiz-adv-x="574" 
d="M248 -12q-78 0 -137.5 42.5t-59.5 117.5v2q0 79 61 122.5t162 43.5q86 0 169 -22v22q0 77 -44 116.5t-124 39.5t-160 -41l-18 43q91 44 181 44q105 0 161 -56q52 -52 52 -144v-318h-48v85q-71 -97 -195 -97zM251 34q80 0 136.5 44.5t56.5 112.5v58q-90 23 -173 23
q-80 0 -124 -32t-44 -87v-2q0 -53 43.5 -85t104.5 -32zM183 693q0 41 30.5 70.5t73.5 29.5t73.5 -29.5t30.5 -70.5t-30.5 -70.5t-73.5 -29.5t-73.5 29.5t-30.5 70.5zM217 693q0 -29 20.5 -49.5t49.5 -20.5t49.5 20.5t20.5 49.5t-20.5 49.5t-49.5 20.5t-49.5 -20.5
t-20.5 -49.5z" />
    <glyph glyph-name="ae" unicode="&#xe6;" horiz-adv-x="954" 
d="M243 -12q-76 0 -134 42.5t-58 117.5v2q0 79 60 122.5t158 43.5q77 0 160 -22v22q0 77 -41.5 116.5t-119.5 39.5q-73 0 -153 -41l-18 43q93 44 174 44q158 0 193 -128q31 61 85 96.5t121 35.5q105 0 169.5 -76t64.5 -191q0 -12 -1 -20h-423q6 -92 64 -146.5t136 -54.5
q99 0 175 80l34 -30q-89 -96 -211 -96q-63 0 -117.5 29.5t-88.5 82.5q-97 -112 -229 -112zM480 279h371q-7 84 -53.5 141t-129.5 57q-75 0 -128.5 -56.5t-59.5 -141.5zM246 34q118 0 204 107q-21 52 -22 109q-86 22 -162 22q-78 0 -120.5 -32t-42.5 -87v-2q0 -54 41.5 -85.5
t101.5 -31.5z" />
    <glyph glyph-name="ccedilla" unicode="&#xe7;" horiz-adv-x="571" 
d="M263 -148l-55 26l76 112q-97 12 -161.5 88t-64.5 175v2q0 109 75.5 188t184.5 79q116 0 204 -94l-35 -36q-82 84 -170 84q-87 0 -146.5 -63.5t-59.5 -155.5v-2q0 -93 61.5 -157t148.5 -64q95 0 171 85l34 -30q-86 -96 -196 -101z" />
    <glyph glyph-name="egrave" unicode="&#xe8;" horiz-adv-x="584" 
d="M308 -12q-103 0 -176.5 74.5t-73.5 191.5v2q0 111 69.5 188.5t172.5 77.5q105 0 169.5 -76t64.5 -191q0 -12 -1 -20h-423q6 -92 64 -146.5t136 -54.5q99 0 175 80l34 -30q-89 -96 -211 -96zM110 279h371q-7 84 -53.5 141t-129.5 57q-75 0 -128.5 -56.5t-59.5 -141.5z
M320 595l-107 103l61 30l88 -133h-42z" />
    <glyph glyph-name="eacute" unicode="&#xe9;" horiz-adv-x="584" 
d="M308 -12q-103 0 -176.5 74.5t-73.5 191.5v2q0 111 69.5 188.5t172.5 77.5q105 0 169.5 -76t64.5 -191q0 -12 -1 -20h-423q6 -92 64 -146.5t136 -54.5q99 0 175 80l34 -30q-89 -96 -211 -96zM110 279h371q-7 84 -53.5 141t-129.5 57q-75 0 -128.5 -56.5t-59.5 -141.5z
M253 595l88 133l61 -30l-107 -103h-42z" />
    <glyph glyph-name="ecircumflex" unicode="&#xea;" horiz-adv-x="584" 
d="M308 -12q-103 0 -176.5 74.5t-73.5 191.5v2q0 111 69.5 188.5t172.5 77.5q105 0 169.5 -76t64.5 -191q0 -12 -1 -20h-423q6 -92 64 -146.5t136 -54.5q99 0 175 80l34 -30q-89 -96 -211 -96zM110 279h371q-7 84 -53.5 141t-129.5 57q-75 0 -128.5 -56.5t-59.5 -141.5z
M180 595l100 122h40l100 -122h-47l-74 68l-74 -68h-45z" />
    <glyph glyph-name="edieresis" unicode="&#xeb;" horiz-adv-x="584" 
d="M308 -12q-103 0 -176.5 74.5t-73.5 191.5v2q0 111 69.5 188.5t172.5 77.5q105 0 169.5 -76t64.5 -191q0 -12 -1 -20h-423q6 -92 64 -146.5t136 -54.5q99 0 175 80l34 -30q-89 -96 -211 -96zM110 279h371q-7 84 -53.5 141t-129.5 57q-75 0 -128.5 -56.5t-59.5 -141.5z
M347 595v80h69v-80h-69zM184 595v80h69v-80h-69z" />
    <glyph glyph-name="igrave" unicode="&#xec;" horiz-adv-x="249" 
d="M100 0v510h49v-510h-49zM125 595l-107 103l61 30l88 -133h-42z" />
    <glyph glyph-name="iacute" unicode="&#xed;" horiz-adv-x="249" 
d="M100 0v510h49v-510h-49zM81 595l88 133l61 -30l-107 -103h-42z" />
    <glyph glyph-name="icircumflex" unicode="&#xee;" horiz-adv-x="249" 
d="M100 0v510h49v-510h-49zM4 595l100 122h40l100 -122h-47l-74 68l-74 -68h-45z" />
    <glyph glyph-name="idieresis" unicode="&#xef;" horiz-adv-x="249" 
d="M100 0v510h49v-510h-49zM171 595v80h69v-80h-69zM8 595v80h69v-80h-69z" />
    <glyph glyph-name="eth" unicode="&#xf0;" horiz-adv-x="639" 
d="M476 697l-88 -44q192 -187 192 -372v-2q0 -130 -74 -210.5t-191 -80.5q-108 0 -182.5 78t-74.5 189v2q0 111 73.5 182t172.5 71q114 0 200 -86q-40 96 -161 206l-110 -55l-22 36l99 49q-42 37 -86 70h77q25 -20 54 -47l99 50zM320 34q89 0 148 63t59 157v2
q0 91 -61 150.5t-156 59.5q-88 0 -143.5 -60t-55.5 -152v-2q0 -90 60.5 -154t148.5 -64z" />
    <glyph glyph-name="ntilde" unicode="&#xf1;" horiz-adv-x="613" 
d="M93 0v510h49v-95q62 107 184 107q95 0 149.5 -58t54.5 -152v-312h-49v303q0 80 -42.5 127t-119.5 47q-76 0 -126.5 -51t-50.5 -131v-295h-49zM200 586l-34 9q14 52 33.5 72.5t50.5 20.5q19 0 65 -20.5t63 -20.5q18 0 28.5 10.5t21.5 39.5l34 -9q-14 -52 -33.5 -72.5
t-50.5 -20.5q-19 0 -65 20.5t-63 20.5q-18 0 -28.5 -10.5t-21.5 -39.5z" />
    <glyph glyph-name="ograve" unicode="&#xf2;" horiz-adv-x="640" 
d="M319 -12q-112 0 -186.5 78t-74.5 187v2q0 109 75.5 188t187.5 79t186.5 -78t74.5 -187v-2q0 -109 -75.5 -188t-187.5 -79zM321 34q90 0 149 64t59 155v2q0 93 -61 157t-149 64q-90 0 -149 -64t-59 -155v-2q0 -93 61 -157t149 -64zM333 595l-107 103l61 30l88 -133h-42z
" />
    <glyph glyph-name="oacute" unicode="&#xf3;" horiz-adv-x="640" 
d="M319 -12q-112 0 -186.5 78t-74.5 187v2q0 109 75.5 188t187.5 79t186.5 -78t74.5 -187v-2q0 -109 -75.5 -188t-187.5 -79zM321 34q90 0 149 64t59 155v2q0 93 -61 157t-149 64q-90 0 -149 -64t-59 -155v-2q0 -93 61 -157t149 -64zM269 595l88 133l61 -30l-107 -103h-42z
" />
    <glyph glyph-name="ocircumflex" unicode="&#xf4;" horiz-adv-x="640" 
d="M319 -12q-112 0 -186.5 78t-74.5 187v2q0 109 75.5 188t187.5 79t186.5 -78t74.5 -187v-2q0 -109 -75.5 -188t-187.5 -79zM321 34q90 0 149 64t59 155v2q0 93 -61 157t-149 64q-90 0 -149 -64t-59 -155v-2q0 -93 61 -157t149 -64zM200 595l100 122h40l100 -122h-47
l-74 68l-74 -68h-45z" />
    <glyph glyph-name="otilde" unicode="&#xf5;" horiz-adv-x="640" 
d="M319 -12q-112 0 -186.5 78t-74.5 187v2q0 109 75.5 188t187.5 79t186.5 -78t74.5 -187v-2q0 -109 -75.5 -188t-187.5 -79zM321 34q90 0 149 64t59 155v2q0 93 -61 157t-149 64q-90 0 -149 -64t-59 -155v-2q0 -93 61 -157t149 -64zM209 586l-34 9q14 52 33.5 72.5
t50.5 20.5q19 0 65 -20.5t63 -20.5q18 0 28.5 10.5t21.5 39.5l34 -9q-14 -52 -33.5 -72.5t-50.5 -20.5q-19 0 -65 20.5t-63 20.5q-18 0 -28.5 -10.5t-21.5 -39.5z" />
    <glyph glyph-name="odieresis" unicode="&#xf6;" horiz-adv-x="640" 
d="M319 -12q-112 0 -186.5 78t-74.5 187v2q0 109 75.5 188t187.5 79t186.5 -78t74.5 -187v-2q0 -109 -75.5 -188t-187.5 -79zM321 34q90 0 149 64t59 155v2q0 93 -61 157t-149 64q-90 0 -149 -64t-59 -155v-2q0 -93 61 -157t149 -64zM367 595v80h69v-80h-69zM204 595v80h69
v-80h-69z" />
    <glyph glyph-name="divide" unicode="&#xf7;" horiz-adv-x="620" 
d="M270 500v89h80v-89h-80zM552 328h-484v48h484v-48zM270 115v89h80v-89h-80z" />
    <glyph glyph-name="oslash" unicode="&#xf8;" horiz-adv-x="640" 
d="M540 517h57l-80 -84q65 -75 65 -176v-2q0 -109 -75.5 -188t-187.5 -79q-96 0 -167 60l-52 -53h-57l79 82q-64 77 -64 176v2q0 109 75.5 188t187.5 79q98 0 167 -61zM321 33q90 0 149.5 64.5t59.5 155.5q0 82 -49 144l-297 -312q57 -52 137 -52zM110 257q0 -85 47 -144
l299 311q-58 53 -137 53q-91 0 -150 -64t-59 -156z" />
    <glyph glyph-name="ugrave" unicode="&#xf9;" horiz-adv-x="613" 
d="M287 -12q-95 0 -149.5 58t-54.5 152v312h49v-303q0 -80 42.5 -127t119.5 -47q76 0 126.5 51t50.5 131v295h49v-510h-49v95q-62 -107 -184 -107zM310 595l-107 103l61 30l88 -133h-42z" />
    <glyph glyph-name="uacute" unicode="&#xfa;" horiz-adv-x="613" 
d="M287 -12q-95 0 -149.5 58t-54.5 152v312h49v-303q0 -80 42.5 -127t119.5 -47q76 0 126.5 51t50.5 131v295h49v-510h-49v95q-62 -107 -184 -107zM256 595l88 133l61 -30l-107 -103h-42z" />
    <glyph glyph-name="ucircumflex" unicode="&#xfb;" horiz-adv-x="613" 
d="M287 -12q-95 0 -149.5 58t-54.5 152v312h49v-303q0 -80 42.5 -127t119.5 -47q76 0 126.5 51t50.5 131v295h49v-510h-49v95q-62 -107 -184 -107zM181 595l100 122h40l100 -122h-47l-74 68l-74 -68h-45z" />
    <glyph glyph-name="udieresis" unicode="&#xfc;" horiz-adv-x="613" 
d="M287 -12q-95 0 -149.5 58t-54.5 152v312h49v-303q0 -80 42.5 -127t119.5 -47q76 0 126.5 51t50.5 131v295h49v-510h-49v95q-62 -107 -184 -107zM348 595v80h69v-80h-69zM185 595v80h69v-80h-69z" />
    <glyph glyph-name="yacute" unicode="&#xfd;" horiz-adv-x="588" 
d="M155 -163q-50 0 -101 22l17 43q39 -19 87 -19q41 0 69.5 27t56.5 93l-245 507h57l212 -456l184 456h54l-221 -528q-33 -78 -73.5 -111.5t-96.5 -33.5zM253 595l88 133l61 -30l-107 -103h-42z" />
    <glyph glyph-name="thorn" unicode="&#xfe;" horiz-adv-x="660" 
d="M93 -160v890h49v-334q81 126 210 126q98 0 173 -73t75 -192v-2q0 -118 -75 -192.5t-173 -74.5q-128 0 -210 122v-270h-49zM347 35q86 0 143 59t57 159v2q0 98 -58.5 159t-141.5 61t-145.5 -62t-62.5 -157v-2q0 -95 62.5 -157t145.5 -62z" />
    <glyph glyph-name="ydieresis" unicode="&#xff;" horiz-adv-x="588" 
d="M155 -163q-50 0 -101 22l17 43q39 -19 87 -19q41 0 69.5 27t56.5 93l-245 507h57l212 -456l184 456h54l-221 -528q-33 -78 -73.5 -111.5t-96.5 -33.5zM345 595v80h69v-80h-69zM182 595v80h69v-80h-69z" />
    <glyph glyph-name="Amacron" unicode="&#x100;" horiz-adv-x="790" 
d="M44 0l326 705h50l326 -705h-57l-89 196h-413l-89 -196h-54zM209 243h369l-184 405zM240 801v49h310v-49h-310z" />
    <glyph glyph-name="amacron" unicode="&#x101;" horiz-adv-x="574" 
d="M248 -12q-78 0 -137.5 42.5t-59.5 117.5v2q0 79 61 122.5t162 43.5q86 0 169 -22v22q0 77 -44 116.5t-124 39.5t-160 -41l-18 43q91 44 181 44q105 0 161 -56q52 -52 52 -144v-318h-48v85q-71 -97 -195 -97zM251 34q80 0 136.5 44.5t56.5 112.5v58q-90 23 -173 23
q-80 0 -124 -32t-44 -87v-2q0 -53 43.5 -85t104.5 -32zM140 621v47h294v-47h-294z" />
    <glyph glyph-name="Abreve" unicode="&#x102;" horiz-adv-x="790" 
d="M44 0l326 705h50l326 -705h-57l-89 196h-413l-89 -196h-54zM209 243h369l-184 405zM395 773q-57 0 -93 29.5t-40 82.5h39q21 -64 94 -64t94 64h39q-4 -53 -40 -82.5t-93 -29.5z" />
    <glyph glyph-name="abreve" unicode="&#x103;" horiz-adv-x="574" 
d="M248 -12q-78 0 -137.5 42.5t-59.5 117.5v2q0 79 61 122.5t162 43.5q86 0 169 -22v22q0 77 -44 116.5t-124 39.5t-160 -41l-18 43q91 44 181 44q105 0 161 -56q52 -52 52 -144v-318h-48v85q-71 -97 -195 -97zM251 34q80 0 136.5 44.5t56.5 112.5v58q-90 23 -173 23
q-80 0 -124 -32t-44 -87v-2q0 -53 43.5 -85t104.5 -32zM306 593q-57 0 -93 29.5t-40 82.5h39q21 -64 94 -64t94 64h39q-4 -53 -40 -82.5t-93 -29.5z" />
    <glyph glyph-name="Aogonek" unicode="&#x104;" horiz-adv-x="790" 
d="M755 -128v-36q-126 4 -126 79q0 25 13.5 45t43.5 45l-86 191h-413l-89 -196h-54l326 705h50l326 -705h-11q-31 -24 -43.5 -41.5t-12.5 -37.5q0 -42 76 -49zM209 243h369l-184 405z" />
    <glyph glyph-name="aogonek" unicode="&#x105;" horiz-adv-x="574" 
d="M507 -128v-36q-126 4 -126 79q0 46 62 94v76q-71 -97 -195 -97q-78 0 -137.5 42.5t-59.5 117.5v2q0 79 61 122.5t162 43.5q86 0 169 -22v22q0 77 -44 116.5t-124 39.5t-160 -41l-18 43q91 44 181 44q105 0 161 -56q52 -52 52 -144v-318h-4q-31 -24 -43.5 -41.5
t-12.5 -37.5q0 -42 76 -49zM251 34q80 0 136.5 44.5t56.5 112.5v58q-90 23 -173 23q-80 0 -124 -32t-44 -87v-2q0 -53 43.5 -85t104.5 -32z" />
    <glyph glyph-name="Cacute" unicode="&#x106;" horiz-adv-x="738" 
d="M421 -12q-150 0 -249 104t-99 256v2q0 150 100 256t250 106q87 0 149.5 -28.5t122.5 -83.5l-37 -38q-106 103 -236 103q-126 0 -210.5 -90.5t-84.5 -222.5v-2q0 -132 85.5 -223.5t210.5 -91.5q73 0 129 26.5t112 82.5l35 -34q-62 -60 -126.5 -91t-151.5 -31zM397 775
l93 118l59 -28l-107 -90h-45z" />
    <glyph glyph-name="cacute" unicode="&#x107;" horiz-adv-x="571" 
d="M318 -12q-109 0 -184.5 78.5t-75.5 186.5v2q0 109 75.5 188t184.5 79q116 0 204 -94l-35 -36q-82 84 -170 84q-87 0 -146.5 -63.5t-59.5 -155.5v-2q0 -93 61.5 -157t148.5 -64q95 0 171 85l34 -30q-89 -101 -208 -101zM292 595l88 133l61 -30l-107 -103h-42z" />
    <glyph glyph-name="Cdotaccent" unicode="&#x10a;" horiz-adv-x="738" 
d="M421 -12q-150 0 -249 104t-99 256v2q0 150 100 256t250 106q87 0 149.5 -28.5t122.5 -83.5l-37 -38q-106 103 -236 103q-126 0 -210.5 -90.5t-84.5 -222.5v-2q0 -132 85.5 -223.5t210.5 -91.5q73 0 129 26.5t112 82.5l35 -34q-62 -60 -126.5 -91t-151.5 -31zM380 775v76
h76v-76h-76z" />
    <glyph glyph-name="cdotaccent" unicode="&#x10b;" horiz-adv-x="571" 
d="M318 -12q-109 0 -184.5 78.5t-75.5 186.5v2q0 109 75.5 188t184.5 79q116 0 204 -94l-35 -36q-82 84 -170 84q-87 0 -146.5 -63.5t-59.5 -155.5v-2q0 -93 61.5 -157t148.5 -64q95 0 171 85l34 -30q-89 -101 -208 -101zM277 595v81h72v-81h-72z" />
    <glyph glyph-name="Ccaron" unicode="&#x10c;" horiz-adv-x="738" 
d="M421 -12q-150 0 -249 104t-99 256v2q0 150 100 256t250 106q87 0 149.5 -28.5t122.5 -83.5l-37 -38q-106 103 -236 103q-126 0 -210.5 -90.5t-84.5 -222.5v-2q0 -132 85.5 -223.5t210.5 -91.5q73 0 129 26.5t112 82.5l35 -34q-62 -60 -126.5 -91t-151.5 -31zM544 882
l-103 -107h-46l-103 107h54l73 -61l73 61h52z" />
    <glyph glyph-name="ccaron" unicode="&#x10d;" horiz-adv-x="571" 
d="M318 -12q-109 0 -184.5 78.5t-75.5 186.5v2q0 109 75.5 188t184.5 79q116 0 204 -94l-35 -36q-82 84 -170 84q-87 0 -146.5 -63.5t-59.5 -155.5v-2q0 -93 61.5 -157t148.5 -64q95 0 171 85l34 -30q-89 -101 -208 -101zM433 717l-100 -122h-40l-100 122h47l74 -68l74 68
h45z" />
    <glyph glyph-name="Dcaron" unicode="&#x10e;" horiz-adv-x="782" 
d="M104 0v700h233q163 0 267.5 -99.5t104.5 -248.5v-2q0 -150 -104.5 -250t-267.5 -100h-233zM156 48h181q143 0 230.5 86t87.5 214v2q0 127 -87.5 214.5t-230.5 87.5h-181v-604zM501 872l-103 -107h-46l-103 107h54l73 -61l73 61h52z" />
    <glyph glyph-name="dcaron" unicode="&#x10f;" horiz-adv-x="660" 
d="M308 -12q-98 0 -173 73t-75 192v2q0 118 75 192.5t173 74.5q128 0 210 -122v330h49v-730h-49v114q-85 -126 -210 -126zM313 35q83 0 145.5 62t62.5 157v2q0 95 -62.5 157t-145.5 62q-86 0 -143 -59t-57 -159v-2q0 -98 58.5 -159t141.5 -61zM637 581l17 149h61v-3
l-49 -146h-29z" />
    <glyph glyph-name="Dcroat" unicode="&#x110;" horiz-adv-x="812" 
d="M134 0v328h-75v48h75v324h233q163 0 267.5 -99.5t104.5 -248.5v-2q0 -150 -104.5 -250t-267.5 -100h-233zM186 48h181q143 0 230.5 86t87.5 214v2q0 127 -87.5 214.5t-230.5 87.5h-181v-276h232v-48h-232v-280z" />
    <glyph glyph-name="dcroat" unicode="&#x111;" horiz-adv-x="660" 
d="M333 618v45h185v67h49v-67h70v-45h-70v-618h-49v114q-85 -126 -210 -126q-98 0 -173 73t-75 192v2q0 118 75 192.5t173 74.5q128 0 210 -122v218h-185zM313 35q83 0 145.5 62t62.5 157v2q0 95 -62.5 157t-145.5 62q-86 0 -143 -59t-57 -159v-2q0 -98 58.5 -159t141.5 -61
z" />
    <glyph glyph-name="Emacron" unicode="&#x112;" horiz-adv-x="670" 
d="M104 0v700h498v-48h-446v-275h401v-48h-401v-281h451v-48h-503zM200 791v49h310v-49h-310z" />
    <glyph glyph-name="emacron" unicode="&#x113;" horiz-adv-x="584" 
d="M308 -12q-103 0 -176.5 74.5t-73.5 191.5v2q0 111 69.5 188.5t172.5 77.5q105 0 169.5 -76t64.5 -191q0 -12 -1 -20h-423q6 -92 64 -146.5t136 -54.5q99 0 175 80l34 -30q-89 -96 -211 -96zM110 279h371q-7 84 -53.5 141t-129.5 57q-75 0 -128.5 -56.5t-59.5 -141.5z
M153 621v47h294v-47h-294z" />
    <glyph glyph-name="Ebreve" unicode="&#x114;" horiz-adv-x="670" 
d="M104 0v700h498v-48h-446v-275h401v-48h-401v-281h451v-48h-503zM355 763q-57 0 -93 26.5t-40 73.5h44q18 -52 89 -52t89 52h44q-4 -47 -40 -73.5t-93 -26.5z" />
    <glyph glyph-name="ebreve" unicode="&#x115;" horiz-adv-x="584" 
d="M308 -12q-103 0 -176.5 74.5t-73.5 191.5v2q0 111 69.5 188.5t172.5 77.5q105 0 169.5 -76t64.5 -191q0 -12 -1 -20h-423q6 -92 64 -146.5t136 -54.5q99 0 175 80l34 -30q-89 -96 -211 -96zM110 279h371q-7 84 -53.5 141t-129.5 57q-75 0 -128.5 -56.5t-59.5 -141.5z
M300 593q-57 0 -93 29.5t-40 82.5h39q21 -64 94 -64t94 64h39q-4 -53 -40 -82.5t-93 -29.5z" />
    <glyph glyph-name="Edotaccent" unicode="&#x116;" horiz-adv-x="670" 
d="M104 0v700h498v-48h-446v-275h401v-48h-401v-281h451v-48h-503zM317 765v76h76v-76h-76z" />
    <glyph glyph-name="edotaccent" unicode="&#x117;" horiz-adv-x="584" 
d="M308 -12q-103 0 -176.5 74.5t-73.5 191.5v2q0 111 69.5 188.5t172.5 77.5q105 0 169.5 -76t64.5 -191q0 -12 -1 -20h-423q6 -92 64 -146.5t136 -54.5q99 0 175 80l34 -30q-89 -96 -211 -96zM110 279h371q-7 84 -53.5 141t-129.5 57q-75 0 -128.5 -56.5t-59.5 -141.5z
M264 595v81h72v-81h-72z" />
    <glyph glyph-name="Eogonek" unicode="&#x118;" horiz-adv-x="670" 
d="M104 0v700h498v-48h-446v-275h401v-48h-401v-281h451v-48h-21q-31 -24 -43.5 -41.5t-12.5 -37.5q0 -42 76 -49v-36q-126 4 -126 79q0 42 51 85h-427z" />
    <glyph glyph-name="eogonek" unicode="&#x119;" horiz-adv-x="584" 
d="M110 279h371q-7 84 -53.5 141t-129.5 57q-75 0 -128.5 -56.5t-59.5 -141.5zM468 37q-45 -38 -61.5 -62t-16.5 -48q0 -26 17 -38t60 -17v-36q-126 4 -126 84q0 38 38 76q-37 -8 -71 -8q-103 0 -176.5 74.5t-73.5 191.5v2q0 111 69.5 188.5t172.5 77.5q105 0 169.5 -76
t64.5 -191q0 -12 -1 -20h-423q6 -92 64 -146.5t136 -54.5q99 0 175 80l34 -30q-17 -19 -51 -47z" />
    <glyph glyph-name="Ecaron" unicode="&#x11a;" horiz-adv-x="670" 
d="M104 0v700h498v-48h-446v-275h401v-48h-401v-281h451v-48h-503zM481 872l-103 -107h-46l-103 107h54l73 -61l73 61h52z" />
    <glyph glyph-name="ecaron" unicode="&#x11b;" horiz-adv-x="584" 
d="M308 -12q-103 0 -176.5 74.5t-73.5 191.5v2q0 111 69.5 188.5t172.5 77.5q105 0 169.5 -76t64.5 -191q0 -12 -1 -20h-423q6 -92 64 -146.5t136 -54.5q99 0 175 80l34 -30q-89 -96 -211 -96zM110 279h371q-7 84 -53.5 141t-129.5 57q-75 0 -128.5 -56.5t-59.5 -141.5z
M420 717l-100 -122h-40l-100 122h47l74 -68l74 68h45z" />
    <glyph glyph-name="Gbreve" unicode="&#x11e;" horiz-adv-x="784" 
d="M425 -12q-161 0 -256.5 103.5t-95.5 256.5v2q0 147 97 254.5t249 107.5q82 0 141 -22.5t115 -69.5l-34 -39q-96 84 -225 84q-126 0 -207.5 -91.5t-81.5 -221.5v-2q0 -139 81 -227.5t219 -88.5q63 0 122.5 22.5t100.5 57.5v201h-234v48h284v-270q-120 -105 -275 -105z
M412 773q-57 0 -93 26.5t-40 73.5h44q18 -52 89 -52t89 52h44q-4 -47 -40 -73.5t-93 -26.5z" />
    <glyph glyph-name="gbreve" unicode="&#x11f;" horiz-adv-x="660" 
d="M317 -162q-129 0 -234 78l29 40q93 -72 206 -72q90 0 145 51.5t55 146.5v74q-84 -118 -213 -118q-97 0 -171 67.5t-74 172.5v2q0 107 74 174.5t171 67.5q131 0 213 -114v102h49v-431q0 -108 -65 -173q-68 -68 -185 -68zM310 85q84 0 147.5 55t63.5 139v2
q0 85 -63.5 139.5t-147.5 54.5q-83 0 -140 -53t-57 -140v-2q0 -84 58 -139.5t139 -55.5zM332 593q-57 0 -93 29.5t-40 82.5h39q21 -64 94 -64t94 64h39q-4 -53 -40 -82.5t-93 -29.5z" />
    <glyph glyph-name="Gdotaccent" unicode="&#x120;" horiz-adv-x="784" 
d="M425 -12q-161 0 -256.5 103.5t-95.5 256.5v2q0 147 97 254.5t249 107.5q82 0 141 -22.5t115 -69.5l-34 -39q-96 84 -225 84q-126 0 -207.5 -91.5t-81.5 -221.5v-2q0 -139 81 -227.5t219 -88.5q63 0 122.5 22.5t100.5 57.5v201h-234v48h284v-270q-120 -105 -275 -105z
M374 775v76h76v-76h-76z" />
    <glyph glyph-name="gdotaccent" unicode="&#x121;" horiz-adv-x="660" 
d="M317 -162q-129 0 -234 78l29 40q93 -72 206 -72q90 0 145 51.5t55 146.5v74q-84 -118 -213 -118q-97 0 -171 67.5t-74 172.5v2q0 107 74 174.5t171 67.5q131 0 213 -114v102h49v-431q0 -108 -65 -173q-68 -68 -185 -68zM310 85q84 0 147.5 55t63.5 139v2
q0 85 -63.5 139.5t-147.5 54.5q-83 0 -140 -53t-57 -140v-2q0 -84 58 -139.5t139 -55.5zM296 595v81h72v-81h-72z" />
    <glyph glyph-name="Gcommaaccent" unicode="&#x122;" horiz-adv-x="784" 
d="M425 -12q-161 0 -256.5 103.5t-95.5 256.5v2q0 147 97 254.5t249 107.5q82 0 141 -22.5t115 -69.5l-34 -39q-96 84 -225 84q-126 0 -207.5 -91.5t-81.5 -221.5v-2q0 -139 81 -227.5t219 -88.5q63 0 122.5 22.5t100.5 57.5v201h-234v48h284v-270q-120 -105 -275 -105z
M357 -225l-6 24q31 7 44 20t11 36h-31v71h72v-62q0 -76 -90 -89z" />
    <glyph glyph-name="gcommaaccent" unicode="&#x123;" horiz-adv-x="660" 
d="M317 -162q-129 0 -234 78l29 40q93 -72 206 -72q90 0 145 51.5t55 146.5v74q-84 -118 -213 -118q-97 0 -171 67.5t-74 172.5v2q0 107 74 174.5t171 67.5q131 0 213 -114v102h49v-431q0 -108 -65 -173q-68 -68 -185 -68zM310 85q84 0 147.5 55t63.5 139v2
q0 85 -63.5 139.5t-147.5 54.5q-83 0 -140 -53t-57 -140v-2q0 -84 58 -139.5t139 -55.5zM386 746l6 -24q-31 -7 -44 -20t-11 -36h31v-71h-72v62q0 75 90 89z" />
    <glyph glyph-name="Hbar" unicode="&#x126;" horiz-adv-x="820" 
d="M59 509v45h75v146h52v-146h448v146h52v-146h75v-45h-75v-509h-52v323h-448v-323h-52v509h-75zM186 371h448v138h-448v-138z" />
    <glyph glyph-name="hbar" unicode="&#x127;" horiz-adv-x="613" 
d="M327 618h-185v-203q62 107 184 107q95 0 149.5 -58t54.5 -152v-312h-49v303q0 80 -42.5 127t-119.5 47q-76 0 -126.5 -51t-50.5 -131v-295h-49v618h-70v45h70v67h49v-67h185v-45z" />
    <glyph glyph-name="Itilde" unicode="&#x128;" horiz-adv-x="274" 
d="M25 766l-37 10q14 48 33 68t49 20q20 0 65.5 -19t60.5 -19q18 0 28.5 9.5t21.5 36.5l37 -10q-14 -47 -33 -67t-49 -20q-20 0 -65.5 19t-60.5 19q-18 0 -28.5 -10t-21.5 -37zM111 0v700h52v-700h-52z" />
    <glyph glyph-name="itilde" unicode="&#x129;" horiz-adv-x="249" 
d="M100 0v510h49v-510h-49zM10 586l-34 9q14 52 33.5 72.5t50.5 20.5q19 0 65 -20.5t63 -20.5q18 0 28.5 10.5t21.5 39.5l34 -9q-14 -52 -33.5 -72.5t-50.5 -20.5q-19 0 -65 20.5t-63 20.5q-18 0 -28.5 -10.5t-21.5 -39.5z" />
    <glyph glyph-name="Imacron" unicode="&#x12a;" horiz-adv-x="274" 
d="M111 0v700h52v-700h-52zM-18 791v49h310v-49h-310z" />
    <glyph glyph-name="imacron" unicode="&#x12b;" horiz-adv-x="249" 
d="M100 0v510h49v-510h-49zM-23 621v47h294v-47h-294z" />
    <glyph glyph-name="Ibreve" unicode="&#x12c;" horiz-adv-x="274" 
d="M111 0v700h52v-700h-52zM137 763q-57 0 -93 26.5t-40 73.5h44q18 -52 89 -52t89 52h44q-4 -47 -40 -73.5t-93 -26.5z" />
    <glyph glyph-name="ibreve" unicode="&#x12d;" horiz-adv-x="249" 
d="M100 0v510h49v-510h-49zM124 593q-57 0 -93 29.5t-40 82.5h39q21 -64 94 -64t94 64h39q-4 -53 -40 -82.5t-93 -29.5z" />
    <glyph glyph-name="Iogonek" unicode="&#x12e;" horiz-adv-x="274" 
d="M179 -128v-36q-126 4 -126 79q0 45 58 91v694h52v-700h-4q-31 -24 -43.5 -41.5t-12.5 -37.5q0 -42 76 -49z" />
    <glyph glyph-name="iogonek" unicode="&#x12f;" horiz-adv-x="249" 
d="M166 -128v-36q-126 4 -126 79q0 45 60 93v502h49v-510h-3q-31 -24 -43.5 -41.5t-12.5 -37.5q0 -42 76 -49zM94 643v67h61v-67h-61z" />
    <glyph glyph-name="Idotaccent" unicode="&#x130;" horiz-adv-x="274" 
d="M111 0v700h52v-700h-52zM99 765v76h76v-76h-76z" />
    <glyph glyph-name="dotlessi" unicode="&#x131;" horiz-adv-x="249" 
d="M100 0v510h49v-510h-49z" />
    <glyph glyph-name="Kcommaaccent" unicode="&#x136;" horiz-adv-x="715" 
d="M104 0v700h52v-460l446 460h71l-306 -309l319 -391h-68l-288 354l-174 -176v-178h-52zM307 -220l-6 24q31 7 44 20t11 36h-31v71h72v-62q0 -75 -90 -89z" />
    <glyph glyph-name="kcommaaccent" unicode="&#x137;" horiz-adv-x="560" 
d="M93 0v730h49v-547l316 327h65l-223 -226l230 -284h-62l-202 249l-124 -125v-124h-49zM242 -225l-6 24q31 7 44 20t11 36h-31v71h72v-62q0 -76 -90 -89z" />
    <glyph glyph-name="Lacute" unicode="&#x139;" horiz-adv-x="619" 
d="M104 0v700h52v-652h411v-48h-463zM117 765l93 118l59 -28l-107 -90h-45z" />
    <glyph glyph-name="lacute" unicode="&#x13a;" horiz-adv-x="249" 
d="M100 0v730h49v-730h-49zM103 788l93 118l59 -28l-107 -90h-45z" />
    <glyph glyph-name="Lcommaaccent" unicode="&#x13b;" horiz-adv-x="619" 
d="M104 0v700h52v-652h411v-48h-463zM276 -225l-6 24q31 7 44 20t11 36h-31v71h72v-62q0 -76 -90 -89z" />
    <glyph glyph-name="lcommaaccent" unicode="&#x13c;" horiz-adv-x="249" 
d="M100 0v730h49v-730h-49zM69 -225l-6 24q31 7 44 20t11 36h-31v71h72v-62q0 -76 -90 -89z" />
    <glyph glyph-name="Lcaron" unicode="&#x13d;" horiz-adv-x="619" 
d="M104 0v700h52v-652h411v-48h-463zM257 551l17 149h61v-3l-49 -146h-29z" />
    <glyph glyph-name="lcaron" unicode="&#x13e;" horiz-adv-x="249" 
d="M100 0v730h49v-730h-49zM219 581l17 149h61v-3l-49 -146h-29z" />
    <glyph glyph-name="Ldot" unicode="&#x13f;" horiz-adv-x="619" 
d="M421 322v81h72v-81h-72zM104 0v700h52v-652h411v-48h-463z" />
    <glyph glyph-name="ldot" unicode="&#x140;" horiz-adv-x="309" 
d="M244 325v81h72v-81h-72zM100 0v730h49v-730h-49z" />
    <glyph glyph-name="Lslash" unicode="&#x141;" horiz-adv-x="649" 
d="M374 410l-189 -90v-272h412v-48h-463v295l-75 -35v53l75 35v352h51v-327l189 90v-53z" />
    <glyph glyph-name="lslash" unicode="&#x142;" horiz-adv-x="309" 
d="M255 397l-76 -43v-354h-49v327l-76 -42v53l76 42v350h49v-323l76 43v-53z" />
    <glyph glyph-name="Nacute" unicode="&#x143;" horiz-adv-x="790" 
d="M104 0v700h49l483 -609v609h50v-700h-39l-493 622v-622h-50zM374 760l93 118l59 -28l-107 -90h-45z" />
    <glyph glyph-name="nacute" unicode="&#x144;" horiz-adv-x="613" 
d="M93 0v510h49v-95q62 107 184 107q95 0 149.5 -58t54.5 -152v-312h-49v303q0 80 -42.5 127t-119.5 47q-76 0 -126.5 -51t-50.5 -131v-295h-49zM290 595l88 133l61 -30l-107 -103h-42z" />
    <glyph glyph-name="Ncommaaccent" unicode="&#x145;" horiz-adv-x="790" 
d="M104 0v700h49l483 -609v609h50v-700h-39l-493 622v-622h-50zM340 -220l-6 24q31 7 44 20t11 36h-31v71h72v-62q0 -75 -90 -89z" />
    <glyph glyph-name="ncommaaccent" unicode="&#x146;" horiz-adv-x="613" 
d="M93 0v510h49v-95q62 107 184 107q95 0 149.5 -58t54.5 -152v-312h-49v303q0 80 -42.5 127t-119.5 47q-76 0 -126.5 -51t-50.5 -131v-295h-49zM256 -225l-6 24q31 7 44 20t11 36h-31v71h72v-62q0 -76 -90 -89z" />
    <glyph glyph-name="Ncaron" unicode="&#x147;" horiz-adv-x="790" 
d="M104 0v700h49l483 -609v609h50v-700h-39l-493 622v-622h-50zM521 867l-103 -107h-46l-103 107h54l73 -61l73 61h52z" />
    <glyph glyph-name="ncaron" unicode="&#x148;" horiz-adv-x="613" 
d="M93 0v510h49v-95q62 107 184 107q95 0 149.5 -58t54.5 -152v-312h-49v303q0 80 -42.5 127t-119.5 47q-76 0 -126.5 -51t-50.5 -131v-295h-49zM431 717l-100 -122h-40l-100 122h47l74 -68l74 68h45z" />
    <glyph glyph-name="Omacron" unicode="&#x14c;" horiz-adv-x="850" 
d="M424 -12q-155 0 -253 106t-98 254v2q0 149 99 255.5t254 106.5t253 -106t98 -254v-2q0 -149 -99 -255.5t-254 -106.5zM426 35q128 0 212.5 91t84.5 222v2q0 131 -85.5 223t-213.5 92t-212.5 -91t-84.5 -222v-2q0 -131 85.5 -223t213.5 -92zM270 801v49h310v-49h-310z" />
    <glyph glyph-name="omacron" unicode="&#x14d;" horiz-adv-x="640" 
d="M319 -12q-112 0 -186.5 78t-74.5 187v2q0 109 75.5 188t187.5 79t186.5 -78t74.5 -187v-2q0 -109 -75.5 -188t-187.5 -79zM321 34q90 0 149 64t59 155v2q0 93 -61 157t-149 64q-90 0 -149 -64t-59 -155v-2q0 -93 61 -157t149 -64zM173 621v47h294v-47h-294z" />
    <glyph glyph-name="Obreve" unicode="&#x14e;" horiz-adv-x="850" 
d="M424 -12q-155 0 -253 106t-98 254v2q0 149 99 255.5t254 106.5t253 -106t98 -254v-2q0 -149 -99 -255.5t-254 -106.5zM426 35q128 0 212.5 91t84.5 222v2q0 131 -85.5 223t-213.5 92t-212.5 -91t-84.5 -222v-2q0 -131 85.5 -223t213.5 -92zM425 773q-57 0 -93 26.5
t-40 73.5h44q18 -52 89 -52t89 52h44q-4 -47 -40 -73.5t-93 -26.5z" />
    <glyph glyph-name="obreve" unicode="&#x14f;" horiz-adv-x="640" 
d="M319 -12q-112 0 -186.5 78t-74.5 187v2q0 109 75.5 188t187.5 79t186.5 -78t74.5 -187v-2q0 -109 -75.5 -188t-187.5 -79zM321 34q90 0 149 64t59 155v2q0 93 -61 157t-149 64q-90 0 -149 -64t-59 -155v-2q0 -93 61 -157t149 -64zM320 593q-57 0 -93 29.5t-40 82.5h39
q21 -64 94 -64t94 64h39q-4 -53 -40 -82.5t-93 -29.5z" />
    <glyph glyph-name="Ohungarumlaut" unicode="&#x150;" horiz-adv-x="850" 
d="M424 -12q-155 0 -253 106t-98 254v2q0 149 99 255.5t254 106.5t253 -106t98 -254v-2q0 -149 -99 -255.5t-254 -106.5zM426 35q128 0 212.5 91t84.5 222v2q0 131 -85.5 223t-213.5 92t-212.5 -91t-84.5 -222v-2q0 -131 85.5 -223t213.5 -92zM324 775l93 118l59 -28
l-107 -90h-45zM464 775l93 118l59 -28l-107 -90h-45z" />
    <glyph glyph-name="ohungarumlaut" unicode="&#x151;" horiz-adv-x="640" 
d="M319 -12q-112 0 -186.5 78t-74.5 187v2q0 109 75.5 188t187.5 79t186.5 -78t74.5 -187v-2q0 -109 -75.5 -188t-187.5 -79zM321 34q90 0 149 64t59 155v2q0 93 -61 157t-149 64q-90 0 -149 -64t-59 -155v-2q0 -93 61 -157t149 -64zM359 595l89 133l55 -29l-101 -104h-43z
M223 595l89 133l55 -29l-101 -104h-43z" />
    <glyph glyph-name="OE" unicode="&#x152;" horiz-adv-x="1152" 
d="M1089 0h-644q-163 0 -267.5 99.5t-104.5 248.5v2q0 150 104.5 250t267.5 100h639v-48h-431v-275h386v-48h-386v-281h436v-48zM445 48h156v604h-156q-143 0 -230.5 -86t-87.5 -214v-2q0 -127 87.5 -214.5t230.5 -87.5z" />
    <glyph glyph-name="oe" unicode="&#x153;" horiz-adv-x="1055" 
d="M318 -12q-110 0 -185 78t-75 187v2q0 109 76 188t186 79q79 0 141 -43t93 -113q28 71 86 113.5t132 42.5q104 0 168.5 -76t64.5 -191q0 -12 -1 -20h-423q6 -92 64 -146.5t136 -54.5q99 0 175 80l34 -30q-89 -96 -209 -96q-75 0 -136 42t-91 115q-31 -71 -93.5 -114
t-142.5 -43zM581 279h371q-7 84 -53.5 141t-129.5 57q-75 0 -128.5 -56.5t-59.5 -141.5zM321 34q90 0 149 64t59 155v2q0 93 -61 157t-149 64q-90 0 -149 -64t-59 -155v-2q0 -93 61 -157t149 -64z" />
    <glyph glyph-name="Racute" unicode="&#x154;" horiz-adv-x="723" 
d="M104 0v700h294q128 0 197 -69q53 -53 53 -130v-2q0 -84 -56.5 -135.5t-148.5 -64.5l231 -299h-66l-223 290h-229v-290h-52zM156 337h236q90 0 147 43t57 117v2q0 72 -53 112.5t-148 40.5h-239v-315zM330 765l93 118l59 -28l-107 -90h-45z" />
    <glyph glyph-name="racute" unicode="&#x155;" horiz-adv-x="400" 
d="M93 0v510h49v-145q32 71 91.5 113t134.5 40v-54h-5q-93 0 -157 -68t-64 -187v-209h-49zM190 595l88 133l61 -30l-107 -103h-42z" />
    <glyph glyph-name="Rcommaaccent" unicode="&#x156;" horiz-adv-x="723" 
d="M104 0v700h294q128 0 197 -69q53 -53 53 -130v-2q0 -84 -56.5 -135.5t-148.5 -64.5l231 -299h-66l-223 290h-229v-290h-52zM156 337h236q90 0 147 43t57 117v2q0 72 -53 112.5t-148 40.5h-239v-315zM296 -220l-6 24q31 7 44 20t11 36h-31v71h72v-62q0 -75 -90 -89z" />
    <glyph glyph-name="rcommaaccent" unicode="&#x157;" horiz-adv-x="400" 
d="M93 0v510h49v-145q32 71 91.5 113t134.5 40v-54h-5q-93 0 -157 -68t-64 -187v-209h-49zM71 -225l-6 24q31 7 44 20t11 36h-31v71h72v-62q0 -76 -90 -89z" />
    <glyph glyph-name="Rcaron" unicode="&#x158;" horiz-adv-x="723" 
d="M104 0v700h294q128 0 197 -69q53 -53 53 -130v-2q0 -84 -56.5 -135.5t-148.5 -64.5l231 -299h-66l-223 290h-229v-290h-52zM156 337h236q90 0 147 43t57 117v2q0 72 -53 112.5t-148 40.5h-239v-315zM477 872l-103 -107h-46l-103 107h54l73 -61l73 61h52z" />
    <glyph glyph-name="rcaron" unicode="&#x159;" horiz-adv-x="400" 
d="M93 0v510h49v-145q32 71 91.5 113t134.5 40v-54h-5q-93 0 -157 -68t-64 -187v-209h-49zM331 717l-100 -122h-40l-100 122h47l74 -68l74 68h45z" />
    <glyph glyph-name="Sacute" unicode="&#x15a;" horiz-adv-x="640" 
d="M341 -10q-157 0 -282 112l34 39q59 -55 117 -79.5t134 -24.5q78 0 127.5 39.5t49.5 99.5v2q0 58 -41.5 92t-156.5 57q-127 26 -181.5 71.5t-54.5 125.5v2q0 78 64 131t161 53q74 0 129.5 -20.5t110.5 -64.5l-33 -41q-93 79 -209 79q-76 0 -123.5 -38.5t-47.5 -93.5v-2
q0 -59 42.5 -93.5t161.5 -59.5q122 -25 176 -70.5t54 -122.5v-2q0 -84 -65 -137.5t-167 -53.5zM307 775l93 118l59 -28l-107 -90h-45z" />
    <glyph glyph-name="sacute" unicode="&#x15b;" horiz-adv-x="497" 
d="M258 -10q-116 0 -209 74l29 39q87 -67 183 -67q53 0 88 26.5t35 70.5v2q0 22 -10 38t-32 28t-41 19t-52 17q-36 10 -51.5 15t-45 18t-42.5 25.5t-24.5 33.5t-11.5 48v2q0 62 47 101.5t121 39.5q99 0 181 -56l-26 -41q-77 51 -157 51q-52 0 -84 -25t-32 -64v-2
q0 -20 10.5 -35.5t35 -27.5t42 -18.5t54.5 -17.5q39 -11 62.5 -20.5t51 -26t41 -40.5t13.5 -56v-2q0 -67 -50 -108t-126 -41zM231 595l88 133l61 -30l-107 -103h-42z" />
    <glyph glyph-name="Scedilla" unicode="&#x15e;" horiz-adv-x="640" 
d="M288 -148l-55 26l77 113q-138 10 -251 111l34 39q59 -55 117 -79.5t134 -24.5q78 0 127.5 39.5t49.5 99.5v2q0 58 -41.5 92t-156.5 57q-127 26 -181.5 71.5t-54.5 125.5v2q0 78 64 131t161 53q74 0 129.5 -20.5t110.5 -64.5l-33 -41q-93 79 -209 79q-76 0 -123.5 -38.5
t-47.5 -93.5v-2q0 -59 42.5 -93.5t161.5 -59.5q122 -25 176 -70.5t54 -122.5v-2q0 -81 -60.5 -133.5t-156.5 -56.5z" />
    <glyph glyph-name="scedilla" unicode="&#x15f;" horiz-adv-x="497" 
d="M199 -148l-55 26l78 114q-101 13 -173 72l29 39q87 -67 183 -67q53 0 88 26.5t35 70.5v2q0 22 -10 38t-32 28t-41 19t-52 17q-36 10 -51.5 15t-45 18t-42.5 25.5t-24.5 33.5t-11.5 48v2q0 62 47 101.5t121 39.5q99 0 181 -56l-26 -41q-77 51 -157 51q-52 0 -84 -25
t-32 -64v-2q0 -20 10.5 -35.5t35 -27.5t42 -18.5t54.5 -17.5q39 -11 62.5 -20.5t51 -26t41 -40.5t13.5 -56v-2q0 -64 -48 -105.5t-119 -43.5z" />
    <glyph glyph-name="Scaron" unicode="&#x160;" horiz-adv-x="640" 
d="M341 -10q-157 0 -282 112l34 39q59 -55 117 -79.5t134 -24.5q78 0 127.5 39.5t49.5 99.5v2q0 58 -41.5 92t-156.5 57q-127 26 -181.5 71.5t-54.5 125.5v2q0 78 64 131t161 53q74 0 129.5 -20.5t110.5 -64.5l-33 -41q-93 79 -209 79q-76 0 -123.5 -38.5t-47.5 -93.5v-2
q0 -59 42.5 -93.5t161.5 -59.5q122 -25 176 -70.5t54 -122.5v-2q0 -84 -65 -137.5t-167 -53.5zM454 882l-103 -107h-46l-103 107h54l73 -61l73 61h52z" />
    <glyph glyph-name="scaron" unicode="&#x161;" horiz-adv-x="497" 
d="M258 -10q-116 0 -209 74l29 39q87 -67 183 -67q53 0 88 26.5t35 70.5v2q0 22 -10 38t-32 28t-41 19t-52 17q-36 10 -51.5 15t-45 18t-42.5 25.5t-24.5 33.5t-11.5 48v2q0 62 47 101.5t121 39.5q99 0 181 -56l-26 -41q-77 51 -157 51q-52 0 -84 -25t-32 -64v-2
q0 -20 10.5 -35.5t35 -27.5t42 -18.5t54.5 -17.5q39 -11 62.5 -20.5t51 -26t41 -40.5t13.5 -56v-2q0 -67 -50 -108t-126 -41zM372 717l-100 -122h-40l-100 122h47l74 -68l74 68h45z" />
    <glyph glyph-name="Tcommaaccent" unicode="&#x162;" horiz-adv-x="648" 
d="M298 0v652h-244v48h540v-48h-244v-652h-52zM269 -225l-6 24q31 7 44 20t11 36h-31v71h72v-62q0 -76 -90 -89z" />
    <glyph glyph-name="tcommaaccent" unicode="&#x163;" horiz-adv-x="400" 
d="M263 -9q-64 0 -103.5 35t-39.5 105v334h-74v45h74v163h49v-163h179v-45h-179v-329q0 -99 102 -99q35 0 75 18v-46q-40 -18 -83 -18zM171 -225l-6 24q31 7 44 20t11 36h-31v71h72v-62q0 -76 -90 -89z" />
    <glyph glyph-name="Tcaron" unicode="&#x164;" horiz-adv-x="648" 
d="M298 0v652h-244v48h540v-48h-244v-652h-52zM450 872l-103 -107h-46l-103 107h54l73 -61l73 61h52z" />
    <glyph glyph-name="tcaron" unicode="&#x165;" horiz-adv-x="400" 
d="M263 -9q-64 0 -103.5 35t-39.5 105v334h-74v45h74v163h49v-163h179v-45h-179v-329q0 -99 102 -99q35 0 75 18v-46q-40 -18 -83 -18zM288 582l17 149h61v-3l-49 -146h-29z" />
    <glyph glyph-name="Utilde" unicode="&#x168;" horiz-adv-x="760" 
d="M272 766l-37 10q14 48 33 68t49 20q20 0 65.5 -19t60.5 -19q18 0 28.5 9.5t21.5 36.5l37 -10q-14 -47 -33 -67t-49 -20q-20 0 -65.5 19t-60.5 19q-18 0 -28.5 -10t-21.5 -37zM380 -11q-129 0 -208 79t-79 223v409h52v-404q0 -125 62.5 -192.5t174.5 -67.5
q108 0 170.5 65.5t62.5 189.5v409h52v-403q0 -147 -78 -227.5t-209 -80.5z" />
    <glyph glyph-name="utilde" unicode="&#x169;" horiz-adv-x="613" 
d="M287 -12q-95 0 -149.5 58t-54.5 152v312h49v-303q0 -80 42.5 -127t119.5 -47q76 0 126.5 51t50.5 131v295h49v-510h-49v95q-62 -107 -184 -107zM192 586l-34 9q14 52 33.5 72.5t50.5 20.5q19 0 65 -20.5t63 -20.5q18 0 28.5 10.5t21.5 39.5l34 -9q-14 -52 -33.5 -72.5
t-50.5 -20.5q-19 0 -65 20.5t-63 20.5q-18 0 -28.5 -10.5t-21.5 -39.5z" />
    <glyph glyph-name="Umacron" unicode="&#x16a;" horiz-adv-x="760" 
d="M380 -11q-129 0 -208 79t-79 223v409h52v-404q0 -125 62.5 -192.5t174.5 -67.5q108 0 170.5 65.5t62.5 189.5v409h52v-403q0 -147 -78 -227.5t-209 -80.5zM225 786v49h310v-49h-310z" />
    <glyph glyph-name="umacron" unicode="&#x16b;" horiz-adv-x="613" 
d="M287 -12q-95 0 -149.5 58t-54.5 152v312h49v-303q0 -80 42.5 -127t119.5 -47q76 0 126.5 51t50.5 131v295h49v-510h-49v95q-62 -107 -184 -107zM154 621v47h294v-47h-294z" />
    <glyph glyph-name="Ubreve" unicode="&#x16c;" horiz-adv-x="760" 
d="M380 -11q-129 0 -208 79t-79 223v409h52v-404q0 -125 62.5 -192.5t174.5 -67.5q108 0 170.5 65.5t62.5 189.5v409h52v-403q0 -147 -78 -227.5t-209 -80.5zM380 758q-57 0 -93 26.5t-40 73.5h44q18 -52 89 -52t89 52h44q-4 -47 -40 -73.5t-93 -26.5z" />
    <glyph glyph-name="ubreve" unicode="&#x16d;" horiz-adv-x="613" 
d="M287 -12q-95 0 -149.5 58t-54.5 152v312h49v-303q0 -80 42.5 -127t119.5 -47q76 0 126.5 51t50.5 131v295h49v-510h-49v95q-62 -107 -184 -107zM301 593q-57 0 -93 29.5t-40 82.5h39q21 -64 94 -64t94 64h39q-4 -53 -40 -82.5t-93 -29.5z" />
    <glyph glyph-name="Uring" unicode="&#x16e;" horiz-adv-x="760" 
d="M380 -11q-129 0 -208 79t-79 223v409h52v-404q0 -125 62.5 -192.5t174.5 -67.5q108 0 170.5 65.5t62.5 189.5v409h52v-403q0 -147 -78 -227.5t-209 -80.5zM274 843q0 41 30.5 68t75.5 27t75.5 -27t30.5 -68t-30.5 -68t-75.5 -27t-75.5 27t-30.5 68zM312 843
q0 -27 19.5 -45t48.5 -18t48.5 18t19.5 45t-19.5 45t-48.5 18t-48.5 -18t-19.5 -45z" />
    <glyph glyph-name="uring" unicode="&#x16f;" horiz-adv-x="613" 
d="M287 -12q-95 0 -149.5 58t-54.5 152v312h49v-303q0 -80 42.5 -127t119.5 -47q76 0 126.5 51t50.5 131v295h49v-510h-49v95q-62 -107 -184 -107zM197 683q0 41 30.5 70.5t73.5 29.5t73.5 -29.5t30.5 -70.5t-30.5 -70.5t-73.5 -29.5t-73.5 29.5t-30.5 70.5zM231 683
q0 -29 20.5 -49.5t49.5 -20.5t49.5 20.5t20.5 49.5t-20.5 49.5t-49.5 20.5t-49.5 -20.5t-20.5 -49.5z" />
    <glyph glyph-name="Uhungarumlaut" unicode="&#x170;" horiz-adv-x="760" 
d="M380 -11q-129 0 -208 79t-79 223v409h52v-404q0 -125 62.5 -192.5t174.5 -67.5q108 0 170.5 65.5t62.5 189.5v409h52v-403q0 -147 -78 -227.5t-209 -80.5zM279 760l93 118l59 -28l-107 -90h-45zM419 760l93 118l59 -28l-107 -90h-45z" />
    <glyph glyph-name="uhungarumlaut" unicode="&#x171;" horiz-adv-x="613" 
d="M287 -12q-95 0 -149.5 58t-54.5 152v312h49v-303q0 -80 42.5 -127t119.5 -47q76 0 126.5 51t50.5 131v295h49v-510h-49v95q-62 -107 -184 -107zM340 595l89 133l55 -29l-101 -104h-43zM204 595l89 133l55 -29l-101 -104h-43z" />
    <glyph glyph-name="Uogonek" unicode="&#x172;" horiz-adv-x="760" 
d="M437 -128v-36q-126 4 -126 79q0 39 40 76q-117 8 -187.5 86.5t-70.5 213.5v409h52v-404q0 -125 62.5 -192.5t174.5 -67.5q108 0 170.5 65.5t62.5 189.5v409h52v-403q0 -140 -71 -219.5t-191 -87.5q-44 -38 -44 -69q0 -42 76 -49z" />
    <glyph glyph-name="uogonek" unicode="&#x173;" horiz-adv-x="613" 
d="M536 -128v-36q-126 4 -126 79q0 46 61 93v87q-62 -107 -184 -107q-95 0 -149.5 58t-54.5 152v312h49v-303q0 -80 42.5 -127t119.5 -47q76 0 126.5 51t50.5 131v295h49v-510h-4q-31 -24 -43.5 -41.5t-12.5 -37.5q0 -42 76 -49z" />
    <glyph glyph-name="Wcircumflex" unicode="&#x174;" horiz-adv-x="1102" 
d="M304 -5l-254 705h58l220 -623l205 625h40l205 -625l220 623h54l-254 -705h-42l-205 608l-205 -608h-42zM425 765l103 107h46l103 -107h-54l-73 61l-73 -61h-52z" />
    <glyph glyph-name="wcircumflex" unicode="&#x175;" horiz-adv-x="861" 
d="M236 -4l-187 514h55l154 -448l154 450h39l154 -450l154 448h53l-187 -514h-42l-152 437l-153 -437h-42zM310 595l100 122h40l100 -122h-47l-74 68l-74 -68h-45z" />
    <glyph glyph-name="Ycircumflex" unicode="&#x176;" horiz-adv-x="716" 
d="M332 0v277l-300 423h65l262 -376l263 376h62l-300 -422v-278h-52zM232 760l103 107h46l103 -107h-54l-73 61l-73 -61h-52z" />
    <glyph glyph-name="ycircumflex" unicode="&#x177;" horiz-adv-x="588" 
d="M155 -163q-50 0 -101 22l17 43q39 -19 87 -19q41 0 69.5 27t56.5 93l-245 507h57l212 -456l184 456h54l-221 -528q-33 -78 -73.5 -111.5t-96.5 -33.5zM178 595l100 122h40l100 -122h-47l-74 68l-74 -68h-45z" />
    <glyph glyph-name="Ydieresis" unicode="&#x178;" horiz-adv-x="716" 
d="M332 0v277l-300 423h65l262 -376l263 376h62l-300 -422v-278h-52zM410 760v76h73v-76h-73zM234 760v76h74v-76h-74z" />
    <glyph glyph-name="Zacute" unicode="&#x179;" horiz-adv-x="688" 
d="M68 0v29l479 624h-462v47h536v-29l-479 -624h479v-47h-553zM332 765l93 118l59 -28l-107 -90h-45z" />
    <glyph glyph-name="zacute" unicode="&#x17a;" horiz-adv-x="554" 
d="M58 0v28l368 438h-354v44h427v-28l-368 -438h368v-44h-441zM261 595l88 133l61 -30l-107 -103h-42z" />
    <glyph glyph-name="Zdotaccent" unicode="&#x17b;" horiz-adv-x="688" 
d="M68 0v29l479 624h-462v47h536v-29l-479 -624h479v-47h-553zM315 765v76h76v-76h-76z" />
    <glyph glyph-name="zdotaccent" unicode="&#x17c;" horiz-adv-x="554" 
d="M58 0v28l368 438h-354v44h427v-28l-368 -438h368v-44h-441zM246 595v81h72v-81h-72z" />
    <glyph glyph-name="Zcaron" unicode="&#x17d;" horiz-adv-x="688" 
d="M68 0v29l479 624h-462v47h536v-29l-479 -624h479v-47h-553zM479 872l-103 -107h-46l-103 107h54l73 -61l73 61h52z" />
    <glyph glyph-name="zcaron" unicode="&#x17e;" horiz-adv-x="554" 
d="M58 0v28l368 438h-354v44h427v-28l-368 -438h368v-44h-441zM402 717l-100 -122h-40l-100 122h47l74 -68l74 68h45z" />
    <glyph glyph-name="florin" unicode="&#x192;" horiz-adv-x="506" 
d="M90 -5q-32 0 -49 4v44q17 -4 46 -4q67 0 82 82l49 263h-109v45h117l26 136q14 74 48 107t95 33q41 0 75 -10v-44q-34 10 -70 10q-42 0 -63.5 -22.5t-31.5 -76.5l-25 -133h155v-45h-163l-50 -266q-12 -63 -43.5 -93t-88.5 -30z" />
    <glyph glyph-name="Ohorn" unicode="&#x1a0;" horiz-adv-x="850" 
d="M424 -12q-155 0 -253 106t-98 254v2q0 149 99 255.5t254 106.5q105 0 193 -56q36 3 52 14.5t16 37.5q0 27 -12 53q-1 3 -5 10t-6 11h61q15 -39 15 -78q0 -68 -71 -88q108 -108 108 -264v-2q0 -149 -99 -255.5t-254 -106.5zM426 35q128 0 212.5 91t84.5 222v2
q0 131 -85.5 223t-213.5 92t-212.5 -91t-84.5 -222v-2q0 -131 85.5 -223t213.5 -92z" />
    <glyph glyph-name="ohorn" unicode="&#x1a1;" horiz-adv-x="640" 
d="M319 -12q-112 0 -186.5 78t-74.5 187v2q0 109 75.5 188t187.5 79q80 0 146 -45q33 4 48.5 15.5t15.5 34.5q0 29 -12 51q-1 3 -4.5 10l-5.5 11h59q14 -39 14 -75q0 -67 -70 -86q70 -76 70 -181v-2q0 -109 -75.5 -188t-187.5 -79zM321 34q90 0 149 64t59 155v2
q0 110 -81 175q-57 46 -129 46q-90 0 -149 -64t-59 -155v-2q0 -93 61 -157t149 -64z" />
    <glyph glyph-name="Uhorn" unicode="&#x1af;" horiz-adv-x="808" 
d="M380 -11q-129 0 -208 79t-79 223v409h52v-404q0 -125 62.5 -192.5t174.5 -67.5q108 0 170.5 65.5t62.5 189.5v409h49q40 10 40 47q0 27 -12 53q-1 3 -5 10t-6 11h61q15 -39 15 -78q0 -75 -90 -92v-354q0 -147 -78 -227.5t-209 -80.5z" />
    <glyph glyph-name="uhorn" unicode="&#x1b0;" horiz-adv-x="641" 
d="M287 -12q-95 0 -149.5 58t-54.5 152v312h49v-303q0 -80 42.5 -127t119.5 -47q76 0 126.5 51t50.5 131v295h42q47 9 47 47q0 29 -12 51q-1 3 -4.5 10l-5.5 11h59q14 -39 14 -75q0 -74 -91 -90v-464h-49v95q-62 -107 -184 -107z" />
    <glyph glyph-name="Aringacute" unicode="&#x1fa;" horiz-adv-x="790" 
d="M289 753q0 41 30.5 68t75.5 27t75.5 -27t30.5 -68q0 -61 -63 -87l308 -666h-57l-89 196h-413l-89 -196h-54l307 666q-28 11 -45 34.5t-17 52.5zM209 243h369l-184 405zM327 753q0 -27 19.5 -45t48.5 -18t48.5 18t19.5 45t-19.5 45t-48.5 18t-48.5 -18t-19.5 -45zM371 878
l93 108l57 -28l-105 -80h-45z" />
    <glyph glyph-name="aringacute" unicode="&#x1fb;" horiz-adv-x="574" 
d="M265 820l89 118l59 -30l-104 -88h-44zM248 -12q-78 0 -137.5 42.5t-59.5 117.5v2q0 79 61 122.5t162 43.5q86 0 169 -22v22q0 77 -44 116.5t-124 39.5t-160 -41l-18 43q91 44 181 44q105 0 161 -56q52 -52 52 -144v-318h-48v85q-71 -97 -195 -97zM251 34q80 0 136.5 44.5
t56.5 112.5v58q-90 23 -173 23q-80 0 -124 -32t-44 -87v-2q0 -53 43.5 -85t104.5 -32zM183 693q0 41 30.5 70.5t73.5 29.5t73.5 -29.5t30.5 -70.5t-30.5 -70.5t-73.5 -29.5t-73.5 29.5t-30.5 70.5zM217 693q0 -29 20.5 -49.5t49.5 -20.5t49.5 20.5t20.5 49.5t-20.5 49.5
t-49.5 20.5t-49.5 -20.5t-20.5 -49.5z" />
    <glyph glyph-name="AEacute" unicode="&#x1fc;" horiz-adv-x="1045" 
d="M20 0l424 700h533v-48h-431v-275h386v-48h-386v-281h436v-48h-488v196h-300l-118 -196h-56zM222 243h272v410h-26zM613 765l93 118l59 -28l-107 -90h-45z" />
    <glyph glyph-name="aeacute" unicode="&#x1fd;" horiz-adv-x="954" 
d="M243 -12q-76 0 -134 42.5t-58 117.5v2q0 79 60 122.5t158 43.5q77 0 160 -22v22q0 77 -41.5 116.5t-119.5 39.5q-73 0 -153 -41l-18 43q93 44 174 44q158 0 193 -128q31 61 85 96.5t121 35.5q105 0 169.5 -76t64.5 -191q0 -12 -1 -20h-423q6 -92 64 -146.5t136 -54.5
q99 0 175 80l34 -30q-89 -96 -211 -96q-63 0 -117.5 29.5t-88.5 82.5q-97 -112 -229 -112zM480 279h371q-7 84 -53.5 141t-129.5 57q-75 0 -128.5 -56.5t-59.5 -141.5zM246 34q118 0 204 107q-21 52 -22 109q-86 22 -162 22q-78 0 -120.5 -32t-42.5 -87v-2q0 -54 41.5 -85.5
t101.5 -31.5zM456 595l88 133l61 -30l-107 -103h-42z" />
    <glyph glyph-name="Oslashacute" unicode="&#x1fe;" horiz-adv-x="850" 
d="M725 705h60l-100 -107q92 -100 92 -246v-2q0 -149 -99 -255.5t-254 -106.5q-132 0 -228 82l-71 -75h-60l99 106q-91 103 -91 247v2q0 149 99 255.5t254 106.5q130 0 228 -83zM426 34q129 0 213.5 91t84.5 223q0 122 -75 213l-420 -452q81 -75 197 -75zM126 352
q0 -125 74 -213l421 452q-83 75 -197 75q-129 0 -213.5 -91t-84.5 -223zM404 775l93 118l59 -28l-107 -90h-45z" />
    <glyph glyph-name="oslashacute" unicode="&#x1ff;" horiz-adv-x="640" 
d="M540 517h57l-80 -84q65 -75 65 -176v-2q0 -109 -75.5 -188t-187.5 -79q-96 0 -167 60l-52 -53h-57l79 82q-64 77 -64 176v2q0 109 75.5 188t187.5 79q98 0 167 -61zM321 33q90 0 149.5 64.5t59.5 155.5q0 82 -49 144l-297 -312q57 -52 137 -52zM110 257q0 -85 47 -144
l299 311q-58 53 -137 53q-91 0 -150 -64t-59 -156zM299 595l88 133l61 -30l-107 -103h-42z" />
    <glyph glyph-name="Scommaaccent" unicode="&#x218;" horiz-adv-x="640" 
d="M341 -10q-157 0 -282 112l34 39q59 -55 117 -79.5t134 -24.5q78 0 127.5 39.5t49.5 99.5v2q0 58 -41.5 92t-156.5 57q-127 26 -181.5 71.5t-54.5 125.5v2q0 78 64 131t161 53q74 0 129.5 -20.5t110.5 -64.5l-33 -41q-93 79 -209 79q-76 0 -123.5 -38.5t-47.5 -93.5v-2
q0 -59 42.5 -93.5t161.5 -59.5q122 -25 176 -70.5t54 -122.5v-2q0 -84 -65 -137.5t-167 -53.5zM273 -225l-6 24q31 7 44 20t11 36h-31v71h72v-62q0 -76 -90 -89z" />
    <glyph glyph-name="scommaaccent" unicode="&#x219;" horiz-adv-x="497" 
d="M258 -10q-116 0 -209 74l29 39q87 -67 183 -67q53 0 88 26.5t35 70.5v2q0 22 -10 38t-32 28t-41 19t-52 17q-36 10 -51.5 15t-45 18t-42.5 25.5t-24.5 33.5t-11.5 48v2q0 62 47 101.5t121 39.5q99 0 181 -56l-26 -41q-77 51 -157 51q-52 0 -84 -25t-32 -64v-2
q0 -20 10.5 -35.5t35 -27.5t42 -18.5t54.5 -17.5q39 -11 62.5 -20.5t51 -26t41 -40.5t13.5 -56v-2q0 -67 -50 -108t-126 -41zM197 -225l-6 24q31 7 44 20t11 36h-31v71h72v-62q0 -76 -90 -89z" />
    <glyph glyph-name="schwa" unicode="&#x259;" horiz-adv-x="584" 
d="M276 522q103 0 176.5 -74.5t73.5 -191.5v-2q0 -112 -69.5 -189t-172.5 -77q-105 0 -169.5 76t-64.5 191q0 12 1 20h423q-6 92 -64 146.5t-136 54.5q-99 0 -175 -80l-34 30q87 96 211 96zM474 231h-371q7 -84 53.5 -141t129.5 -57q75 0 128.5 56.5t59.5 141.5z" />
    <glyph glyph-name="circumflex" unicode="&#x2c6;" 
d="M130 595l100 122h40l100 -122h-47l-74 68l-74 -68h-45z" />
    <glyph glyph-name="caron" unicode="&#x2c7;" 
d="M370 717l-100 -122h-40l-100 122h47l74 -68l74 68h45z" />
    <glyph glyph-name="breve" unicode="&#x2d8;" 
d="M250 593q-57 0 -93 29.5t-40 82.5h39q21 -64 94 -64t94 64h39q-4 -53 -40 -82.5t-93 -29.5z" />
    <glyph glyph-name="dotaccent" unicode="&#x2d9;" 
d="M214 595v81h72v-81h-72z" />
    <glyph glyph-name="ring" unicode="&#x2da;" 
d="M146 693q0 41 30.5 70.5t73.5 29.5t73.5 -29.5t30.5 -70.5t-30.5 -70.5t-73.5 -29.5t-73.5 29.5t-30.5 70.5zM180 693q0 -29 20.5 -49.5t49.5 -20.5t49.5 20.5t20.5 49.5t-20.5 49.5t-49.5 20.5t-49.5 -20.5t-20.5 -49.5z" />
    <glyph glyph-name="ogonek" unicode="&#x2db;" 
d="M321 -128v-36q-126 4 -126 79q0 28 17.5 51t55.5 52l35 -17q-32 -25 -45 -42.5t-13 -37.5q0 -42 76 -49z" />
    <glyph glyph-name="tilde" unicode="&#x2dc;" 
d="M136 586l-34 9q14 52 33.5 72.5t50.5 20.5q19 0 65 -20.5t63 -20.5q18 0 28.5 10.5t21.5 39.5l34 -9q-14 -52 -33.5 -72.5t-50.5 -20.5q-19 0 -65 20.5t-63 20.5q-18 0 -28.5 -10.5t-21.5 -39.5z" />
    <glyph glyph-name="hungarumlaut" unicode="&#x2dd;" 
d="M246 595l89 133l55 -29l-101 -104h-43zM110 595l89 133l55 -29l-101 -104h-43z" />
    <glyph glyph-name="commaaccent" unicode="&#x326;" 
d="M196 -225l-6 24q31 7 44 20t11 36h-31v71h72v-62q0 -76 -90 -89z" />
    <glyph glyph-name="uni14EA" unicode="&#x14ea;" horiz-adv-x="0" 
 />
    <glyph glyph-name="Wgrave" unicode="&#x1e80;" horiz-adv-x="1102" 
d="M304 -5l-254 705h58l220 -623l205 625h40l205 -625l220 623h54l-254 -705h-42l-205 608l-205 -608h-42zM479 883l93 -118h-45l-107 90z" />
    <glyph glyph-name="wgrave" unicode="&#x1e81;" horiz-adv-x="861" 
d="M236 -4l-187 514h55l154 -448l154 450h39l154 -450l154 448h53l-187 -514h-42l-152 437l-153 -437h-42zM409 595l-107 103l61 30l88 -133h-42z" />
    <glyph glyph-name="Wacute" unicode="&#x1e82;" horiz-adv-x="1102" 
d="M304 -5l-254 705h58l220 -623l205 625h40l205 -625l220 623h54l-254 -705h-42l-205 608l-205 -608h-42zM530 765l93 118l59 -28l-107 -90h-45z" />
    <glyph glyph-name="wacute" unicode="&#x1e83;" horiz-adv-x="861" 
d="M236 -4l-187 514h55l154 -448l154 450h39l154 -450l154 448h53l-187 -514h-42l-152 437l-153 -437h-42zM409 595l88 133l61 -30l-107 -103h-42z" />
    <glyph glyph-name="Wdieresis" unicode="&#x1e84;" horiz-adv-x="1102" 
d="M304 -5l-254 705h58l220 -623l205 625h40l205 -625l220 623h54l-254 -705h-42l-205 608l-205 -608h-42zM603 765v76h73v-76h-73zM427 765v76h74v-76h-74z" />
    <glyph glyph-name="wdieresis" unicode="&#x1e85;" horiz-adv-x="861" 
d="M236 -4l-187 514h55l154 -448l154 450h39l154 -450l154 448h53l-187 -514h-42l-152 437l-153 -437h-42zM477 595v80h69v-80h-69zM314 595v80h69v-80h-69z" />
    <glyph glyph-name="uni1EA0" unicode="&#x1ea0;" horiz-adv-x="790" 
d="M367 -178v94h51v-94h-51zM44 0l326 705h50l326 -705h-57l-89 196h-413l-89 -196h-54zM209 243h369l-184 405z" />
    <glyph glyph-name="uni1EA1" unicode="&#x1ea1;" horiz-adv-x="574" 
d="M250 -178v94h51v-94h-51zM248 -12q-78 0 -137.5 42.5t-59.5 117.5v2q0 79 61 122.5t162 43.5q86 0 169 -22v22q0 77 -44 116.5t-124 39.5t-160 -41l-18 43q91 44 181 44q105 0 161 -56q52 -52 52 -144v-318h-48v85q-71 -97 -195 -97zM251 34q80 0 136.5 44.5t56.5 112.5
v58q-90 23 -173 23q-80 0 -124 -32t-44 -87v-2q0 -53 43.5 -85t104.5 -32z" />
    <glyph glyph-name="uni1EA2" unicode="&#x1ea2;" horiz-adv-x="790" 
d="M378 775l-3 73q28 2 45.5 15t17.5 30q0 15 -11 25t-30 10q-28 0 -56 -43q-4 2 -8 4.5l-7 4.5q-1 1 -5 3t-8 4.5l-7 4.5q40 64 91 64q38 0 61 -22t23 -55q0 -57 -68 -78q0 -10 -2 -40h-33zM44 0l326 705h50l326 -705h-57l-89 196h-413l-89 -196h-54zM209 243h369l-184 405
z" />
    <glyph glyph-name="uni1EA3" unicode="&#x1ea3;" horiz-adv-x="574" 
d="M288 595l-3 73q28 2 45.5 15t17.5 30q0 15 -11 25t-30 10q-28 0 -56 -43q-4 2 -8 4.5l-7 4.5q-1 1 -5 3t-8 4.5l-7 4.5q40 64 91 64q38 0 61 -22t23 -55q0 -57 -68 -78q0 -10 -2 -40h-33zM248 -12q-78 0 -137.5 42.5t-59.5 117.5v2q0 79 61 122.5t162 43.5q86 0 169 -22
v22q0 77 -44 116.5t-124 39.5t-160 -41l-18 43q91 44 181 44q105 0 161 -56q52 -52 52 -144v-318h-48v85q-71 -97 -195 -97zM251 34q80 0 136.5 44.5t56.5 112.5v58q-90 23 -173 23q-80 0 -124 -32t-44 -87v-2q0 -53 43.5 -85t104.5 -32z" />
    <glyph glyph-name="uni1EA4" unicode="&#x1ea4;" horiz-adv-x="790" 
d="M44 0l326 705h50l326 -705h-57l-89 196h-413l-89 -196h-54zM209 243h369l-184 405zM275 774l100 122h40l100 -122h-47l-74 68l-74 -68h-45zM480 869l88 133l61 -30l-107 -103h-42z" />
    <glyph glyph-name="uni1EA5" unicode="&#x1ea5;" horiz-adv-x="574" 
d="M248 -12q-78 0 -137.5 42.5t-59.5 117.5v2q0 79 61 122.5t162 43.5q86 0 169 -22v22q0 77 -44 116.5t-124 39.5t-160 -41l-18 43q91 44 181 44q105 0 161 -56q52 -52 52 -144v-318h-48v85q-71 -97 -195 -97zM251 34q80 0 136.5 44.5t56.5 112.5v58q-90 23 -173 23
q-80 0 -124 -32t-44 -87v-2q0 -53 43.5 -85t104.5 -32zM182 595l100 122h40l100 -122h-47l-74 68l-74 -68h-45zM387 690l88 133l61 -30l-107 -103h-42z" />
    <glyph glyph-name="uni1EA6" unicode="&#x1ea6;" horiz-adv-x="790" 
d="M44 0l326 705h50l326 -705h-57l-89 196h-413l-89 -196h-54zM209 243h369l-184 405zM275 774l100 122h40l100 -122h-47l-74 68l-74 -68h-45zM517 868l-107 103l61 30l88 -133h-42z" />
    <glyph glyph-name="uni1EA7" unicode="&#x1ea7;" horiz-adv-x="574" 
d="M248 -12q-78 0 -137.5 42.5t-59.5 117.5v2q0 79 61 122.5t162 43.5q86 0 169 -22v22q0 77 -44 116.5t-124 39.5t-160 -41l-18 43q91 44 181 44q105 0 161 -56q52 -52 52 -144v-318h-48v85q-71 -97 -195 -97zM251 34q80 0 136.5 44.5t56.5 112.5v58q-90 23 -173 23
q-80 0 -124 -32t-44 -87v-2q0 -53 43.5 -85t104.5 -32zM182 595l100 122h40l100 -122h-47l-74 68l-74 -68h-45zM424 689l-107 103l61 30l88 -133h-42z" />
    <glyph glyph-name="uni1EA8" unicode="&#x1ea8;" horiz-adv-x="790" 
d="M44 0l326 705h50l326 -705h-57l-89 196h-413l-89 -196h-54zM209 243h369l-184 405zM275 774l100 122h40l100 -122h-47l-74 68l-74 -68h-45zM498 851l-3 73q28 2 45.5 15t17.5 30q0 15 -11 25t-30 10q-28 0 -56 -43q-5 2 -8.5 4.5l-6.5 4.5l-20 12q40 64 91 64
q38 0 61 -22t23 -55q0 -57 -68 -78q0 -10 -2 -40h-33z" />
    <glyph glyph-name="uni1EA9" unicode="&#x1ea9;" horiz-adv-x="574" 
d="M248 -12q-78 0 -137.5 42.5t-59.5 117.5v2q0 79 61 122.5t162 43.5q86 0 169 -22v22q0 77 -44 116.5t-124 39.5t-160 -41l-18 43q91 44 181 44q105 0 161 -56q52 -52 52 -144v-318h-48v85q-71 -97 -195 -97zM251 34q80 0 136.5 44.5t56.5 112.5v58q-90 23 -173 23
q-80 0 -124 -32t-44 -87v-2q0 -53 43.5 -85t104.5 -32zM182 595l100 122h40l100 -122h-47l-74 68l-74 -68h-45zM405 672l-3 73q28 2 45.5 15t17.5 30q0 15 -11 25t-30 10q-28 0 -56 -43q-4 2 -8 5t-7 4l-20 12q40 64 91 64q38 0 61 -22t23 -55q0 -57 -68 -78q0 -10 -2 -40
h-33z" />
    <glyph glyph-name="uni1EAA" unicode="&#x1eaa;" horiz-adv-x="790" 
d="M44 0l326 705h50l326 -705h-57l-89 196h-413l-89 -196h-54zM209 243h369l-184 405zM275 774l100 122h40l100 -122h-47l-74 68l-74 -68h-45zM301 925l-33 10q13 45 30 65t42 20q18 0 58 -18.5t54 -18.5q15 0 24.5 10t18.5 35l33 -10q-12 -45 -28.5 -64.5t-43.5 -19.5
q-16 0 -57 18.5t-54 18.5q-15 0 -24.5 -10t-19.5 -36z" />
    <glyph glyph-name="uni1EAB" unicode="&#x1eab;" horiz-adv-x="574" 
d="M248 -12q-78 0 -137.5 42.5t-59.5 117.5v2q0 79 61 122.5t162 43.5q86 0 169 -22v22q0 77 -44 116.5t-124 39.5t-160 -41l-18 43q91 44 181 44q105 0 161 -56q52 -52 52 -144v-318h-48v85q-71 -97 -195 -97zM251 34q80 0 136.5 44.5t56.5 112.5v58q-90 23 -173 23
q-80 0 -124 -32t-44 -87v-2q0 -53 43.5 -85t104.5 -32zM182 595l100 122h40l100 -122h-47l-74 68l-74 -68h-45zM208 746l-33 10q13 45 30 65t42 20q18 0 58 -18.5t54 -18.5q15 0 24.5 10t18.5 35l33 -10q-12 -45 -28.5 -64.5t-43.5 -19.5q-17 0 -57 18.5t-54 18.5
q-15 0 -24.5 -10t-19.5 -36z" />
    <glyph glyph-name="uni1EAC" unicode="&#x1eac;" horiz-adv-x="790" 
d="M44 0l326 705h50l326 -705h-57l-89 196h-413l-89 -196h-54zM209 243h369l-184 405zM275 774l100 122h40l100 -122h-47l-74 68l-74 -68h-45zM367 -178v94h51v-94h-51z" />
    <glyph glyph-name="uni1EAD" unicode="&#x1ead;" horiz-adv-x="574" 
d="M248 -12q-78 0 -137.5 42.5t-59.5 117.5v2q0 79 61 122.5t162 43.5q86 0 169 -22v22q0 77 -44 116.5t-124 39.5t-160 -41l-18 43q91 44 181 44q105 0 161 -56q52 -52 52 -144v-318h-48v85q-71 -97 -195 -97zM251 34q80 0 136.5 44.5t56.5 112.5v58q-90 23 -173 23
q-80 0 -124 -32t-44 -87v-2q0 -53 43.5 -85t104.5 -32zM182 595l100 122h40l100 -122h-47l-74 68l-74 -68h-45zM250 -178v94h51v-94h-51z" />
    <glyph glyph-name="uni1EAE" unicode="&#x1eae;" horiz-adv-x="790" 
d="M44 0l326 705h50l326 -705h-57l-89 196h-413l-89 -196h-54zM209 243h369l-184 405zM395 773q-57 0 -93 29.5t-40 82.5h39q21 -64 94 -64t94 64h39q-4 -53 -40 -82.5t-93 -29.5zM351 885l88 133l61 -30l-107 -103h-42z" />
    <glyph glyph-name="uni1EAF" unicode="&#x1eaf;" horiz-adv-x="574" 
d="M248 -12q-78 0 -137.5 42.5t-59.5 117.5v2q0 79 61 122.5t162 43.5q86 0 169 -22v22q0 77 -44 116.5t-124 39.5t-160 -41l-18 43q91 44 181 44q105 0 161 -56q52 -52 52 -144v-318h-48v85q-71 -97 -195 -97zM251 34q80 0 136.5 44.5t56.5 112.5v58q-90 23 -173 23
q-80 0 -124 -32t-44 -87v-2q0 -53 43.5 -85t104.5 -32zM306 593q-57 0 -93 29.5t-40 82.5h39q21 -64 94 -64t94 64h39q-4 -53 -40 -82.5t-93 -29.5zM262 705l88 133l61 -30l-107 -103h-42z" />
    <glyph glyph-name="uni1EB0" unicode="&#x1eb0;" horiz-adv-x="790" 
d="M44 0l326 705h50l326 -705h-57l-89 196h-413l-89 -196h-54zM209 243h369l-184 405zM395 773q-57 0 -93 29.5t-40 82.5h39q21 -64 94 -64t94 64h39q-4 -53 -40 -82.5t-93 -29.5zM396 885l-107 103l61 30l88 -133h-42z" />
    <glyph glyph-name="uni1EB1" unicode="&#x1eb1;" horiz-adv-x="574" 
d="M248 -12q-78 0 -137.5 42.5t-59.5 117.5v2q0 79 61 122.5t162 43.5q86 0 169 -22v22q0 77 -44 116.5t-124 39.5t-160 -41l-18 43q91 44 181 44q105 0 161 -56q52 -52 52 -144v-318h-48v85q-71 -97 -195 -97zM251 34q80 0 136.5 44.5t56.5 112.5v58q-90 23 -173 23
q-80 0 -124 -32t-44 -87v-2q0 -53 43.5 -85t104.5 -32zM306 593q-57 0 -93 29.5t-40 82.5h39q21 -64 94 -64t94 64h39q-4 -53 -40 -82.5t-93 -29.5zM307 705l-107 103l61 30l88 -133h-42z" />
    <glyph glyph-name="uni1EB2" unicode="&#x1eb2;" horiz-adv-x="790" 
d="M44 0l326 705h50l326 -705h-57l-89 196h-413l-89 -196h-54zM209 243h369l-184 405zM395 773q-57 0 -93 29.5t-40 82.5h39q21 -64 94 -64t94 64h39q-4 -53 -40 -82.5t-93 -29.5zM385 884l-3 69q27 2 43 14t16 29q0 13 -10 22.5t-28 9.5q-28 0 -53 -40l-6.5 4.5t-7.5 4.5
q-5 1 -19 11q36 60 86 60q35 0 57 -20.5t22 -51.5q0 -29 -18.5 -48t-45.5 -26q0 -12 -2 -38h-31z" />
    <glyph glyph-name="uni1EB3" unicode="&#x1eb3;" horiz-adv-x="574" 
d="M248 -12q-78 0 -137.5 42.5t-59.5 117.5v2q0 79 61 122.5t162 43.5q86 0 169 -22v22q0 77 -44 116.5t-124 39.5t-160 -41l-18 43q91 44 181 44q105 0 161 -56q52 -52 52 -144v-318h-48v85q-71 -97 -195 -97zM251 34q80 0 136.5 44.5t56.5 112.5v58q-90 23 -173 23
q-80 0 -124 -32t-44 -87v-2q0 -53 43.5 -85t104.5 -32zM306 593q-57 0 -93 29.5t-40 82.5h39q21 -64 94 -64t94 64h39q-4 -53 -40 -82.5t-93 -29.5zM296 704l-3 69q27 2 43 14t16 29q0 13 -10 22.5t-28 9.5q-28 0 -53 -40q-4 2 -7.5 4.5l-6.5 4.5q-5 1 -19 11q36 60 86 60
q35 0 57 -20.5t22 -51.5q0 -29 -18.5 -48t-45.5 -26q0 -12 -2 -38h-31z" />
    <glyph glyph-name="uni1EB4" unicode="&#x1eb4;" horiz-adv-x="790" 
d="M44 0l326 705h50l326 -705h-57l-89 196h-413l-89 -196h-54zM209 243h369l-184 405zM395 773q-57 0 -93 29.5t-40 82.5h39q21 -64 94 -64t94 64h39q-4 -53 -40 -82.5t-93 -29.5zM295 921l-34 9q24 95 76 95q18 0 59.5 -21t55.5 -21q17 0 26.5 10t19.5 38l34 -9
q-13 -49 -31 -71t-45 -22q-18 0 -59.5 20t-55.5 20q-17 0 -26.5 -10t-19.5 -38z" />
    <glyph glyph-name="uni1EB5" unicode="&#x1eb5;" horiz-adv-x="574" 
d="M248 -12q-78 0 -137.5 42.5t-59.5 117.5v2q0 79 61 122.5t162 43.5q86 0 169 -22v22q0 77 -44 116.5t-124 39.5t-160 -41l-18 43q91 44 181 44q105 0 161 -56q52 -52 52 -144v-318h-48v85q-71 -97 -195 -97zM251 34q80 0 136.5 44.5t56.5 112.5v58q-90 23 -173 23
q-80 0 -124 -32t-44 -87v-2q0 -53 43.5 -85t104.5 -32zM306 593q-57 0 -93 29.5t-40 82.5h39q21 -64 94 -64t94 64h39q-4 -53 -40 -82.5t-93 -29.5zM206 741l-34 9q24 95 76 95q18 0 59.5 -21t55.5 -21q17 0 26.5 10t19.5 38l34 -9q-13 -49 -31 -71t-45 -22q-18 0 -59.5 20
t-55.5 20q-17 0 -26.5 -10t-19.5 -38z" />
    <glyph glyph-name="uni1EB6" unicode="&#x1eb6;" horiz-adv-x="790" 
d="M44 0l326 705h50l326 -705h-57l-89 196h-413l-89 -196h-54zM209 243h369l-184 405zM395 773q-57 0 -93 29.5t-40 82.5h39q21 -64 94 -64t94 64h39q-4 -53 -40 -82.5t-93 -29.5zM367 -178v94h51v-94h-51z" />
    <glyph glyph-name="uni1EB7" unicode="&#x1eb7;" horiz-adv-x="574" 
d="M248 -12q-78 0 -137.5 42.5t-59.5 117.5v2q0 79 61 122.5t162 43.5q86 0 169 -22v22q0 77 -44 116.5t-124 39.5t-160 -41l-18 43q91 44 181 44q105 0 161 -56q52 -52 52 -144v-318h-48v85q-71 -97 -195 -97zM251 34q80 0 136.5 44.5t56.5 112.5v58q-90 23 -173 23
q-80 0 -124 -32t-44 -87v-2q0 -53 43.5 -85t104.5 -32zM306 593q-57 0 -93 29.5t-40 82.5h39q21 -64 94 -64t94 64h39q-4 -53 -40 -82.5t-93 -29.5zM250 -178v94h51v-94h-51z" />
    <glyph glyph-name="uni1EB8" unicode="&#x1eb8;" horiz-adv-x="670" 
d="M326 -178v94h51v-94h-51zM104 0v700h498v-48h-446v-275h401v-48h-401v-281h451v-48h-503z" />
    <glyph glyph-name="uni1EB9" unicode="&#x1eb9;" horiz-adv-x="584" 
d="M277 -178v94h51v-94h-51zM308 -12q-103 0 -176.5 74.5t-73.5 191.5v2q0 111 69.5 188.5t172.5 77.5q105 0 169.5 -76t64.5 -191q0 -12 -1 -20h-423q6 -92 64 -146.5t136 -54.5q99 0 175 80l34 -30q-89 -96 -211 -96zM110 279h371q-7 84 -53.5 141t-129.5 57
q-75 0 -128.5 -56.5t-59.5 -141.5z" />
    <glyph glyph-name="uni1EBA" unicode="&#x1eba;" horiz-adv-x="670" 
d="M344 764l-3 73q28 2 45.5 15t17.5 30q0 15 -11 25t-30 10q-28 0 -56 -43q-5 2 -8.5 5t-6.5 4l-20 12q40 64 91 64q38 0 61 -22t23 -55q0 -57 -68 -78q0 -10 -2 -40h-33zM104 0v700h498v-48h-446v-275h401v-48h-401v-281h451v-48h-503z" />
    <glyph glyph-name="uni1EBB" unicode="&#x1ebb;" horiz-adv-x="584" 
d="M308 -12q-103 0 -176.5 74.5t-73.5 191.5v2q0 111 69.5 188.5t172.5 77.5q105 0 169.5 -76t64.5 -191q0 -12 -1 -20h-423q6 -92 64 -146.5t136 -54.5q99 0 175 80l34 -30q-89 -96 -211 -96zM110 279h371q-7 84 -53.5 141t-129.5 57q-75 0 -128.5 -56.5t-59.5 -141.5z
M287 595l-3 73q28 2 45.5 15t17.5 30q0 15 -11 25t-30 10q-28 0 -56 -43q-4 2 -8 4.5l-7 4.5q-1 1 -5 3t-8 4.5l-7 4.5q40 64 91 64q38 0 61 -22t23 -55q0 -57 -68 -78q0 -10 -2 -40h-33z" />
    <glyph glyph-name="uni1EBC" unicode="&#x1ebc;" horiz-adv-x="670" 
d="M226 766l-37 10q14 48 33 68t49 20q20 0 65.5 -19t60.5 -19q18 0 28.5 9.5t21.5 36.5l37 -10q-14 -47 -33 -67t-49 -20q-20 0 -65.5 19t-60.5 19q-18 0 -28.5 -10t-21.5 -37zM104 0v700h498v-48h-446v-275h401v-48h-401v-281h451v-48h-503z" />
    <glyph glyph-name="uni1EBD" unicode="&#x1ebd;" horiz-adv-x="584" 
d="M308 -12q-103 0 -176.5 74.5t-73.5 191.5v2q0 111 69.5 188.5t172.5 77.5q105 0 169.5 -76t64.5 -191q0 -12 -1 -20h-423q6 -92 64 -146.5t136 -54.5q99 0 175 80l34 -30q-89 -96 -211 -96zM110 279h371q-7 84 -53.5 141t-129.5 57q-75 0 -128.5 -56.5t-59.5 -141.5z
M191 586l-34 9q14 52 33.5 72.5t50.5 20.5q19 0 65 -20.5t63 -20.5q18 0 28.5 10.5t21.5 39.5l34 -9q-14 -52 -33.5 -72.5t-50.5 -20.5q-19 0 -65 20.5t-63 20.5q-18 0 -28.5 -10.5t-21.5 -39.5z" />
    <glyph glyph-name="uni1EBE" unicode="&#x1ebe;" horiz-adv-x="670" 
d="M104 0v700h498v-48h-446v-275h401v-48h-401v-281h451v-48h-503zM234 765l100 122h40l100 -122h-47l-74 68l-74 -68h-45zM439 859l88 133l61 -30l-107 -103h-42z" />
    <glyph glyph-name="uni1EBF" unicode="&#x1ebf;" horiz-adv-x="584" 
d="M308 -12q-103 0 -176.5 74.5t-73.5 191.5v2q0 111 69.5 188.5t172.5 77.5q105 0 169.5 -76t64.5 -191q0 -12 -1 -20h-423q6 -92 64 -146.5t136 -54.5q99 0 175 80l34 -30q-89 -96 -211 -96zM110 279h371q-7 84 -53.5 141t-129.5 57q-75 0 -128.5 -56.5t-59.5 -141.5z
M180 595l100 122h40l100 -122h-47l-74 68l-74 -68h-45zM385 690l88 133l61 -30l-107 -103h-42z" />
    <glyph glyph-name="uni1EC0" unicode="&#x1ec0;" horiz-adv-x="670" 
d="M104 0v700h498v-48h-446v-275h401v-48h-401v-281h451v-48h-503zM234 765l100 122h40l100 -122h-47l-74 68l-74 -68h-45zM476 859l-107 103l61 30l88 -133h-42z" />
    <glyph glyph-name="uni1EC1" unicode="&#x1ec1;" horiz-adv-x="584" 
d="M308 -12q-103 0 -176.5 74.5t-73.5 191.5v2q0 111 69.5 188.5t172.5 77.5q105 0 169.5 -76t64.5 -191q0 -12 -1 -20h-423q6 -92 64 -146.5t136 -54.5q99 0 175 80l34 -30q-89 -96 -211 -96zM110 279h371q-7 84 -53.5 141t-129.5 57q-75 0 -128.5 -56.5t-59.5 -141.5z
M180 595l100 122h40l100 -122h-47l-74 68l-74 -68h-45zM422 689l-107 103l61 30l88 -133h-42z" />
    <glyph glyph-name="uni1EC2" unicode="&#x1ec2;" horiz-adv-x="670" 
d="M104 0v700h498v-48h-446v-275h401v-48h-401v-281h451v-48h-503zM234 765l100 122h40l100 -122h-47l-74 68l-74 -68h-45zM457 842l-3 73q28 2 45.5 15t17.5 30q0 15 -11 25t-30 10q-28 0 -56 -43q-5 2 -8.5 5t-6.5 4q-1 1 -5 3t-8 4.5l-7 4.5q40 64 91 64q38 0 61 -22
t23 -55q0 -57 -68 -78q0 -10 -2 -40h-33z" />
    <glyph glyph-name="uni1EC3" unicode="&#x1ec3;" horiz-adv-x="584" 
d="M308 -12q-103 0 -176.5 74.5t-73.5 191.5v2q0 111 69.5 188.5t172.5 77.5q105 0 169.5 -76t64.5 -191q0 -12 -1 -20h-423q6 -92 64 -146.5t136 -54.5q99 0 175 80l34 -30q-89 -96 -211 -96zM110 279h371q-7 84 -53.5 141t-129.5 57q-75 0 -128.5 -56.5t-59.5 -141.5z
M180 595l100 122h40l100 -122h-47l-74 68l-74 -68h-45zM403 672l-3 73q28 2 45.5 15t17.5 30q0 15 -11 25t-30 10q-28 0 -56 -43q-5 2 -8.5 5t-6.5 4l-20 12q40 64 91 64q38 0 61 -22t23 -55q0 -57 -68 -78q0 -10 -2 -40h-33z" />
    <glyph glyph-name="uni1EC4" unicode="&#x1ec4;" horiz-adv-x="670" 
d="M104 0v700h498v-48h-446v-275h401v-48h-401v-281h451v-48h-503zM234 765l100 122h40l100 -122h-47l-74 68l-74 -68h-45zM260 915l-33 10q13 45 30 65t42 20q18 0 58 -18.5t54 -18.5q15 0 24.5 10t18.5 35l33 -10q-12 -45 -28.5 -64.5t-43.5 -19.5q-17 0 -57 18.5
t-54 18.5q-15 0 -24.5 -10t-19.5 -36z" />
    <glyph glyph-name="uni1EC5" unicode="&#x1ec5;" horiz-adv-x="584" 
d="M308 -12q-103 0 -176.5 74.5t-73.5 191.5v2q0 111 69.5 188.5t172.5 77.5q105 0 169.5 -76t64.5 -191q0 -12 -1 -20h-423q6 -92 64 -146.5t136 -54.5q99 0 175 80l34 -30q-89 -96 -211 -96zM110 279h371q-7 84 -53.5 141t-129.5 57q-75 0 -128.5 -56.5t-59.5 -141.5z
M180 595l100 122h40l100 -122h-47l-74 68l-74 -68h-45zM206 746l-33 10q13 45 30 65t42 20q18 0 58 -18.5t54 -18.5q15 0 24.5 10t18.5 35l33 -10q-12 -45 -28.5 -64.5t-43.5 -19.5q-17 0 -57 18.5t-54 18.5q-15 0 -24.5 -10t-19.5 -36z" />
    <glyph glyph-name="uni1EC6" unicode="&#x1ec6;" horiz-adv-x="670" 
d="M104 0v700h498v-48h-446v-275h401v-48h-401v-281h451v-48h-503zM234 765l100 122h40l100 -122h-47l-74 68l-74 -68h-45zM326 -178v94h51v-94h-51z" />
    <glyph glyph-name="uni1EC7" unicode="&#x1ec7;" horiz-adv-x="584" 
d="M308 -12q-103 0 -176.5 74.5t-73.5 191.5v2q0 111 69.5 188.5t172.5 77.5q105 0 169.5 -76t64.5 -191q0 -12 -1 -20h-423q6 -92 64 -146.5t136 -54.5q99 0 175 80l34 -30q-89 -96 -211 -96zM110 279h371q-7 84 -53.5 141t-129.5 57q-75 0 -128.5 -56.5t-59.5 -141.5z
M180 595l100 122h40l100 -122h-47l-74 68l-74 -68h-45zM277 -178v94h51v-94h-51z" />
    <glyph glyph-name="uni1EC8" unicode="&#x1ec8;" horiz-adv-x="274" 
d="M121 764l-3 73q28 2 45.5 15t17.5 30q0 15 -11 25t-30 10q-28 0 -56 -43q-5 2 -8.5 5t-6.5 4q-1 1 -5 3t-8 4.5l-7 4.5q40 64 91 64q38 0 61 -22t23 -55q0 -57 -68 -78q0 -10 -2 -40h-33zM111 0v700h52v-700h-52z" />
    <glyph glyph-name="uni1EC9" unicode="&#x1ec9;" horiz-adv-x="249" 
d="M100 0v510h49v-510h-49zM108 595l-3 73q28 2 45.5 15t17.5 30q0 15 -11 25t-30 10q-28 0 -56 -43q-4 2 -8 4.5l-7 4.5q-1 1 -5 3t-8 4.5l-7 4.5q40 64 91 64q38 0 61 -22t23 -55q0 -57 -68 -78q0 -10 -2 -40h-33z" />
    <glyph glyph-name="uni1ECA" unicode="&#x1eca;" horiz-adv-x="274" 
d="M113 -178v94h51v-94h-51zM111 0v700h52v-700h-52z" />
    <glyph glyph-name="uni1ECB" unicode="&#x1ecb;" horiz-adv-x="249" 
d="M101 -178v94h51v-94h-51zM94 643v67h61v-67h-61zM100 0v510h49v-510h-49z" />
    <glyph glyph-name="uni1ECC" unicode="&#x1ecc;" horiz-adv-x="850" 
d="M399 -178v94h51v-94h-51zM424 -12q-155 0 -253 106t-98 254v2q0 149 99 255.5t254 106.5t253 -106t98 -254v-2q0 -149 -99 -255.5t-254 -106.5zM426 35q128 0 212.5 91t84.5 222v2q0 131 -85.5 223t-213.5 92t-212.5 -91t-84.5 -222v-2q0 -131 85.5 -223t213.5 -92z" />
    <glyph glyph-name="uni1ECD" unicode="&#x1ecd;" horiz-adv-x="640" 
d="M295 -178v94h51v-94h-51zM319 -12q-112 0 -186.5 78t-74.5 187v2q0 109 75.5 188t187.5 79t186.5 -78t74.5 -187v-2q0 -109 -75.5 -188t-187.5 -79zM321 34q90 0 149 64t59 155v2q0 93 -61 157t-149 64q-90 0 -149 -64t-59 -155v-2q0 -93 61 -157t149 -64z" />
    <glyph glyph-name="uni1ECE" unicode="&#x1ece;" horiz-adv-x="850" 
d="M424 -12q-155 0 -253 106t-98 254v2q0 149 99 255.5t254 106.5t253 -106t98 -254v-2q0 -149 -99 -255.5t-254 -106.5zM426 35q128 0 212.5 91t84.5 222v2q0 131 -85.5 223t-213.5 92t-212.5 -91t-84.5 -222v-2q0 -131 85.5 -223t213.5 -92zM409 775l-3 73q28 2 45.5 15
t17.5 30q0 15 -11 25t-30 10q-28 0 -56 -43q-5 2 -8.5 4.5l-6.5 4.5l-20 12q40 64 91 64q38 0 61 -22t23 -55q0 -57 -68 -78q0 -10 -2 -40h-33z" />
    <glyph glyph-name="uni1ECF" unicode="&#x1ecf;" horiz-adv-x="640" 
d="M319 -12q-112 0 -186.5 78t-74.5 187v2q0 109 75.5 188t187.5 79t186.5 -78t74.5 -187v-2q0 -109 -75.5 -188t-187.5 -79zM321 34q90 0 149 64t59 155v2q0 93 -61 157t-149 64q-90 0 -149 -64t-59 -155v-2q0 -93 61 -157t149 -64zM305 595l-3 73q28 2 45.5 15t17.5 30
q0 15 -11 25t-30 10q-28 0 -56 -43q-4 2 -8 4.5l-7 4.5q-1 1 -5 3t-8 4.5l-7 4.5q40 64 91 64q38 0 61 -22t23 -55q0 -57 -68 -78q0 -10 -2 -40h-33z" />
    <glyph glyph-name="uni1ED0" unicode="&#x1ed0;" horiz-adv-x="850" 
d="M424 -12q-155 0 -253 106t-98 254v2q0 149 99 255.5t254 106.5t253 -106t98 -254v-2q0 -149 -99 -255.5t-254 -106.5zM426 35q128 0 212.5 91t84.5 222v2q0 131 -85.5 223t-213.5 92t-212.5 -91t-84.5 -222v-2q0 -131 85.5 -223t213.5 -92zM305 774l100 122h40l100 -122
h-47l-74 68l-74 -68h-45zM510 869l88 133l61 -30l-107 -103h-42z" />
    <glyph glyph-name="uni1ED1" unicode="&#x1ed1;" horiz-adv-x="640" 
d="M319 -12q-112 0 -186.5 78t-74.5 187v2q0 109 75.5 188t187.5 79t186.5 -78t74.5 -187v-2q0 -109 -75.5 -188t-187.5 -79zM321 34q90 0 149 64t59 155v2q0 93 -61 157t-149 64q-90 0 -149 -64t-59 -155v-2q0 -93 61 -157t149 -64zM200 595l100 122h40l100 -122h-47
l-74 68l-74 -68h-45zM405 690l88 133l61 -30l-107 -103h-42z" />
    <glyph glyph-name="uni1ED2" unicode="&#x1ed2;" horiz-adv-x="850" 
d="M424 -12q-155 0 -253 106t-98 254v2q0 149 99 255.5t254 106.5t253 -106t98 -254v-2q0 -149 -99 -255.5t-254 -106.5zM426 35q128 0 212.5 91t84.5 222v2q0 131 -85.5 223t-213.5 92t-212.5 -91t-84.5 -222v-2q0 -131 85.5 -223t213.5 -92zM305 774l100 122h40l100 -122
h-47l-74 68l-74 -68h-45zM547 868l-107 103l61 30l88 -133h-42z" />
    <glyph glyph-name="uni1ED3" unicode="&#x1ed3;" horiz-adv-x="640" 
d="M319 -12q-112 0 -186.5 78t-74.5 187v2q0 109 75.5 188t187.5 79t186.5 -78t74.5 -187v-2q0 -109 -75.5 -188t-187.5 -79zM321 34q90 0 149 64t59 155v2q0 93 -61 157t-149 64q-90 0 -149 -64t-59 -155v-2q0 -93 61 -157t149 -64zM200 595l100 122h40l100 -122h-47
l-74 68l-74 -68h-45zM442 689l-107 103l61 30l88 -133h-42z" />
    <glyph glyph-name="uni1ED4" unicode="&#x1ed4;" horiz-adv-x="850" 
d="M424 -12q-155 0 -253 106t-98 254v2q0 149 99 255.5t254 106.5t253 -106t98 -254v-2q0 -149 -99 -255.5t-254 -106.5zM426 35q128 0 212.5 91t84.5 222v2q0 131 -85.5 223t-213.5 92t-212.5 -91t-84.5 -222v-2q0 -131 85.5 -223t213.5 -92zM305 774l100 122h40l100 -122
h-47l-74 68l-74 -68h-45zM528 851l-3 73q28 2 45.5 15t17.5 30q0 15 -11 25t-30 10q-28 0 -56 -43q-5 2 -8.5 4.5l-6.5 4.5l-20 12q40 64 91 64q38 0 61 -22t23 -55q0 -57 -68 -78q0 -10 -2 -40h-33z" />
    <glyph glyph-name="uni1ED5" unicode="&#x1ed5;" horiz-adv-x="640" 
d="M319 -12q-112 0 -186.5 78t-74.5 187v2q0 109 75.5 188t187.5 79t186.5 -78t74.5 -187v-2q0 -109 -75.5 -188t-187.5 -79zM321 34q90 0 149 64t59 155v2q0 93 -61 157t-149 64q-90 0 -149 -64t-59 -155v-2q0 -93 61 -157t149 -64zM200 595l100 122h40l100 -122h-47
l-74 68l-74 -68h-45zM423 672l-3 73q28 2 45.5 15t17.5 30q0 15 -11 25t-30 10q-28 0 -56 -43q-4 2 -8 5t-7 4l-20 12q40 64 91 64q38 0 61 -22t23 -55q0 -57 -68 -78q0 -10 -2 -40h-33z" />
    <glyph glyph-name="uni1ED6" unicode="&#x1ed6;" horiz-adv-x="850" 
d="M424 -12q-155 0 -253 106t-98 254v2q0 149 99 255.5t254 106.5t253 -106t98 -254v-2q0 -149 -99 -255.5t-254 -106.5zM426 35q128 0 212.5 91t84.5 222v2q0 131 -85.5 223t-213.5 92t-212.5 -91t-84.5 -222v-2q0 -131 85.5 -223t213.5 -92zM305 774l100 122h40l100 -122
h-47l-74 68l-74 -68h-45zM331 925l-33 10q13 45 30 65t42 20q18 0 58 -18.5t54 -18.5q15 0 24.5 10t18.5 35l33 -10q-12 -45 -28.5 -64.5t-43.5 -19.5q-16 0 -57 18.5t-54 18.5q-15 0 -24.5 -10t-19.5 -36z" />
    <glyph glyph-name="uni1ED7" unicode="&#x1ed7;" horiz-adv-x="640" 
d="M319 -12q-112 0 -186.5 78t-74.5 187v2q0 109 75.5 188t187.5 79t186.5 -78t74.5 -187v-2q0 -109 -75.5 -188t-187.5 -79zM321 34q90 0 149 64t59 155v2q0 93 -61 157t-149 64q-90 0 -149 -64t-59 -155v-2q0 -93 61 -157t149 -64zM200 595l100 122h40l100 -122h-47
l-74 68l-74 -68h-45zM226 746l-33 10q13 45 30 65t42 20q18 0 58 -18.5t54 -18.5q15 0 24.5 10t18.5 35l33 -10q-12 -45 -28.5 -64.5t-43.5 -19.5q-17 0 -57 18.5t-54 18.5q-15 0 -24.5 -10t-19.5 -36z" />
    <glyph glyph-name="uni1ED8" unicode="&#x1ed8;" horiz-adv-x="850" 
d="M424 -12q-155 0 -253 106t-98 254v2q0 149 99 255.5t254 106.5t253 -106t98 -254v-2q0 -149 -99 -255.5t-254 -106.5zM426 35q128 0 212.5 91t84.5 222v2q0 131 -85.5 223t-213.5 92t-212.5 -91t-84.5 -222v-2q0 -131 85.5 -223t213.5 -92zM305 774l100 122h40l100 -122
h-47l-74 68l-74 -68h-45zM399 -178v94h51v-94h-51z" />
    <glyph glyph-name="uni1ED9" unicode="&#x1ed9;" horiz-adv-x="640" 
d="M319 -12q-112 0 -186.5 78t-74.5 187v2q0 109 75.5 188t187.5 79t186.5 -78t74.5 -187v-2q0 -109 -75.5 -188t-187.5 -79zM321 34q90 0 149 64t59 155v2q0 93 -61 157t-149 64q-90 0 -149 -64t-59 -155v-2q0 -93 61 -157t149 -64zM200 595l100 122h40l100 -122h-47
l-74 68l-74 -68h-45zM295 -178v94h51v-94h-51z" />
    <glyph glyph-name="uni1EDA" unicode="&#x1eda;" horiz-adv-x="850" 
d="M424 -12q-155 0 -253 106t-98 254v2q0 149 99 255.5t254 106.5q105 0 193 -56q36 3 52 14.5t16 37.5q0 27 -12 53q-1 3 -5 10t-6 11h61q15 -39 15 -78q0 -68 -71 -88q108 -108 108 -264v-2q0 -149 -99 -255.5t-254 -106.5zM426 35q128 0 212.5 91t84.5 222v2
q0 131 -85.5 223t-213.5 92t-212.5 -91t-84.5 -222v-2q0 -131 85.5 -223t213.5 -92zM362 775l88 133l61 -30l-107 -103h-42z" />
    <glyph glyph-name="uni1EDB" unicode="&#x1edb;" horiz-adv-x="640" 
d="M319 -12q-112 0 -186.5 78t-74.5 187v2q0 109 75.5 188t187.5 79q80 0 146 -45q33 4 48.5 15.5t15.5 34.5q0 29 -12 51q-1 3 -4.5 10l-5.5 11h59q14 -39 14 -75q0 -67 -70 -86q70 -76 70 -181v-2q0 -109 -75.5 -188t-187.5 -79zM321 34q90 0 149 64t59 155v2
q0 110 -81 175q-57 46 -129 46q-90 0 -149 -64t-59 -155v-2q0 -93 61 -157t149 -64zM269 595l88 133l61 -30l-107 -103h-42z" />
    <glyph glyph-name="uni1EDC" unicode="&#x1edc;" horiz-adv-x="850" 
d="M424 -12q-155 0 -253 106t-98 254v2q0 149 99 255.5t254 106.5q105 0 193 -56q36 3 52 14.5t16 37.5q0 27 -12 53q-1 3 -5 10t-6 11h61q15 -39 15 -78q0 -68 -71 -88q108 -108 108 -264v-2q0 -149 -99 -255.5t-254 -106.5zM426 35q128 0 212.5 91t84.5 222v2
q0 131 -85.5 223t-213.5 92t-212.5 -91t-84.5 -222v-2q0 -131 85.5 -223t213.5 -92zM445 774l-107 103l61 30l88 -133h-42z" />
    <glyph glyph-name="uni1EDD" unicode="&#x1edd;" horiz-adv-x="640" 
d="M319 -12q-112 0 -186.5 78t-74.5 187v2q0 109 75.5 188t187.5 79q80 0 146 -45q33 4 48.5 15.5t15.5 34.5q0 29 -12 51q-1 3 -4.5 10l-5.5 11h59q14 -39 14 -75q0 -67 -70 -86q70 -76 70 -181v-2q0 -109 -75.5 -188t-187.5 -79zM321 34q90 0 149 64t59 155v2
q0 110 -81 175q-57 46 -129 46q-90 0 -149 -64t-59 -155v-2q0 -93 61 -157t149 -64zM333 595l-107 103l61 30l88 -133h-42z" />
    <glyph glyph-name="uni1EDE" unicode="&#x1ede;" horiz-adv-x="850" 
d="M424 -12q-155 0 -253 106t-98 254v2q0 149 99 255.5t254 106.5q105 0 193 -56q36 3 52 14.5t16 37.5q0 27 -12 53q-1 3 -5 10t-6 11h61q15 -39 15 -78q0 -68 -71 -88q108 -108 108 -264v-2q0 -149 -99 -255.5t-254 -106.5zM426 35q128 0 212.5 91t84.5 222v2
q0 131 -85.5 223t-213.5 92t-212.5 -91t-84.5 -222v-2q0 -131 85.5 -223t213.5 -92zM409 775l-3 73q28 2 45.5 15t17.5 30q0 15 -11 25t-30 10q-28 0 -56 -43q-5 2 -8.5 4.5l-6.5 4.5l-20 12q40 64 91 64q38 0 61 -22t23 -55q0 -57 -68 -78q0 -10 -2 -40h-33z" />
    <glyph glyph-name="uni1EDF" unicode="&#x1edf;" horiz-adv-x="640" 
d="M319 -12q-112 0 -186.5 78t-74.5 187v2q0 109 75.5 188t187.5 79q80 0 146 -45q33 4 48.5 15.5t15.5 34.5q0 29 -12 51q-1 3 -4.5 10l-5.5 11h59q14 -39 14 -75q0 -67 -70 -86q70 -76 70 -181v-2q0 -109 -75.5 -188t-187.5 -79zM321 34q90 0 149 64t59 155v2
q0 110 -81 175q-57 46 -129 46q-90 0 -149 -64t-59 -155v-2q0 -93 61 -157t149 -64zM305 595l-3 73q28 2 45.5 15t17.5 30q0 15 -11 25t-30 10q-28 0 -56 -43q-4 2 -8 4.5l-7 4.5q-1 1 -5 3t-8 4.5l-7 4.5q40 64 91 64q38 0 61 -22t23 -55q0 -57 -68 -78q0 -10 -2 -40h-33z
" />
    <glyph glyph-name="uni1EE0" unicode="&#x1ee0;" horiz-adv-x="850" 
d="M424 -12q-155 0 -253 106t-98 254v2q0 149 99 255.5t254 106.5q105 0 193 -56q36 3 52 14.5t16 37.5q0 27 -12 53q-1 3 -5 10t-6 11h61q15 -39 15 -78q0 -68 -71 -88q108 -108 108 -264v-2q0 -149 -99 -255.5t-254 -106.5zM426 35q128 0 212.5 91t84.5 222v2
q0 131 -85.5 223t-213.5 92t-212.5 -91t-84.5 -222v-2q0 -131 85.5 -223t213.5 -92zM317 766l-37 10q14 48 33 68t49 20q20 0 65.5 -19t60.5 -19q18 0 28.5 9.5t21.5 36.5l37 -10q-14 -47 -33 -67t-49 -20q-20 0 -65.5 19t-60.5 19q-18 0 -28.5 -10t-21.5 -37z" />
    <glyph glyph-name="uni1EE1" unicode="&#x1ee1;" horiz-adv-x="640" 
d="M319 -12q-112 0 -186.5 78t-74.5 187v2q0 109 75.5 188t187.5 79q80 0 146 -45q33 4 48.5 15.5t15.5 34.5q0 29 -12 51q-1 3 -4.5 10l-5.5 11h59q14 -39 14 -75q0 -67 -70 -86q70 -76 70 -181v-2q0 -109 -75.5 -188t-187.5 -79zM321 34q90 0 149 64t59 155v2
q0 110 -81 175q-57 46 -129 46q-90 0 -149 -64t-59 -155v-2q0 -93 61 -157t149 -64zM209 586l-34 9q14 52 33.5 72.5t50.5 20.5q19 0 65 -20.5t63 -20.5q18 0 28.5 10.5t21.5 39.5l34 -9q-14 -52 -33.5 -72.5t-50.5 -20.5q-19 0 -65 20.5t-63 20.5q-18 0 -28.5 -10.5
t-21.5 -39.5z" />
    <glyph glyph-name="uni1EE2" unicode="&#x1ee2;" horiz-adv-x="850" 
d="M424 -12q-155 0 -253 106t-98 254v2q0 149 99 255.5t254 106.5q105 0 193 -56q36 3 52 14.5t16 37.5q0 27 -12 53q-1 3 -5 10t-6 11h61q15 -39 15 -78q0 -68 -71 -88q108 -108 108 -264v-2q0 -149 -99 -255.5t-254 -106.5zM426 35q128 0 212.5 91t84.5 222v2
q0 131 -85.5 223t-213.5 92t-212.5 -91t-84.5 -222v-2q0 -131 85.5 -223t213.5 -92zM399 -178v94h51v-94h-51z" />
    <glyph glyph-name="uni1EE3" unicode="&#x1ee3;" horiz-adv-x="640" 
d="M319 -12q-112 0 -186.5 78t-74.5 187v2q0 109 75.5 188t187.5 79q80 0 146 -45q33 4 48.5 15.5t15.5 34.5q0 29 -12 51q-1 3 -4.5 10l-5.5 11h59q14 -39 14 -75q0 -67 -70 -86q70 -76 70 -181v-2q0 -109 -75.5 -188t-187.5 -79zM321 34q90 0 149 64t59 155v2
q0 110 -81 175q-57 46 -129 46q-90 0 -149 -64t-59 -155v-2q0 -93 61 -157t149 -64zM295 -178v94h51v-94h-51z" />
    <glyph glyph-name="uni1EE4" unicode="&#x1ee4;" horiz-adv-x="760" 
d="M356 -178v94h51v-94h-51zM380 -11q-129 0 -208 79t-79 223v409h52v-404q0 -125 62.5 -192.5t174.5 -67.5q108 0 170.5 65.5t62.5 189.5v409h52v-403q0 -147 -78 -227.5t-209 -80.5z" />
    <glyph glyph-name="uni1EE5" unicode="&#x1ee5;" horiz-adv-x="613" 
d="M267 -178v94h51v-94h-51zM287 -12q-95 0 -149.5 58t-54.5 152v312h49v-303q0 -80 42.5 -127t119.5 -47q76 0 126.5 51t50.5 131v295h49v-510h-49v95q-62 -107 -184 -107z" />
    <glyph glyph-name="uni1EE6" unicode="&#x1ee6;" horiz-adv-x="760" 
d="M372 764l-3 73q28 2 45.5 15t17.5 30q0 15 -11 25t-30 10q-28 0 -56 -43q-4 2 -8 5t-7 4l-20 12q40 64 91 64q38 0 61 -22t23 -55q0 -57 -68 -78q0 -10 -2 -40h-33zM380 -11q-129 0 -208 79t-79 223v409h52v-404q0 -125 62.5 -192.5t174.5 -67.5q108 0 170.5 65.5
t62.5 189.5v409h52v-403q0 -147 -78 -227.5t-209 -80.5z" />
    <glyph glyph-name="uni1EE7" unicode="&#x1ee7;" horiz-adv-x="613" 
d="M297 595l-3 73q28 2 45.5 15t17.5 30q0 15 -11 25t-30 10q-28 0 -56 -43q-4 2 -8 4.5l-7 4.5q-1 1 -5 3t-8 4.5l-7 4.5q40 64 91 64q38 0 61 -22t23 -55q0 -57 -68 -78q0 -10 -2 -40h-33zM287 -12q-95 0 -149.5 58t-54.5 152v312h49v-303q0 -80 42.5 -127t119.5 -47
q76 0 126.5 51t50.5 131v295h49v-510h-49v95q-62 -107 -184 -107z" />
    <glyph glyph-name="uni1EE8" unicode="&#x1ee8;" horiz-adv-x="808" 
d="M380 -11q-129 0 -208 79t-79 223v409h52v-404q0 -125 62.5 -192.5t174.5 -67.5q108 0 170.5 65.5t62.5 189.5v409h49q40 10 40 47q0 27 -12 53q-1 3 -5 10t-6 11h61q15 -39 15 -78q0 -75 -90 -92v-354q0 -147 -78 -227.5t-209 -80.5zM322 761l88 133l61 -30l-107 -103
h-42z" />
    <glyph glyph-name="uni1EE9" unicode="&#x1ee9;" horiz-adv-x="641" 
d="M287 -12q-95 0 -149.5 58t-54.5 152v312h49v-303q0 -80 42.5 -127t119.5 -47q76 0 126.5 51t50.5 131v295h42q47 9 47 47q0 29 -12 51q-1 3 -4.5 10l-5.5 11h59q14 -39 14 -75q0 -74 -91 -90v-464h-49v95q-62 -107 -184 -107zM256 595l88 133l61 -30l-107 -103h-42z" />
    <glyph glyph-name="uni1EEA" unicode="&#x1eea;" horiz-adv-x="808" 
d="M380 -11q-129 0 -208 79t-79 223v409h52v-404q0 -125 62.5 -192.5t174.5 -67.5q108 0 170.5 65.5t62.5 189.5v409h49q40 10 40 47q0 27 -12 53q-1 3 -5 10t-6 11h61q15 -39 15 -78q0 -75 -90 -92v-354q0 -147 -78 -227.5t-209 -80.5zM401 760l-107 103l61 30l88 -133h-42
z" />
    <glyph glyph-name="uni1EEB" unicode="&#x1eeb;" horiz-adv-x="641" 
d="M287 -12q-95 0 -149.5 58t-54.5 152v312h49v-303q0 -80 42.5 -127t119.5 -47q76 0 126.5 51t50.5 131v295h42q47 9 47 47q0 29 -12 51q-1 3 -4.5 10l-5.5 11h59q14 -39 14 -75q0 -74 -91 -90v-464h-49v95q-62 -107 -184 -107zM310 595l-107 103l61 30l88 -133h-42z" />
    <glyph glyph-name="uni1EEC" unicode="&#x1eec;" horiz-adv-x="808" 
d="M380 -11q-129 0 -208 79t-79 223v409h52v-404q0 -125 62.5 -192.5t174.5 -67.5q108 0 170.5 65.5t62.5 189.5v409h49q40 10 40 47q0 27 -12 53q-1 3 -5 10t-6 11h61q15 -39 15 -78q0 -75 -90 -92v-354q0 -147 -78 -227.5t-209 -80.5zM372 764l-3 73q28 2 45.5 15t17.5 30
q0 15 -11 25t-30 10q-28 0 -56 -43q-4 2 -8 5t-7 4l-20 12q40 64 91 64q38 0 61 -22t23 -55q0 -57 -68 -78q0 -10 -2 -40h-33z" />
    <glyph glyph-name="uni1EED" unicode="&#x1eed;" horiz-adv-x="641" 
d="M287 -12q-95 0 -149.5 58t-54.5 152v312h49v-303q0 -80 42.5 -127t119.5 -47q76 0 126.5 51t50.5 131v295h42q47 9 47 47q0 29 -12 51q-1 3 -4.5 10l-5.5 11h59q14 -39 14 -75q0 -74 -91 -90v-464h-49v95q-62 -107 -184 -107zM297 595l-3 73q28 2 45.5 15t17.5 30
q0 15 -11 25t-30 10q-28 0 -56 -43q-4 2 -8 4.5l-7 4.5q-1 1 -5 3t-8 4.5l-7 4.5q40 64 91 64q38 0 61 -22t23 -55q0 -57 -68 -78q0 -10 -2 -40h-33z" />
    <glyph glyph-name="uni1EEE" unicode="&#x1eee;" horiz-adv-x="808" 
d="M380 -11q-129 0 -208 79t-79 223v409h52v-404q0 -125 62.5 -192.5t174.5 -67.5q108 0 170.5 65.5t62.5 189.5v409h49q40 10 40 47q0 27 -12 53q-1 3 -5 10t-6 11h61q15 -39 15 -78q0 -75 -90 -92v-354q0 -147 -78 -227.5t-209 -80.5zM272 766l-37 10q14 48 33 68t49 20
q20 0 65.5 -19t60.5 -19q18 0 28.5 9.5t21.5 36.5l37 -10q-14 -47 -33 -67t-49 -20q-20 0 -65.5 19t-60.5 19q-18 0 -28.5 -10t-21.5 -37z" />
    <glyph glyph-name="uni1EEF" unicode="&#x1eef;" horiz-adv-x="641" 
d="M287 -12q-95 0 -149.5 58t-54.5 152v312h49v-303q0 -80 42.5 -127t119.5 -47q76 0 126.5 51t50.5 131v295h42q47 9 47 47q0 29 -12 51q-1 3 -4.5 10l-5.5 11h59q14 -39 14 -75q0 -74 -91 -90v-464h-49v95q-62 -107 -184 -107zM192 586l-34 9q14 52 33.5 72.5t50.5 20.5
q19 0 65 -20.5t63 -20.5q18 0 28.5 10.5t21.5 39.5l34 -9q-14 -52 -33.5 -72.5t-50.5 -20.5q-19 0 -65 20.5t-63 20.5q-18 0 -28.5 -10.5t-21.5 -39.5z" />
    <glyph glyph-name="uni1EF0" unicode="&#x1ef0;" horiz-adv-x="808" 
d="M380 -11q-129 0 -208 79t-79 223v409h52v-404q0 -125 62.5 -192.5t174.5 -67.5q108 0 170.5 65.5t62.5 189.5v409h49q40 10 40 47q0 27 -12 53q-1 3 -5 10t-6 11h61q15 -39 15 -78q0 -75 -90 -92v-354q0 -147 -78 -227.5t-209 -80.5zM356 -178v94h51v-94h-51z" />
    <glyph glyph-name="uni1EF1" unicode="&#x1ef1;" horiz-adv-x="641" 
d="M287 -12q-95 0 -149.5 58t-54.5 152v312h49v-303q0 -80 42.5 -127t119.5 -47q76 0 126.5 51t50.5 131v295h42q47 9 47 47q0 29 -12 51q-1 3 -4.5 10l-5.5 11h59q14 -39 14 -75q0 -74 -91 -90v-464h-49v95q-62 -107 -184 -107zM267 -178v94h51v-94h-51z" />
    <glyph glyph-name="Ygrave" unicode="&#x1ef2;" horiz-adv-x="716" 
d="M332 0v277l-300 423h65l262 -376l263 376h62l-300 -422v-278h-52zM374 760l-107 103l61 30l88 -133h-42z" />
    <glyph glyph-name="ygrave" unicode="&#x1ef3;" horiz-adv-x="588" 
d="M155 -163q-50 0 -101 22l17 43q39 -19 87 -19q41 0 69.5 27t56.5 93l-245 507h57l212 -456l184 456h54l-221 -528q-33 -78 -73.5 -111.5t-96.5 -33.5zM318 595l-107 103l61 30l88 -133h-42z" />
    <glyph glyph-name="uni1EF4" unicode="&#x1ef4;" horiz-adv-x="716" 
d="M334 -178v94h51v-94h-51zM332 0v277l-300 423h65l262 -376l263 376h62l-300 -422v-278h-52z" />
    <glyph glyph-name="uni1EF5" unicode="&#x1ef5;" horiz-adv-x="588" 
d="M342 -178v94h51v-94h-51zM155 -163q-50 0 -101 22l17 43q39 -19 87 -19q41 0 69.5 27t56.5 93l-245 507h57l212 -456l184 456h54l-221 -528q-33 -78 -73.5 -111.5t-96.5 -33.5z" />
    <glyph glyph-name="uni1EF6" unicode="&#x1ef6;" horiz-adv-x="716" 
d="M344 764l-3 73q28 2 45.5 15t17.5 30q0 15 -11 25t-30 10q-28 0 -56 -43q-5 2 -8.5 5t-6.5 4l-20 12q40 64 91 64q38 0 61 -22t23 -55q0 -57 -68 -78q0 -10 -2 -40h-33zM332 0v277l-300 423h65l262 -376l263 376h62l-300 -422v-278h-52z" />
    <glyph glyph-name="uni1EF7" unicode="&#x1ef7;" horiz-adv-x="588" 
d="M294 595l-3 73q28 2 45.5 15t17.5 30q0 15 -11 25t-30 10q-28 0 -56 -43q-4 2 -8 4.5l-7 4.5q-1 1 -5 3t-8 4.5l-7 4.5q40 64 91 64q38 0 61 -22t23 -55q0 -57 -68 -78q0 -10 -2 -40h-33zM155 -163q-50 0 -101 22l17 43q39 -19 87 -19q41 0 69.5 27t56.5 93l-245 507h57
l212 -456l184 456h54l-221 -528q-33 -78 -73.5 -111.5t-96.5 -33.5z" />
    <glyph glyph-name="uni1EF8" unicode="&#x1ef8;" horiz-adv-x="716" 
d="M332 0v277l-300 423h65l262 -376l263 376h62l-300 -422v-278h-52zM244 776l-34 9q14 52 33.5 72.5t50.5 20.5q19 0 65 -20.5t63 -20.5q18 0 28.5 10.5t21.5 39.5l34 -9q-14 -52 -33.5 -72.5t-50.5 -20.5q-19 0 -65 20.5t-63 20.5q-18 0 -28.5 -10.5t-21.5 -39.5z" />
    <glyph glyph-name="uni1EF9" unicode="&#x1ef9;" horiz-adv-x="588" 
d="M155 -163q-50 0 -101 22l17 43q39 -19 87 -19q41 0 69.5 27t56.5 93l-245 507h57l212 -456l184 456h54l-221 -528q-33 -78 -73.5 -111.5t-96.5 -33.5zM194 586l-34 9q14 52 33.5 72.5t50.5 20.5q19 0 65 -20.5t63 -20.5q18 0 28.5 10.5t21.5 39.5l34 -9
q-14 -52 -33.5 -72.5t-50.5 -20.5q-19 0 -65 20.5t-63 20.5q-18 0 -28.5 -10.5t-21.5 -39.5z" />
    <glyph glyph-name="enspace" unicode="&#x2002;" 
 />
    <glyph glyph-name="emspace" unicode="&#x2003;" horiz-adv-x="1000" 
 />
    <glyph glyph-name="threeperemspace" unicode="&#x2004;" horiz-adv-x="333" 
 />
    <glyph glyph-name="fourperemspace" unicode="&#x2005;" horiz-adv-x="250" 
 />
    <glyph glyph-name="thinspace" unicode="&#x2009;" horiz-adv-x="133" 
 />
    <glyph glyph-name="hairspace" unicode="&#x200a;" horiz-adv-x="75" 
 />
    <glyph glyph-name="endash" unicode="&#x2013;" horiz-adv-x="528" 
d="M70 271v52h388v-52h-388z" />
    <glyph glyph-name="emdash" unicode="&#x2014;" horiz-adv-x="898" 
d="M70 271v52h758v-52h-758z" />
    <glyph glyph-name="quoteleft" unicode="&#x2018;" horiz-adv-x="230" 
d="M77 513v74q0 47 19 74t64 44l12 -25q-33 -18 -45.5 -35.5t-10.5 -46.5h27v-85h-66z" />
    <glyph glyph-name="quoteright" unicode="&#x2019;" horiz-adv-x="230" 
d="M70 508l-12 25q33 18 45.5 35.5t10.5 46.5h-27v85h66v-74q0 -47 -19 -74t-64 -44z" />
    <glyph glyph-name="quotesinglbase" unicode="&#x201a;" horiz-adv-x="230" 
d="M65 -107l-12 25q33 18 45.5 35.5t10.5 46.5h-27v85h66v-74q0 -47 -19 -74t-64 -44z" />
    <glyph glyph-name="quotedblleft" unicode="&#x201c;" horiz-adv-x="410" 
d="M257 513v74q0 47 19 74t64 44l12 -25q-33 -18 -45.5 -35.5t-10.5 -46.5h27v-85h-66zM77 513v74q0 47 19 74t64 44l12 -25q-33 -18 -45.5 -35.5t-10.5 -46.5h27v-85h-66z" />
    <glyph glyph-name="quotedblright" unicode="&#x201d;" horiz-adv-x="410" 
d="M250 508l-12 25q33 18 45.5 35.5t10.5 46.5h-27v85h66v-74q0 -47 -19 -74t-64 -44zM70 508l-12 25q33 18 45.5 35.5t10.5 46.5h-27v85h66v-74q0 -47 -19 -74t-64 -44z" />
    <glyph glyph-name="quotedblbase" unicode="&#x201e;" horiz-adv-x="410" 
d="M245 -107l-12 25q33 18 45.5 35.5t10.5 46.5h-27v85h66v-74q0 -47 -19 -74t-64 -44zM65 -107l-12 25q33 18 45.5 35.5t10.5 46.5h-27v85h66v-74q0 -47 -19 -74t-64 -44z" />
    <glyph glyph-name="dagger" unicode="&#x2020;" horiz-adv-x="410" 
d="M183 238l5 286l-125 -7v45l124 -7l-7 145h50l-7 -145l124 7v-45l-125 7l5 -286h-44z" />
    <glyph glyph-name="daggerdbl" unicode="&#x2021;" horiz-adv-x="430" 
d="M190 0l7 145l-124 -7v45l125 -7l-5 174l5 174l-125 -7v45l124 -7l-7 145h50l-7 -145l124 7v-45l-125 7l5 -174l-5 -174l125 7v-45l-124 7l7 -145h-50z" />
    <glyph glyph-name="bullet" unicode="&#x2022;" horiz-adv-x="470" 
d="M235 228q-51 0 -87.5 36t-36.5 87v2q0 50 37.5 86.5t86.5 36.5t86.5 -36.5t37.5 -86.5v-2q0 -51 -36.5 -87t-87.5 -36z" />
    <glyph glyph-name="ellipsis" unicode="&#x2026;" horiz-adv-x="680" 
d="M534 0v83h64v-83h-64zM308 0v83h64v-83h-64zM82 0v83h64v-83h-64z" />
    <glyph glyph-name="perthousand" unicode="&#x2030;" horiz-adv-x="1200" 
d="M208 350q-67 0 -110 52.5t-43 124.5v2q0 72 43.5 125.5t111.5 53.5q67 0 110 -52.5t43 -124.5v-2q0 -73 -43.5 -126t-111.5 -53zM128 0l514 700h54l-514 -700h-54zM990 -8q-67 0 -110 52.5t-43 124.5v2q0 72 43.5 125.5t111.5 53.5q67 0 110 -52.5t43 -124.5v-2
q0 -73 -43.5 -126t-111.5 -53zM614 -8q-67 0 -110 52.5t-43 124.5v2q0 72 43.5 125.5t111.5 53.5q67 0 110 -52.5t43 -124.5v-2q0 -73 -43.5 -126t-111.5 -53zM210 393q44 0 72.5 38.5t28.5 95.5v2q0 57 -30.5 96.5t-72.5 39.5q-44 0 -72.5 -39t-28.5 -95v-2q0 -59 30 -97.5
t73 -38.5zM992 35q44 0 72.5 38.5t28.5 95.5v2q0 57 -30.5 96.5t-72.5 39.5q-44 0 -72.5 -39t-28.5 -95v-2q0 -59 30 -97.5t73 -38.5zM616 35q44 0 72.5 38.5t28.5 95.5v2q0 57 -30.5 96.5t-72.5 39.5q-44 0 -72.5 -39t-28.5 -95v-2q0 -59 30 -97.5t73 -38.5z" />
    <glyph glyph-name="guilsinglleft" unicode="&#x2039;" horiz-adv-x="311" 
d="M211 42l-160 209v8l160 209l37 -24l-137 -188l137 -190z" />
    <glyph glyph-name="guilsinglright" unicode="&#x203a;" horiz-adv-x="311" 
d="M100 42l-37 24l137 188l-137 190l37 24l160 -209v-8z" />
    <glyph glyph-name="fraction" unicode="&#x2044;" horiz-adv-x="450" 
d="M-35 0l246 356l231 344h43l-246 -356l-231 -344h-43z" />
    <glyph glyph-name="Euro" unicode="&#x20ac;" horiz-adv-x="720" 
d="M661 572l-40 -27q-42 62 -88.5 91.5t-113.5 29.5q-74 0 -131.5 -56t-82.5 -146h283v-48h-294q-4 -28 -4 -65q0 -31 3 -58h295v-48h-287q24 -96 85.5 -153.5t144.5 -57.5q111 0 194 128l38 -25q-95 -149 -235 -149q-103 0 -177.5 70.5t-101.5 186.5h-90v48h82q-2 13 -2 56
q0 36 4 67h-84v48h94q27 108 100.5 178t167.5 70q147 0 240 -140z" />
    <glyph glyph-name="published" unicode="&#x2117;" horiz-adv-x="830" 
d="M414 -12q-151 0 -256 105.5t-105 254.5v2q0 148 105.5 255t257.5 107q151 0 256 -105.5t105 -254.5v-2q0 -148 -105.5 -255t-257.5 -107zM414 16q141 0 237 98t96 236v2q0 139 -95 235.5t-236 96.5t-237 -98t-96 -236v-2q0 -139 95 -235.5t236 -96.5zM296 175v366h141
q66 0 104.5 -30t38.5 -85v-2q0 -58 -43 -89.5t-107 -31.5h-90v-128h-44zM340 344h91q49 0 76.5 20t27.5 58v2q0 76 -101 76h-94v-156z" />
    <glyph glyph-name="servicemark" unicode="&#x2120;" horiz-adv-x="708" 
d="M351 392v308h37l120 -183l120 183h36v-308h-35v246l-119 -178h-5l-119 178v-246h-35zM164 387q-74 0 -130 50l22 26q49 -44 109 -44q32 0 52 15.5t20 39.5q0 22 -17.5 34.5t-65.5 23.5q-56 12 -81 31.5t-25 56.5t30.5 61t76.5 24q61 0 110 -38l-21 -26q-41 32 -90 32
q-32 0 -51 -14.5t-19 -36.5t17.5 -35t67.5 -24q53 -12 78.5 -32t25.5 -55q0 -40 -31.5 -64.5t-77.5 -24.5z" />
    <glyph glyph-name="trademark" unicode="&#x2122;" horiz-adv-x="690" 
d="M333 392v308h37l120 -183l120 183h36v-308h-35v246l-119 -178h-5l-119 178v-246h-35zM127 392v274h-101v34h237v-34h-101v-274h-35z" />
    <glyph glyph-name="minus" unicode="&#x2212;" horiz-adv-x="620" 
d="M552 327h-484v50h484v-50z" />
    <glyph glyph-name="f_f" unicode="&#xfb00;" horiz-adv-x="724" 
d="M485 0v465h-74v45h74v50q0 88 45 133q40 40 107 40q41 0 76 -12v-46q-42 13 -76 13q-103 0 -103 -129v-49h178v-45h-178v-465h-49zM123 0v465h-74v45h74v50q0 88 45 133q40 40 107 40q41 0 76 -12v-46q-42 13 -76 13q-103 0 -103 -129v-49h178v-45h-178v-465h-49z" />
    <glyph glyph-name="fi" unicode="&#xfb01;" horiz-adv-x="611" 
d="M123 0v465h-74v45h74v50q0 88 45 133q40 40 107 40q41 0 76 -12v-46q-42 13 -76 13q-103 0 -103 -129v-49h178v-45h-178v-465h-49zM462 0v510h49v-510h-49zM456 643v67h61v-67h-61z" />
    <glyph glyph-name="fl" unicode="&#xfb02;" horiz-adv-x="611" 
d="M123 0v465h-74v45h74v50q0 88 45 133q40 40 107 40q41 0 76 -12v-46q-42 13 -76 13q-103 0 -103 -129v-49h178v-45h-178v-465h-49zM462 0v730h49v-730h-49z" />
    <glyph glyph-name="f_f_i" unicode="&#xfb03;" horiz-adv-x="973" 
d="M485 0v465h-74v45h74v50q0 88 45 133q40 40 107 40q41 0 76 -12v-46q-42 13 -76 13q-103 0 -103 -129v-49h178v-45h-178v-465h-49zM123 0v465h-74v45h74v50q0 88 45 133q40 40 107 40q41 0 76 -12v-46q-42 13 -76 13q-103 0 -103 -129v-49h178v-45h-178v-465h-49zM824 0
v510h49v-510h-49zM818 643v67h61v-67h-61z" />
    <glyph glyph-name="f_f_l" unicode="&#xfb04;" horiz-adv-x="973" 
d="M485 0v465h-74v45h74v50q0 88 45 133q40 40 107 40q41 0 76 -12v-46q-42 13 -76 13q-103 0 -103 -129v-49h178v-45h-178v-465h-49zM123 0v465h-74v45h74v50q0 88 45 133q40 40 107 40q41 0 76 -12v-46q-42 13 -76 13q-103 0 -103 -129v-49h178v-45h-178v-465h-49zM824 0
v730h49v-730h-49z" />
    <glyph glyph-name="NUL" horiz-adv-x="0" 
 />
    <glyph glyph-name="CR" horiz-adv-x="300" 
 />
    <glyph glyph-name="Q.alt" horiz-adv-x="850" 
d="M737 -101l-143 131q-76 -42 -170 -42q-155 0 -253 106t-98 254v2q0 149 99 255.5t254 106.5t253 -106t98 -254v-2q0 -86 -35.5 -161.5t-99.5 -126.5l171 -160v-3h-76zM426 35q128 0 212.5 91t84.5 222v2q0 131 -85.5 223t-213.5 92t-212.5 -91t-84.5 -222v-2
q0 -131 85.5 -223t213.5 -92z" />
    <glyph glyph-name="a.alt" horiz-adv-x="660" 
d="M308 -12q-98 0 -173 73t-75 192v2q0 118 75 192.5t173 74.5q128 0 210 -122v110h49v-510h-49v114q-85 -126 -210 -126zM313 35q83 0 145.5 62t62.5 157v2q0 95 -62.5 157t-145.5 62q-86 0 -143 -59t-57 -159v-2q0 -98 58.5 -159t141.5 -61z" />
    <glyph glyph-name="aacute.alt" horiz-adv-x="660" 
d="M308 -12q-98 0 -173 73t-75 192v2q0 118 75 192.5t173 74.5q128 0 210 -122v110h49v-510h-49v114q-85 -126 -210 -126zM313 35q83 0 145.5 62t62.5 157v2q0 95 -62.5 157t-145.5 62q-86 0 -143 -59t-57 -159v-2q0 -98 58.5 -159t141.5 -61zM311 595l88 133l61 -30
l-107 -103h-42z" />
    <glyph glyph-name="abreve.alt" horiz-adv-x="660" 
d="M308 -12q-98 0 -173 73t-75 192v2q0 118 75 192.5t173 74.5q128 0 210 -122v110h49v-510h-49v114q-85 -126 -210 -126zM313 35q83 0 145.5 62t62.5 157v2q0 95 -62.5 157t-145.5 62q-86 0 -143 -59t-57 -159v-2q0 -98 58.5 -159t141.5 -61zM332 593q-57 0 -93 29.5
t-40 82.5h39q21 -64 94 -64t94 64h39q-4 -53 -40 -82.5t-93 -29.5z" />
    <glyph glyph-name="acircumflex.alt" horiz-adv-x="660" 
d="M308 -12q-98 0 -173 73t-75 192v2q0 118 75 192.5t173 74.5q128 0 210 -122v110h49v-510h-49v114q-85 -126 -210 -126zM313 35q83 0 145.5 62t62.5 157v2q0 95 -62.5 157t-145.5 62q-86 0 -143 -59t-57 -159v-2q0 -98 58.5 -159t141.5 -61zM212 595l100 122h40l100 -122
h-47l-74 68l-74 -68h-45z" />
    <glyph glyph-name="adieresis.alt" horiz-adv-x="660" 
d="M308 -12q-98 0 -173 73t-75 192v2q0 118 75 192.5t173 74.5q128 0 210 -122v110h49v-510h-49v114q-85 -126 -210 -126zM313 35q83 0 145.5 62t62.5 157v2q0 95 -62.5 157t-145.5 62q-86 0 -143 -59t-57 -159v-2q0 -98 58.5 -159t141.5 -61zM379 595v80h69v-80h-69z
M216 595v80h69v-80h-69z" />
    <glyph glyph-name="agrave.alt" horiz-adv-x="660" 
d="M308 -12q-98 0 -173 73t-75 192v2q0 118 75 192.5t173 74.5q128 0 210 -122v110h49v-510h-49v114q-85 -126 -210 -126zM313 35q83 0 145.5 62t62.5 157v2q0 95 -62.5 157t-145.5 62q-86 0 -143 -59t-57 -159v-2q0 -98 58.5 -159t141.5 -61zM311 595l-107 103l61 30
l88 -133h-42z" />
    <glyph glyph-name="amacron.alt" horiz-adv-x="660" 
d="M308 -12q-98 0 -173 73t-75 192v2q0 118 75 192.5t173 74.5q128 0 210 -122v110h49v-510h-49v114q-85 -126 -210 -126zM313 35q83 0 145.5 62t62.5 157v2q0 95 -62.5 157t-145.5 62q-86 0 -143 -59t-57 -159v-2q0 -98 58.5 -159t141.5 -61zM185 621v47h294v-47h-294z" />
    <glyph glyph-name="aogonek.alt" horiz-adv-x="660" 
d="M583 -128v-36q-126 4 -126 79q0 46 61 93v106q-85 -126 -210 -126q-98 0 -173 73t-75 192v2q0 118 75 192.5t173 74.5q128 0 210 -122v110h49v-510h-4q-31 -24 -43.5 -41.5t-12.5 -37.5q0 -42 76 -49zM313 35q83 0 145.5 62t62.5 157v2q0 95 -62.5 157t-145.5 62
q-86 0 -143 -59t-57 -159v-2q0 -98 58.5 -159t141.5 -61z" />
    <glyph glyph-name="aring.alt" horiz-adv-x="660" 
d="M308 -12q-98 0 -173 73t-75 192v2q0 118 75 192.5t173 74.5q128 0 210 -122v110h49v-510h-49v114q-85 -126 -210 -126zM313 35q83 0 145.5 62t62.5 157v2q0 95 -62.5 157t-145.5 62q-86 0 -143 -59t-57 -159v-2q0 -98 58.5 -159t141.5 -61zM228 693q0 41 30.5 70.5
t73.5 29.5t73.5 -29.5t30.5 -70.5t-30.5 -70.5t-73.5 -29.5t-73.5 29.5t-30.5 70.5zM262 693q0 -29 20.5 -49.5t49.5 -20.5t49.5 20.5t20.5 49.5t-20.5 49.5t-49.5 20.5t-49.5 -20.5t-20.5 -49.5z" />
    <glyph glyph-name="aring.alt2" horiz-adv-x="574" 
d="M183 588q0 41 30.5 70.5t73.5 29.5t73.5 -29.5t30.5 -70.5q0 -51 -43 -78q53 -11 91 -48q52 -52 52 -144v-318h-48v85q-71 -97 -195 -97q-78 0 -137.5 42.5t-59.5 117.5v2q0 79 61 122.5t162 43.5q86 0 169 -22v22q0 77 -44 116.5t-124 39.5t-160 -41l-18 43
q65 31 124 40q-38 28 -38 74zM251 34q80 0 136.5 44.5t56.5 112.5v58q-90 23 -173 23q-80 0 -124 -32t-44 -87v-2q0 -53 43.5 -85t104.5 -32zM217 588q0 -29 20.5 -49.5t49.5 -20.5t49.5 20.5t20.5 49.5t-20.5 49.5t-49.5 20.5t-49.5 -20.5t-20.5 -49.5z" />
    <glyph glyph-name="aringacute.alt" horiz-adv-x="660" 
d="M310 820l89 118l59 -30l-104 -88h-44zM308 -12q-98 0 -173 73t-75 192v2q0 118 75 192.5t173 74.5q128 0 210 -122v110h49v-510h-49v114q-85 -126 -210 -126zM313 35q83 0 145.5 62t62.5 157v2q0 95 -62.5 157t-145.5 62q-86 0 -143 -59t-57 -159v-2q0 -98 58.5 -159
t141.5 -61zM228 693q0 41 30.5 70.5t73.5 29.5t73.5 -29.5t30.5 -70.5t-30.5 -70.5t-73.5 -29.5t-73.5 29.5t-30.5 70.5zM262 693q0 -29 20.5 -49.5t49.5 -20.5t49.5 20.5t20.5 49.5t-20.5 49.5t-49.5 20.5t-49.5 -20.5t-20.5 -49.5z" />
    <glyph glyph-name="aringacute.alt2" horiz-adv-x="574" 
d="M265 724l89 118l59 -30l-104 -88h-44zM183 588q0 41 30.5 70.5t73.5 29.5t73.5 -29.5t30.5 -70.5q0 -51 -43 -78q53 -11 91 -48q52 -52 52 -144v-318h-48v85q-71 -97 -195 -97q-78 0 -137.5 42.5t-59.5 117.5v2q0 79 61 122.5t162 43.5q86 0 169 -22v22q0 77 -44 116.5
t-124 39.5t-160 -41l-18 43q65 31 124 40q-38 28 -38 74zM251 34q80 0 136.5 44.5t56.5 112.5v58q-90 23 -173 23q-80 0 -124 -32t-44 -87v-2q0 -53 43.5 -85t104.5 -32zM217 588q0 -29 20.5 -49.5t49.5 -20.5t49.5 20.5t20.5 49.5t-20.5 49.5t-49.5 20.5t-49.5 -20.5
t-20.5 -49.5z" />
    <glyph glyph-name="atilde.alt" horiz-adv-x="660" 
d="M308 -12q-98 0 -173 73t-75 192v2q0 118 75 192.5t173 74.5q128 0 210 -122v110h49v-510h-49v114q-85 -126 -210 -126zM313 35q83 0 145.5 62t62.5 157v2q0 95 -62.5 157t-145.5 62q-86 0 -143 -59t-57 -159v-2q0 -98 58.5 -159t141.5 -61zM221 586l-34 9
q14 52 33.5 72.5t50.5 20.5q19 0 65 -20.5t63 -20.5q18 0 28.5 10.5t21.5 39.5l34 -9q-14 -52 -33.5 -72.5t-50.5 -20.5q-19 0 -65 20.5t-63 20.5q-18 0 -28.5 -10.5t-21.5 -39.5z" />
    <glyph glyph-name="three.alt" horiz-adv-x="600" 
d="M303 -12q-81 0 -147.5 35t-110.5 94l42 31q85 -113 218 -113q77 0 127.5 41t50.5 107v2q0 69 -54 107t-153 38h-70v46h71q82 0 134.5 39.5t52.5 106.5v2q0 61 -46.5 101t-121.5 40q-116 0 -195 -107l-40 24q87 130 237 130q95 0 157.5 -53t62.5 -133v-2q0 -121 -133 -166
q68 -19 110 -63t42 -109v-2q0 -82 -66.5 -139t-167.5 -57z" />
    <glyph glyph-name="registered.alt" horiz-adv-x="830" 
d="M414 -12q-151 0 -256 105.5t-105 254.5v2q0 148 105.5 255t257.5 107q151 0 256 -105.5t105 -254.5v-2q0 -148 -105.5 -255t-257.5 -107zM414 16q141 0 237 98t96 236v2q0 139 -95 235.5t-236 96.5t-237 -98t-96 -236v-2q0 -139 95 -235.5t236 -96.5zM276 177v366h164
q70 0 107 -37q28 -28 28 -68v-2q0 -44 -26.5 -70t-73.5 -35l122 -154h-56l-116 147h-106v-147h-43zM319 364h114q44 0 70.5 18t26.5 52v2q0 30 -24.5 48t-67.5 18h-119v-138z" />
    <glyph glyph-name="hfjslug" horiz-adv-x="694" 
d="M644 -200h-208l-8 14h-163l-8 -14h-207v303q14 0 23 9t9 23q0 13 -9 22.5t-23 9.5v554h100l30 79h334l29 -79h101v-921zM400 563v-172h15v78h38v14h-38v66h43v14h-58zM184 563v-172h15v79h47v-79h15v172h-15v-79h-47v79h-15zM460 409v-15q9 -4 21 -4q31 0 31 36v137h-16
v-137q0 -22 -16 -22q-12 0 -20 5zM371 465l-13 3q-2 -4 -4 -15t-4 -15h-1l-16 31q23 21 23 42q0 31 -27 31q-12 0 -20 -9t-8 -22t14 -39q-23 -18 -23 -47q0 -17 8 -27t21 -10q19 0 29 24h1l12 -24l12 6l-17 32q7 17 13 39zM523 323v-46h8v12l8 8l15 -20h10l-20 26l18 20h-10
l-20 -24h-1v24h-8zM488 292l10 -15h9l-12 17q10 4 10 14q0 15 -17 15h-20v-46h8v15h12zM426 276q11 0 17.5 7t6.5 17t-6.5 17t-17.5 7t-17.5 -7t-6.5 -17t6.5 -17t17.5 -7zM370 301l-13 22h-9l18 -29v-17h8v17l18 29h-9zM193 323v-46h34v7h-26v13h23v7h-23v12h26v7h-34z
M132 323v-46h8v32l25 -32h7v46h-8v-32l-25 32h-7zM241 323l14 -47h8l11 34h1l11 -34h8l14 47h-8l-10 -35h-1l-11 35h-7l-11 -35h-1l-10 35h-8zM327 479q-12 22 -12 32q0 19 14 19q13 0 13 -19q0 -15 -15 -32zM322 462l20 -39q-8 -21 -20 -21q-16 0 -16 25q0 19 16 35z
M487 299h-11v17h11q10 0 10 -8q0 -9 -10 -9zM426 283q-16 0 -16 17t16 17t16 -17t-16 -17z" />
    <glyph glyph-name="i.dot" horiz-adv-x="249" 
d="M94 643v67h61v-67h-61zM100 0v510h49v-510h-49z" />
    <glyph glyph-name="caron.alt" 
d="M211 581l17 149h61v-3l-49 -146h-29z" />
    <glyph glyph-name="acute.cap" 
d="M191 765l93 118l59 -28l-107 -90h-45z" />
    <glyph glyph-name="hungarumlaut.cap" 
d="M106 765l93 118l59 -28l-107 -90h-45zM246 765l93 118l59 -28l-107 -90h-45z" />
    <glyph glyph-name="grave.cap" 
d="M216 883l93 -118h-45l-107 90z" />
    <glyph glyph-name="circumflex.cap" 
d="M124 765l103 107h46l103 -107h-54l-73 61l-73 -61h-52z" />
    <glyph glyph-name="caron.cap" 
d="M376 872l-103 -107h-46l-103 107h54l73 -61l73 61h52z" />
    <glyph glyph-name="breve.cap" 
d="M250 763q-57 0 -93 26.5t-40 73.5h44q18 -52 89 -52t89 52h44q-4 -47 -40 -73.5t-93 -26.5z" />
    <glyph glyph-name="tilde.cap" 
d="M139 756l-37 10q14 48 33 68t49 20q20 0 65.5 -19t60.5 -19q18 0 28.5 9.5t21.5 36.5l37 -10q-14 -47 -33 -67t-49 -20q-20 0 -65.5 19t-60.5 19q-18 0 -28.5 -10t-21.5 -37z" />
    <glyph glyph-name="macron.cap" 
d="M95 791v49h310v-49h-310z" />
    <glyph glyph-name="dieresis.cap" 
d="M301 765v76h73v-76h-73zM125 765v76h74v-76h-74z" />
    <glyph glyph-name="dotaccent.cap" 
d="M212 765v76h76v-76h-76z" />
    <glyph glyph-name="ring.cap" 
d="M144 858q0 41 30.5 68t75.5 27t75.5 -27t30.5 -68t-30.5 -68t-75.5 -27t-75.5 27t-30.5 68zM182 858q0 -27 19.5 -45t48.5 -18t48.5 18t19.5 45t-19.5 45t-48.5 18t-48.5 -18t-19.5 -45z" />
    </font>
</defs>
</svg>
